<svg width="798" height="536" viewBox="0 0 798 536" fill="none" xmlns="http://www.w3.org/2000/svg">
<path d="M78 239C78 107.004 185.004 0 317 0H795.846C797.036 0 798 0.964172 798 2.15354V475.846C798 477.036 797.036 478 795.846 478H317C185.004 478 78 370.996 78 239Z" fill="url(#paint0_linear)"/>
<g filter="url(#filter0_d)">
<path d="M227.769 462.634C217.514 462.634 207.34 461.879 197.315 460.333C182.285 458.013 141.078 451.108 104.595 418.525C97.5783 412.258 91.1126 405.378 85.2142 397.981C87.6666 399.011 90.3431 399.589 93.1443 399.616L382.183 402.474C339.459 440.899 282.695 462.634 227.769 462.634ZM71.9272 378.914C36.6891 320.87 30.7524 240.834 60.0044 173.88L71.9272 378.914ZM431.551 147.591L369.497 146.544V109.128H369.542V94.3959C369.542 83.73 360.872 75.1135 350.248 75.1135C350.242 75.1135 350.239 75.1135 350.233 75.1135C350.23 75.1135 350.227 75.1135 350.224 75.1135C350.122 75.1135 350.017 75.1135 349.913 75.1165L260.18 76.5377L143.847 78.3776C178.177 57.363 217.685 46 256.342 46C258.026 46 259.702 46.021 261.383 46.0658C276.511 46.4548 334.49 48.8512 385.444 90.9284C392.929 97.1095 409.435 111.793 424.311 135.091C426.899 139.145 429.313 143.315 431.551 147.591ZM76.7575 142.908C82.4315 134.274 88.711 126.148 95.4992 118.564V141.912L84.6499 141.73C84.5117 141.727 84.3717 141.727 84.2341 141.727C81.6249 141.727 79.1133 142.14 76.7575 142.908Z" fill="url(#paint1_linear)"/>
<path d="M435.213 402.999C435.162 402.999 435.111 402.997 435.06 402.997L382.182 402.475L93.1445 399.616C90.3435 399.589 87.6665 399.011 85.2141 397.981C77.7944 394.866 72.433 387.615 71.9297 378.954L71.9273 378.913L60.0044 173.877L59.6859 168.405C58.9991 156.587 66.3586 146.303 76.7576 142.909C79.1134 142.14 81.625 141.725 84.2344 141.725C84.372 141.725 84.5119 141.725 84.6501 141.728L95.4992 141.91V147.502L88.4814 147.382C88.3459 147.382 88.2107 147.379 88.0759 147.379C74.3181 147.379 63.3479 158.973 64.1685 172.765L76.0929 373.083C76.7454 384.045 85.7721 392.633 96.7539 392.739L429.746 395.957C429.797 395.957 429.845 395.957 429.896 395.957C438.053 395.957 444.767 389.507 445.081 381.338L453.047 172.268C453.442 161.922 445.251 153.273 434.899 153.103L369.499 152.023V146.542L431.549 147.592L440.353 147.738C450.984 147.918 459.39 157.008 458.986 167.884L450.804 387.632C450.484 396.219 443.592 402.999 435.213 402.999Z" fill="#45567C"/>
<path d="M434.901 153.102L88.4816 147.384C74.5345 147.154 63.3402 158.84 64.1689 172.763L76.093 373.082C76.7454 384.045 85.7722 392.632 96.7542 392.739L429.745 395.957C437.972 396.036 444.768 389.557 445.082 381.337L453.049 172.267C453.442 161.923 445.253 153.273 434.901 153.102Z" fill="#91B3FA"/>
<path d="M427.101 158.765L94.0096 153.32C80.599 153.103 69.8354 164.228 70.6323 177.487L82.0975 368.239C82.725 378.679 91.4044 386.856 101.964 386.958L422.144 390.02C430.055 390.096 436.589 383.927 436.891 376.1L444.548 177.017C444.929 167.164 437.056 158.931 427.101 158.765Z" fill="#BDD0FB"/>
<path d="M415.342 379.867H382.093C377.136 379.867 373.119 375.852 373.119 370.898V283.698C373.119 278.744 377.136 274.728 382.093 274.728H419.611C424.737 274.728 428.821 279.016 428.571 284.137L424.302 371.337C424.066 376.114 420.125 379.867 415.342 379.867Z" fill="#DDE7FD"/>
<path d="M421.191 260.36H291.703C286.748 260.36 282.732 256.345 282.732 251.39V211.1H349.638C358.68 211.1 366.308 205.061 368.712 196.794L423.524 197.643C428.595 197.722 432.591 201.984 432.343 207.05L430.151 251.829C429.916 256.607 425.973 260.36 421.191 260.36Z" fill="#DDE7FD"/>
<path d="M347.959 381.974H286.639C281.684 381.974 277.667 377.959 277.667 373.004V285.805C277.667 280.85 281.684 276.836 286.639 276.836H347.959C352.914 276.836 356.928 280.85 356.928 285.805V373.004C356.928 377.959 352.914 381.974 347.959 381.974Z" fill="#DDE7FD"/>
<path d="M256.655 260.445H219.949C217.646 260.445 215.777 258.578 215.777 256.273C215.777 253.969 217.646 252.103 219.949 252.103H256.655C258.958 252.103 260.827 253.969 260.827 256.273C260.827 258.578 258.958 260.445 256.655 260.445Z" fill="#E7EEFE"/>
<path d="M200.675 260.444H163.968C161.663 260.444 159.798 258.579 159.798 256.274C159.798 253.97 161.663 252.103 163.968 252.103H200.675C202.979 252.103 204.845 253.97 204.845 256.274C204.845 258.579 202.979 260.444 200.675 260.444Z" fill="#E7EEFE"/>
<path d="M144.693 260.444H107.988C105.684 260.444 103.816 258.579 103.816 256.274C103.816 253.97 105.684 252.103 107.988 252.103H144.693C146.998 252.103 148.867 253.97 148.867 256.274C148.867 258.579 146.998 260.444 144.693 260.444Z" fill="#E7EEFE"/>
<path d="M256.655 297.99H219.949C217.646 297.99 215.777 296.123 215.777 293.818V269.253C215.777 266.948 217.646 265.08 219.949 265.08H256.655C258.958 265.08 260.827 266.948 260.827 269.253V293.818C260.827 296.123 258.958 297.99 256.655 297.99Z" fill="#E7EEFE"/>
<path d="M200.675 297.99H163.969C161.664 297.99 159.797 296.123 159.797 293.819V269.252C159.797 266.949 161.664 265.08 163.969 265.08H200.675C202.979 265.08 204.846 266.949 204.846 269.252V293.819C204.846 296.123 202.979 297.99 200.675 297.99Z" fill="#E7EEFE"/>
<path d="M144.693 297.99H107.988C105.684 297.99 103.816 296.123 103.816 293.819V269.252C103.816 266.949 105.684 265.08 107.988 265.08H144.693C146.999 265.08 148.865 266.949 148.865 269.252V293.819C148.865 296.123 146.999 297.99 144.693 297.99Z" fill="#E7EEFE"/>
<path d="M250.997 379.868H258.597V345.474H250.997V379.868Z" fill="white"/>
<path d="M238.302 379.868H245.901V357.296H238.302V379.868Z" fill="white"/>
<path d="M225.606 379.867H233.204V328.081H225.606V379.867Z" fill="white"/>
<path d="M212.906 379.868H220.505V367.427H212.906V379.868Z" fill="white"/>
<path d="M200.21 379.868H207.809V335.005H200.21V379.868Z" fill="white"/>
<path d="M187.514 379.868H195.113V342.774H187.514V379.868Z" fill="white"/>
<path d="M174.817 379.868H182.415V351.216H174.817V379.868Z" fill="white"/>
<path d="M162.119 379.868H169.718V317.612H162.119V379.868Z" fill="white"/>
<path d="M149.422 379.868H157.021V324.199H149.422V379.868Z" fill="white"/>
<path d="M136.726 379.868H144.325V334.16H136.726V379.868Z" fill="white"/>
<path d="M124.028 379.868H131.627V368.582H124.028V379.868Z" fill="white"/>
<path d="M111.331 379.868H118.93V346.657H111.331V379.868Z" fill="white"/>
<path d="M272.148 322.931H238.713C237.243 322.931 236.054 321.741 236.054 320.273C236.054 318.805 237.243 317.613 238.713 317.613H272.148C273.617 317.613 274.808 318.805 274.808 320.273C274.808 321.741 273.617 322.931 272.148 322.931Z" fill="#E1E9FD"/>
<path d="M272.148 314.61H238.713C237.243 314.61 236.054 313.418 236.054 311.95C236.054 310.482 237.243 309.292 238.713 309.292H272.148C273.617 309.292 274.808 310.482 274.808 311.95C274.808 313.418 273.617 314.61 272.148 314.61Z" fill="#E1E9FD"/>
<path d="M211.83 322.931H178.394C176.926 322.931 175.735 321.74 175.735 320.272C175.735 318.804 176.926 317.613 178.394 317.613H211.83C213.298 317.613 214.489 318.804 214.489 320.272C214.489 321.74 213.298 322.931 211.83 322.931Z" fill="#E1E9FD"/>
<path d="M211.83 314.609H178.394C176.926 314.609 175.735 313.417 175.735 311.949C175.735 310.481 176.926 309.29 178.394 309.29H211.83C213.298 309.29 214.489 310.481 214.489 311.949C214.489 313.417 213.298 314.609 211.83 314.609Z" fill="#E1E9FD"/>
<path d="M349.637 211.1H282.733H105.289C99.8823 211.1 95.499 206.717 95.499 201.31V153.347V147.501V141.912V118.565V109.129H104.488V197.233C104.488 202.106 108.608 206.056 113.688 206.056H343.308C353.615 206.056 361.97 198.044 361.97 188.161V109.129H369.499V146.542V152.025V157.826V191.241C369.499 193.168 369.223 195.034 368.711 196.795C366.308 205.063 358.679 211.1 349.637 211.1ZM260.18 76.5381L349.913 75.1174C350.017 75.1146 350.121 75.1146 350.222 75.1146C350.228 75.1146 350.231 75.1146 350.234 75.1146C350.132 75.1146 350.034 75.1146 349.935 75.1174L260.18 76.5381Z" fill="#2F4858"/>
<path d="M343.309 206.054H113.689C108.608 206.054 104.489 202.105 104.489 197.232V109.128H361.97V188.16C361.97 198.042 353.615 206.054 343.309 206.054ZM233.41 168.053L223.426 184.431C228.039 187.017 233.306 188.491 238.882 188.517C238.929 188.517 238.979 188.517 239.026 188.517C255.562 188.517 268.962 175.711 270.475 159.297L252.009 158.203C250.928 164.537 245.56 169.314 239.049 169.314C238.992 169.314 238.94 169.314 238.882 169.311C236.937 169.288 235.085 168.84 233.41 168.053ZM160.964 167.121L150.375 183.985C155.269 186.647 160.856 188.168 166.768 188.194C166.821 188.194 166.873 188.194 166.925 188.194C184.455 188.197 198.653 175.015 200.259 158.12L180.687 156.984C179.539 163.506 173.853 168.418 166.949 168.42C166.89 168.42 166.83 168.418 166.768 168.418C164.705 168.392 162.741 167.931 160.964 167.121ZM277.544 146.745C276.651 149.746 276.169 152.944 276.169 156.265C276.169 167.274 281.435 177.049 289.439 182.949L298.888 167.019C296.039 164.524 294.218 160.768 294.218 156.593C294.218 155.583 294.325 154.603 294.528 153.663L277.544 146.745ZM207.748 145.209C206.801 148.295 206.291 151.585 206.291 155.004C206.291 166.334 211.868 176.396 220.346 182.472L230.354 166.082C227.337 163.514 225.408 159.648 225.408 155.351C225.408 154.312 225.522 153.304 225.735 152.335L207.748 145.209ZM133.739 143.576C132.735 146.753 132.194 150.142 132.194 153.668C132.194 165.339 138.112 175.708 147.107 181.967L157.724 165.089C154.523 162.443 152.478 158.461 152.478 154.033C152.478 152.965 152.598 151.926 152.824 150.928L133.739 143.576ZM309.132 124.977L308.838 143.685C314.526 144.719 318.951 149.72 319.48 155.82L336.93 156.901C336.709 140.427 324.611 126.628 309.132 124.977ZM241.2 122.828L240.888 142.076C246.909 143.146 251.592 148.293 252.152 154.57L270.616 155.692C270.382 138.744 257.58 124.542 241.2 122.828ZM305.759 124.81C293.724 124.917 283.376 132.436 278.745 143.399L295.711 150.335C297.636 146.584 301.24 143.964 305.465 143.547L305.759 124.81ZM165.438 120.372C151.923 120.46 140.295 128.412 135.09 140.028L154.155 147.402C156.317 143.43 160.363 140.659 165.107 140.224L165.438 120.372Z" fill="#2F4858"/>
<path d="M369.543 109.128V94.3953C369.543 83.628 360.701 74.9461 349.937 75.1149L105.096 78.9901C99.7504 79.0746 95.4013 83.4338 95.4013 88.7781V109.128H369.543Z" fill="#91B3FA"/>
<path d="M111.108 100.91C109.125 100.91 107.518 99.3041 107.518 97.3204C107.518 95.3393 109.125 93.7307 111.108 93.7307C113.091 93.7307 114.698 95.3393 114.698 97.3204C114.698 99.3041 113.091 100.91 111.108 100.91Z" fill="#BACFFC"/>
<path d="M154.154 147.405L135.089 140.029C140.294 128.414 151.922 120.463 165.437 120.374L165.106 140.225C160.363 140.661 156.316 143.432 154.154 147.405Z" fill="url(#paint2_linear)"/>
<path d="M168.894 140.374C175.279 141.479 180.244 146.784 180.838 153.244L200.407 154.41C200.159 136.965 186.591 122.334 169.225 120.555L168.894 140.374Z" fill="white"/>
<path d="M166.926 188.195C166.873 188.195 166.821 188.195 166.769 188.195C160.857 188.167 155.27 186.647 150.375 183.984L160.965 167.119C162.741 167.93 164.706 168.392 166.769 168.418C166.83 168.418 166.89 168.42 166.95 168.42C173.854 168.418 179.54 163.505 180.687 156.983L200.26 158.118C198.654 175.013 184.455 188.195 166.926 188.195Z" fill="url(#paint3_linear)"/>
<path d="M147.107 181.968C138.111 175.707 132.193 165.34 132.193 153.671C132.193 150.143 132.734 146.754 133.738 143.576L152.824 150.931C152.598 151.926 152.478 152.965 152.478 154.035C152.478 158.462 154.523 162.444 157.723 165.091L147.107 181.968Z" fill="url(#paint4_linear)"/>
<path d="M226.988 148.912C229.025 145.054 232.843 142.361 237.313 141.934L237.626 122.657C224.885 122.753 213.924 130.484 209.019 141.765L226.988 148.912Z" fill="white"/>
<path d="M270.617 155.69L252.152 154.569C251.592 148.293 246.909 143.143 240.888 142.075L241.2 122.828C257.581 124.542 270.383 138.743 270.617 155.69Z" fill="url(#paint5_linear)"/>
<path d="M239.026 188.518C238.977 188.518 238.929 188.518 238.883 188.518C233.306 188.49 228.04 187.016 223.427 184.432L233.41 168.052C235.085 168.839 236.936 169.286 238.883 169.312C238.938 169.312 238.994 169.312 239.049 169.312C245.561 169.312 250.928 164.536 252.01 158.202L270.477 159.296C268.962 175.711 255.562 188.518 239.026 188.518Z" fill="url(#paint6_linear)"/>
<path d="M220.346 182.474C211.869 176.396 206.291 166.335 206.291 155.005C206.291 151.585 206.801 148.294 207.748 145.208L225.734 152.336C225.522 153.303 225.408 154.311 225.408 155.35C225.408 159.647 227.338 163.513 230.355 166.082L220.346 182.474Z" fill="url(#paint7_linear)"/>
<path d="M295.712 150.336L278.745 143.4C283.376 132.436 293.725 124.917 305.76 124.811L305.464 143.546C301.24 143.965 297.636 146.586 295.712 150.336Z" fill="url(#paint8_linear)"/>
<path d="M336.931 156.9L319.48 155.82C318.951 149.722 314.525 144.72 308.836 143.684L309.132 124.977C324.61 126.63 336.708 140.427 336.931 156.9Z" fill="url(#paint9_linear)"/>
<path d="M319.344 159.352C318.313 165.562 313.166 170.233 306.943 170.157C305.106 170.134 303.356 169.698 301.774 168.935L292.347 184.854C296.701 187.364 301.677 188.797 306.943 188.82C322.628 188.891 335.361 176.412 336.796 160.406L319.344 159.352Z" fill="white"/>
<path d="M289.439 182.948C281.434 177.047 276.169 167.272 276.169 156.265C276.169 152.942 276.651 149.746 277.546 146.746L294.528 153.661C294.326 154.603 294.219 155.584 294.219 156.592C294.219 160.768 296.04 164.523 298.889 167.018L289.439 182.948Z" fill="url(#paint10_linear)"/>
<path d="M103.462 448.179C103.462 448.179 102.428 454.03 101.922 459.82C101.724 462.084 103.468 464.05 105.739 464.144C113.451 464.465 129.948 465.089 135.867 464.826C136.757 464.785 137.34 463.874 137.011 463.047C136.735 462.354 136.202 461.792 135.524 461.48L108.274 448.957L103.462 448.179Z" fill="url(#paint11_linear)"/>
<path d="M102.615 444.741L103.445 451.739C103.445 451.739 108.219 453.961 111.479 451.459L109.502 443.66L102.615 444.741Z" fill="url(#paint12_linear)"/>
<path d="M103.239 313.176C102.88 315.004 101.314 404.373 110.867 444.421C111.023 445.075 110.691 445.749 110.069 446.002C108.604 446.601 105.732 447.467 102.29 447.584C101.223 447.62 100.268 446.927 99.9668 445.903C97.2363 436.611 84.1515 390.056 82.4446 345.583C80.5372 295.888 82.4446 343.891 82.4446 343.891L83.5632 313.173L103.239 313.176Z" fill="#2F4858"/>
<path d="M72.1149 451.231C72.1149 451.231 70.4698 454.184 68.8772 462.033C68.5896 463.45 69.5799 464.806 71.0192 464.949C73.5659 465.199 77.4864 465.521 80.6267 465.498C82.0744 465.489 83.2042 464.228 83.0297 462.791C82.6819 459.927 81.5981 455.227 78.2505 451.563L72.1149 451.231Z" fill="url(#paint13_linear)"/>
<path d="M70.67 442.23L72.6102 452.813C72.6102 452.813 74.5283 454.239 78.323 453.206L77.3971 441.819L70.67 442.23Z" fill="url(#paint14_linear)"/>
<path d="M65.4289 315.919C57.6159 363.071 67.1235 432.458 70.3302 446.038C70.5264 446.87 71.1975 447.506 72.0402 447.647C73.4716 447.884 75.828 448.077 78.1512 447.403C78.9517 447.171 79.5139 446.449 79.5466 445.616C79.9767 434.635 79.2025 367.232 86.4824 340.594C86.8513 339.244 87.6756 338.066 88.8164 337.254L102.946 327.21L104.029 310.972L65.4289 315.919Z" fill="#2F4858"/>
<path d="M115.213 226.577C91.7989 226.19 65.9645 232.723 65.9645 232.723C58.9852 273.446 64.7441 320.42 64.7441 320.42C82.8704 325.173 103.318 317.513 103.318 317.513C106.331 300.49 120.387 252.588 120.387 252.588C131.827 251.168 141.252 247.868 149.013 243.504C143.092 236.641 140.302 227.91 139.09 222.749C130.811 225.322 122.434 226.697 115.213 226.577Z" fill="url(#paint15_linear)"/>
<path d="M184.374 192.09C182.072 189.312 179.161 190.626 179.161 190.626C175.717 205.18 157.65 216.981 139.09 222.748C140.302 227.909 143.091 236.643 149.012 243.504C179.814 226.184 184.374 192.09 184.374 192.09Z" fill="url(#paint16_linear)"/>
<path d="M183.814 192.795C184.056 193.56 181.267 194.725 179.627 191.596C179.57 190.097 178.658 183.673 179.553 182.449C184.327 175.944 193.58 167.787 193.58 167.787C195.144 169.329 193.855 170.847 193.855 170.847L189.367 175.522C190.306 177.219 191.451 178.651 191.987 180.703C192.395 182.259 192.146 183.917 191.361 185.334C190.573 186.752 189.497 188.6 188.481 190.041C186.558 192.775 183.814 192.795 183.814 192.795Z" fill="url(#paint17_linear)"/>
<path d="M187.404 178.554L183.314 182.023L182.03 185.474L185.676 189.521C185.676 189.521 186.903 182.67 187.814 181.188C188.725 179.705 188.253 178.988 187.404 178.554Z" fill="url(#paint18_linear)"/>
<path d="M74.9456 255.395L65.965 232.722C65.965 232.722 44.0951 247.581 40.4985 266.423C44.6309 266.727 52.1503 267.802 59.5104 271.519C61.1277 262.623 74.9456 255.395 74.9456 255.395Z" fill="url(#paint19_linear)"/>
<path d="M94.0575 276.728C94.0575 276.728 69.5032 290.605 61.2181 278.756C59.498 276.295 59.0867 273.85 59.5105 271.519C52.1503 267.802 44.6308 266.728 40.4985 266.423C39.4141 272.103 39.9875 278.144 43.3249 284.248C57.8375 310.796 97.3071 282.781 97.3071 282.781L94.0575 276.728Z" fill="url(#paint20_linear)"/>
<path d="M91.1065 294.284L104.507 247.486C104.659 246.954 105.112 246.568 105.661 246.503C108.089 246.22 115.125 245.425 123.248 244.738C133.032 243.91 144.395 243.24 151.185 243.809C152.15 243.893 152.734 244.912 152.305 245.781C148.443 253.594 132.561 285.368 124.608 295.779C124.343 296.122 123.937 296.325 123.502 296.32L92.4103 296.031C91.5055 296.022 90.8575 295.154 91.1065 294.284Z" fill="url(#paint21_linear)"/>
<path d="M94.3441 282.978C94.3441 282.978 92.4774 275.302 93.2303 272.579C93.9834 269.857 95.4423 266.354 100.305 267.133C105.168 267.91 110.905 269.96 110.905 269.96C110.905 269.96 110.615 273.505 106.919 272.363L109.211 274.134C109.211 274.134 108.883 276.976 105.761 275.458L107.893 277.81C107.893 277.81 106.552 280.143 104.256 278.646C101.959 277.151 100.858 283.902 94.3441 282.978Z" fill="url(#paint22_linear)"/>
<path d="M91.4967 207.569L84.0466 229.113C83.9233 229.47 84.07 229.866 84.4005 230.048C86.4311 231.17 93.7476 234.415 102.565 228.825C103.483 228.243 104.109 227.295 104.248 226.217L106.66 207.569H91.4967Z" fill="url(#paint23_linear)"/>
<path d="M106.84 183.491C107.059 183.801 113.749 207.968 113.749 207.968L99.8681 211.496L90.124 189.53C90.124 189.53 103.178 178.301 106.84 183.491Z" fill="url(#paint24_linear)"/>
<path d="M95.3515 192.867L99.5753 204.831C99.6295 204.984 99.7022 205.128 99.7956 205.259C100.369 206.074 102.546 208.731 105.129 206.337C107.473 204.165 109.644 202.218 111.649 201.864C112.55 201.707 113.422 202.256 113.666 203.135C114.273 205.332 115.55 210.308 116 214.796C116.091 215.709 115.462 216.532 114.562 216.703C111.851 217.219 106.103 218.144 101.304 217.806C100.654 217.759 100.082 217.369 99.8102 216.776C98.488 213.886 94.4358 205.119 92.9287 202.849C91.5141 200.721 88.0468 200.779 86.5923 200.907C86.1156 200.952 85.6468 200.797 85.2867 200.482C84.0145 199.366 81.5933 196.521 84.9993 193.113C85.7121 192.397 85.6931 191.248 84.9583 190.555C83.4955 189.182 81.9312 186.742 84.3682 183.717C86.8452 180.641 90.1151 181.133 92.1184 181.861C92.9285 182.158 93.8123 181.815 94.2525 181.073C94.5032 180.652 94.9405 180.333 95.6987 180.397C96.7202 180.486 97.5796 179.633 97.561 178.608C97.5256 176.637 98.2309 174.148 101.648 173.085C107.712 171.199 111.493 177.056 111.868 181.427C112.242 185.798 105.552 187.47 101.618 187.176C98.6264 186.952 96.4053 189.917 95.5127 191.352C95.2297 191.806 95.1732 192.362 95.3515 192.867Z" fill="url(#paint25_linear)"/>
<path d="M94.5096 207.191C94.5096 207.191 93.5304 199.603 90.3734 199.231C87.2166 198.86 84.1439 201.454 87.2824 205.712C91.1864 211.012 94.5096 207.191 94.5096 207.191Z" fill="url(#paint26_linear)"/>
<path d="M432.51 382.132C433.817 384.065 439.005 427.805 439.818 443.959C439.872 445.051 438.999 445.962 437.905 445.962C436.962 445.962 436.158 445.275 436.014 444.344L426.523 383.524L432.51 382.132Z" fill="#45567C"/>
<path d="M390.794 382.131C389.489 384.064 384.301 427.805 383.487 443.958C383.432 445.051 384.306 445.961 385.402 445.961C386.343 445.961 387.147 445.275 387.293 444.343L396.783 383.523L390.794 382.131Z" fill="#45567C"/>
<path d="M440.36 378.719L440.363 379.195C440.395 382.628 437.441 385.441 433.737 385.504L389.869 386.25C386.222 386.313 383.179 383.676 383.004 380.298L382.981 379.862C382.797 376.338 385.788 373.37 389.593 373.303L433.481 372.516C437.237 372.449 440.329 375.237 440.36 378.719Z" fill="#45567C"/>
<path d="M355.019 442.371C362.817 442.371 366.266 441.701 367.81 441.091C367.509 442.372 366.369 443.383 364.927 443.383H337.339C336.411 443.383 335.825 442.493 336.046 441.689C339.192 441.941 345.869 442.371 355.019 442.371Z" fill="url(#paint27_linear)"/>
<path d="M336.047 441.689C336.091 441.526 336.157 441.367 336.273 441.218C338.374 438.537 342.595 434.322 348.338 434.403C356.75 434.521 359.685 435.434 366.22 434.454L367.762 439.566C367.92 440.087 367.922 440.607 367.81 441.091C366.266 441.701 362.816 442.371 355.019 442.371C345.87 442.371 339.191 441.941 336.047 441.689Z" fill="url(#paint28_linear)"/>
<path d="M364.327 428.947L366.22 435.385C366.22 435.385 362.027 437.293 358.337 435.761L357.613 430.183L364.327 428.947Z" fill="url(#paint29_linear)"/>
<path d="M307.15 438.316C313.227 443.2 316.335 444.843 317.918 445.335C316.885 446.142 315.366 446.21 314.242 445.309L292.737 428.028C292.013 427.447 292.111 426.389 292.786 425.904C295.079 428.07 300.017 432.586 307.15 438.316Z" fill="url(#paint30_linear)"/>
<path d="M292.786 425.903C292.921 425.806 293.073 425.722 293.255 425.68C296.565 424.916 302.483 424.29 306.91 427.95C313.393 433.311 315.109 435.856 320.817 439.191L318.833 444.123C318.631 444.625 318.308 445.031 317.92 445.335C316.335 444.842 313.228 443.2 307.149 438.316C300.019 432.585 295.08 428.07 292.786 425.903Z" fill="url(#paint31_linear)"/>
<path d="M404.823 355.592C404.823 355.592 358.137 359.404 348.56 363.914C338.98 368.422 356.376 431.613 356.376 431.613C356.376 431.613 358.98 432.867 364.784 431.065C364.784 431.065 358.834 384.431 363.262 374.32L413.812 366.051L404.823 355.592Z" fill="#2F4858"/>
<path d="M325.457 430.314C325.023 430.71 320.817 439.191 320.817 439.191C320.817 439.191 316.134 438.178 315.181 435.215L319.393 427.56L325.457 430.314Z" fill="url(#paint32_linear)"/>
<path d="M432.943 355.202C432.943 355.202 434.465 358.863 434.403 363.728C434.315 370.456 428.905 375.916 422.187 376.252L366.994 378.769C365.83 378.821 364.842 379.627 364.55 380.758C363.255 385.774 356.914 401.18 325.925 431.921C325.101 432.739 323.815 432.876 322.836 432.258L318.423 429.471C317.96 429.178 317.813 428.57 318.088 428.099L350.225 373.221C351.914 370.436 354.626 368.423 357.783 367.617L404.824 355.593L432.943 355.202Z" fill="#2F4858"/>
<path d="M378.552 269.479C378.552 269.479 384.465 279.932 390.492 284.996L378.033 291.95C378.033 291.95 375.226 280.882 368.809 277.642L378.552 269.479Z" fill="url(#paint33_linear)"/>
<path d="M433.947 355.592C433.947 355.592 419.046 359.222 404.823 355.592C404.823 355.592 384.925 328.839 377.223 321.559C377.223 321.559 364.944 340.937 337.607 343.683L336.084 340.277C336.084 340.277 357.844 330.245 364.544 314.832C371.244 299.418 373.933 292.844 380.031 288.821C383.827 286.318 386.099 284.607 387.273 283.672C387.914 283.161 388.805 283.103 389.506 283.529C395.973 287.471 426.41 308.317 433.947 355.592Z" fill="url(#paint34_linear)"/>
<path d="M385.398 307.171C385.398 307.171 382.75 314.076 378.033 320.225L385.398 307.171Z" fill="url(#paint35_linear)"/>
<path d="M339.252 338.497L336.175 337.678L326.833 335.514C325.709 335.254 324.527 335.453 323.548 336.067L315.518 341.121L337.7 341.083L339.252 338.497Z" fill="url(#paint36_linear)"/>
<path d="M369.163 253.805C369.163 253.805 363.416 263.354 362.42 268.634C361.424 273.916 359.822 277.212 365.831 279.096C371.84 280.977 377.424 278.595 380.927 273.667C380.927 273.667 386.402 266.084 385.855 262.61C385.309 259.138 369.163 253.805 369.163 253.805Z" fill="url(#paint37_linear)"/>
<path d="M379.33 269.58L378.553 269.479C378.553 269.479 382.621 263.33 379.96 261.804C377.296 260.28 366.447 256.536 364.563 252.263C362.747 248.146 365.462 243.493 368.74 242.521C368.947 242.461 369.165 242.583 369.24 242.785L369.432 243.303C369.564 243.658 370.062 243.674 370.214 243.327C370.357 242.998 370.829 242.982 370.976 243.311C371.559 244.591 373.298 246.775 378.516 248.467C385.919 250.867 390.531 254.601 389.961 259.86C389.928 260.192 390.257 260.423 390.565 260.288C391.171 260.021 392.086 259.98 393.153 261.143C395.006 263.169 393.552 267.603 388.495 270.738C388.254 270.888 388.212 271.225 388.425 271.409C389.181 272.059 390.246 273.503 386.823 274.792C383.323 276.11 381.411 275.663 380.706 275.38C380.514 275.304 380.408 275.108 380.447 274.907L381.346 270.297C381.39 270.059 381.227 269.831 380.986 269.8L379.33 269.58Z" fill="url(#paint38_linear)"/>
<path d="M379.011 270.528C379.011 270.528 381.544 264.277 384.207 266.473C386.87 268.672 381.747 273.529 379.381 273.463L379.011 270.528Z" fill="url(#paint39_linear)"/>
<path d="M347.822 345.473C347.787 345.474 347.75 345.476 347.713 345.474L300.324 345.428C299.154 345.427 298.203 344.478 298.205 343.308C298.208 342.139 299.161 341.173 300.331 341.194L347.718 341.24C348.89 341.242 349.839 342.191 349.836 343.361C349.836 344.493 348.943 345.418 347.822 345.473Z" fill="url(#paint40_linear)"/>
<path d="M326.721 347.85C326.928 348.709 346.702 422.868 351.715 441.667C352.294 443.834 350.679 445.961 348.463 445.961C346.916 445.961 345.568 444.896 345.192 443.379L323.245 354.384L326.721 347.85Z" fill="#45567C"/>
<path d="M315.893 347.851C315.686 348.71 295.911 422.868 290.899 441.668C290.323 443.834 291.936 445.962 294.153 445.962C295.7 445.962 297.046 444.897 297.42 443.379L319.371 354.385L315.893 347.851Z" fill="#45567C"/>
<path d="M315.068 345.427H327.384V355.317C327.384 356.737 326.244 357.891 324.841 357.891H323.151V380.103C323.151 381.181 322.289 382.053 321.226 382.053C320.163 382.053 319.301 381.181 319.301 380.103V357.891H318.445C316.581 357.891 315.068 356.361 315.068 354.475V345.427Z" fill="#45567C"/>
<path d="M357.663 343.05H288.901C287.941 343.05 287.103 343.708 286.86 344.65L285.903 348.416C285.557 349.77 286.571 351.088 287.956 351.081L358.513 350.67C359.881 350.663 360.878 349.358 360.544 348.017L359.706 344.662C359.472 343.714 358.63 343.05 357.663 343.05Z" fill="#2F4858"/>
<path d="M340.989 297.83V330.464C340.989 335.567 336.853 339.703 331.749 339.703H287.053C281.813 339.703 277.564 335.455 277.564 330.214V281.077C277.564 276.941 282.67 274.99 285.425 278.072L294.062 287.727C297.387 291.444 303.017 291.965 306.969 288.926L307.796 288.289C310.842 285.946 315.116 286.05 318.044 288.54L322.777 292.563C326.416 295.659 331.506 296.409 335.885 294.492C338.292 293.438 340.989 295.201 340.989 297.83Z" fill="white"/>
</g>
<defs>
<filter id="filter0_d" x="0" y="16" width="519" height="519.5" filterUnits="userSpaceOnUse" color-interpolation-filters="sRGB">
<feFlood flood-opacity="0" result="BackgroundImageFix"/>
<feColorMatrix in="SourceAlpha" type="matrix" values="0 0 0 0 0 0 0 0 0 0 0 0 0 0 0 0 0 0 127 0"/>
<feOffset dx="10" dy="20"/>
<feGaussianBlur stdDeviation="25"/>
<feColorMatrix type="matrix" values="0 0 0 0 0.2875 0 0 0 0 0.168906 0 0 0 0 0.168906 0 0 0 0.5 0"/>
<feBlend mode="normal" in2="BackgroundImageFix" result="effect1_dropShadow"/>
<feBlend mode="normal" in="SourceGraphic" in2="effect1_dropShadow" result="shape"/>
</filter>
<linearGradient id="paint0_linear" x1="788" y1="298" x2="102" y2="-26" gradientUnits="userSpaceOnUse">
<stop stop-color="#FF7A52"/>
<stop offset="1" stop-color="#E7617B"/>
</linearGradient>
<linearGradient id="paint1_linear" x1="1004.67" y1="402.725" x2="386.434" y2="-138.228" gradientUnits="userSpaceOnUse">
<stop stop-color="#DAE3FE"/>
<stop offset="1" stop-color="#E9EFFD"/>
</linearGradient>
<linearGradient id="paint2_linear" x1="482.04" y1="-301.278" x2="670.431" y2="-784.43" gradientUnits="userSpaceOnUse">
<stop stop-color="#7E81FF"/>
<stop offset="1" stop-color="#6F71EC"/>
</linearGradient>
<linearGradient id="paint3_linear" x1="436.824" y1="-227.319" x2="608.527" y2="-667.673" gradientUnits="userSpaceOnUse">
<stop stop-color="#7E81FF"/>
<stop offset="1" stop-color="#6F71EC"/>
</linearGradient>
<linearGradient id="paint4_linear" x1="453.383" y1="-254.404" x2="631.197" y2="-710.432" gradientUnits="userSpaceOnUse">
<stop stop-color="#7E81FF"/>
<stop offset="1" stop-color="#6F71EC"/>
</linearGradient>
<linearGradient id="paint5_linear" x1="479.009" y1="-296.32" x2="666.281" y2="-776.602" gradientUnits="userSpaceOnUse">
<stop stop-color="#7E81FF"/>
<stop offset="1" stop-color="#6F71EC"/>
</linearGradient>
<linearGradient id="paint6_linear" x1="435.319" y1="-224.857" x2="606.466" y2="-663.787" gradientUnits="userSpaceOnUse">
<stop stop-color="#7E81FF"/>
<stop offset="1" stop-color="#6F71EC"/>
</linearGradient>
<linearGradient id="paint7_linear" x1="451.368" y1="-251.109" x2="628.439" y2="-705.229" gradientUnits="userSpaceOnUse">
<stop stop-color="#7E81FF"/>
<stop offset="1" stop-color="#6F71EC"/>
</linearGradient>
<linearGradient id="paint8_linear" x1="476.56" y1="-292.314" x2="662.927" y2="-770.278" gradientUnits="userSpaceOnUse">
<stop stop-color="#7E81FF"/>
<stop offset="1" stop-color="#6F71EC"/>
</linearGradient>
<linearGradient id="paint9_linear" x1="476.355" y1="-291.978" x2="662.647" y2="-769.749" gradientUnits="userSpaceOnUse">
<stop stop-color="#7E81FF"/>
<stop offset="1" stop-color="#6F71EC"/>
</linearGradient>
<linearGradient id="paint10_linear" x1="449.468" y1="-248" x2="625.837" y2="-700.322" gradientUnits="userSpaceOnUse">
<stop stop-color="#7E81FF"/>
<stop offset="1" stop-color="#6F71EC"/>
</linearGradient>
<linearGradient id="paint11_linear" x1="135.006" y1="440.093" x2="35.2162" y2="548.636" gradientUnits="userSpaceOnUse">
<stop stop-color="#09005D"/>
<stop offset="1" stop-color="#1A0F91"/>
</linearGradient>
<linearGradient id="paint12_linear" x1="102.615" y1="448.155" x2="111.479" y2="448.155" gradientUnits="userSpaceOnUse">
<stop stop-color="#FEBBBA"/>
<stop offset="1" stop-color="#FF928E"/>
</linearGradient>
<linearGradient id="paint13_linear" x1="112.619" y1="419.512" x2="12.8296" y2="528.055" gradientUnits="userSpaceOnUse">
<stop stop-color="#09005D"/>
<stop offset="1" stop-color="#1A0F91"/>
</linearGradient>
<linearGradient id="paint14_linear" x1="70.67" y1="447.7" x2="78.3231" y2="447.7" gradientUnits="userSpaceOnUse">
<stop stop-color="#FEBBBA"/>
<stop offset="1" stop-color="#FF928E"/>
</linearGradient>
<linearGradient id="paint15_linear" x1="-976.948" y1="1988.79" x2="-900.783" y2="1864.42" gradientUnits="userSpaceOnUse">
<stop stop-color="#FF928E"/>
<stop offset="1" stop-color="#FE7062"/>
</linearGradient>
<linearGradient id="paint16_linear" x1="260.951" y1="14.1198" x2="238.963" y2="76.9445" gradientUnits="userSpaceOnUse">
<stop stop-color="#FEBBBA"/>
<stop offset="1" stop-color="#FF928E"/>
</linearGradient>
<linearGradient id="paint17_linear" x1="299.958" y1="-12.9472" x2="276.527" y2="53.9979" gradientUnits="userSpaceOnUse">
<stop stop-color="#FEBBBA"/>
<stop offset="1" stop-color="#FF928E"/>
</linearGradient>
<linearGradient id="paint18_linear" x1="272.824" y1="44.6499" x2="289.954" y2="10.0946" gradientUnits="userSpaceOnUse">
<stop stop-color="#FEBBBA"/>
<stop offset="1" stop-color="#FF928E"/>
</linearGradient>
<linearGradient id="paint19_linear" x1="-979.779" y1="1921.75" x2="-906.057" y2="1801.37" gradientUnits="userSpaceOnUse">
<stop stop-color="#FF928E"/>
<stop offset="1" stop-color="#FE7062"/>
</linearGradient>
<linearGradient id="paint20_linear" x1="46.4537" y1="257.222" x2="109.166" y2="257.222" gradientUnits="userSpaceOnUse">
<stop stop-color="#FEBBBA"/>
<stop offset="1" stop-color="#FF928E"/>
</linearGradient>
<linearGradient id="paint21_linear" x1="141.518" y1="185.201" x2="178.949" y2="341.161" gradientUnits="userSpaceOnUse">
<stop stop-color="#09005D"/>
<stop offset="1" stop-color="#1A0F91"/>
</linearGradient>
<linearGradient id="paint22_linear" x1="104.215" y1="251.276" x2="123.709" y2="251.276" gradientUnits="userSpaceOnUse">
<stop stop-color="#FEBBBA"/>
<stop offset="1" stop-color="#FF928E"/>
</linearGradient>
<linearGradient id="paint23_linear" x1="121.702" y1="114.534" x2="151.957" y2="114.534" gradientUnits="userSpaceOnUse">
<stop stop-color="#FEBBBA"/>
<stop offset="1" stop-color="#FF928E"/>
</linearGradient>
<linearGradient id="paint24_linear" x1="159.794" y1="34.4458" x2="157.555" y2="103.089" gradientUnits="userSpaceOnUse">
<stop stop-color="#FEBBBA"/>
<stop offset="1" stop-color="#FF928E"/>
</linearGradient>
<linearGradient id="paint25_linear" x1="146.119" y1="50.9177" x2="187.615" y2="21.6267" gradientUnits="userSpaceOnUse">
<stop stop-color="#09005D"/>
<stop offset="1" stop-color="#1A0F91"/>
</linearGradient>
<linearGradient id="paint26_linear" x1="153.762" y1="64.9773" x2="71.4767" y2="137.582" gradientUnits="userSpaceOnUse">
<stop stop-color="#FEBBBA"/>
<stop offset="1" stop-color="#FF928E"/>
</linearGradient>
<linearGradient id="paint27_linear" x1="614.464" y1="385.321" x2="562.853" y2="385.321" gradientUnits="userSpaceOnUse">
<stop stop-color="#09005D"/>
<stop offset="1" stop-color="#1A0F91"/>
</linearGradient>
<linearGradient id="paint28_linear" x1="574.817" y1="286.03" x2="588.921" y2="383.478" gradientUnits="userSpaceOnUse">
<stop stop-color="#09005D"/>
<stop offset="1" stop-color="#1A0F91"/>
</linearGradient>
<linearGradient id="paint29_linear" x1="609.316" y1="370.426" x2="595.407" y2="370.426" gradientUnits="userSpaceOnUse">
<stop stop-color="#FEBBBA"/>
<stop offset="1" stop-color="#FF928E"/>
</linearGradient>
<linearGradient id="paint30_linear" x1="441.924" y1="399.71" x2="473.07" y2="345.295" gradientUnits="userSpaceOnUse">
<stop stop-color="#09005D"/>
<stop offset="1" stop-color="#1A0F91"/>
</linearGradient>
<linearGradient id="paint31_linear" x1="441.603" y1="324.352" x2="454.032" y2="410.226" gradientUnits="userSpaceOnUse">
<stop stop-color="#09005D"/>
<stop offset="1" stop-color="#1A0F91"/>
</linearGradient>
<linearGradient id="paint32_linear" x1="484.371" y1="388.336" x2="469.481" y2="388.336" gradientUnits="userSpaceOnUse">
<stop stop-color="#FEBBBA"/>
<stop offset="1" stop-color="#FF928E"/>
</linearGradient>
<linearGradient id="paint33_linear" x1="676.516" y1="113.248" x2="667.826" y2="91.3349" gradientUnits="userSpaceOnUse">
<stop stop-color="#FEBBBA"/>
<stop offset="1" stop-color="#FF928E"/>
</linearGradient>
<linearGradient id="paint34_linear" x1="847.129" y1="39.4191" x2="710.925" y2="248.745" gradientUnits="userSpaceOnUse">
<stop stop-color="#FF928E"/>
<stop offset="1" stop-color="#FE7062"/>
</linearGradient>
<linearGradient id="paint35_linear" x1="703.994" y1="19.037" x2="668.633" y2="153.066" gradientUnits="userSpaceOnUse">
<stop stop-color="#FF928E"/>
<stop offset="1" stop-color="#FE7062"/>
</linearGradient>
<linearGradient id="paint36_linear" x1="525.132" y1="239.473" x2="489.398" y2="239.473" gradientUnits="userSpaceOnUse">
<stop stop-color="#FEBBBA"/>
<stop offset="1" stop-color="#FF928E"/>
</linearGradient>
<linearGradient id="paint37_linear" x1="642.543" y1="73.786" x2="681.012" y2="112.155" gradientUnits="userSpaceOnUse">
<stop stop-color="#FEBBBA"/>
<stop offset="1" stop-color="#FF928E"/>
</linearGradient>
<linearGradient id="paint38_linear" x1="689.657" y1="42.5639" x2="643.469" y2="88.2057" gradientUnits="userSpaceOnUse">
<stop stop-color="#09005D"/>
<stop offset="1" stop-color="#1A0F91"/>
</linearGradient>
<linearGradient id="paint39_linear" x1="647.247" y1="68.5926" x2="685.629" y2="106.876" gradientUnits="userSpaceOnUse">
<stop stop-color="#FEBBBA"/>
<stop offset="1" stop-color="#FF928E"/>
</linearGradient>
<linearGradient id="paint40_linear" x1="8419.2" y1="-8179" x2="8289.49" y2="-8040.32" gradientUnits="userSpaceOnUse">
<stop stop-color="#4F52FF"/>
<stop offset="1" stop-color="#4042E2"/>
</linearGradient>
</defs>
</svg>
