<svg width="68" height="65" viewBox="0 0 68 65" fill="none" xmlns="http://www.w3.org/2000/svg">
<g clip-path="url(#clip0)">
<path d="M5.44608 58.5H33.7662V56.333H5.44608C3.64157 56.333 2.17839 54.878 2.17839 53.0829V5.41658C2.17839 3.6213 3.64157 2.16658 5.44608 2.16658H53.3723C55.1779 2.16658 56.64 3.6213 56.64 5.41658V30.3329H58.8189V5.41658C58.8154 2.42656 56.3789 0.00356674 53.3723 1.90735e-05H5.44608C2.44025 0.00356674 0.00385048 2.42656 0 5.41658V53.0829C0.00385048 56.0733 2.44025 58.496 5.44608 58.5Z" fill="url(#paint0_linear)"/>
<path d="M4.35732 6.49997H6.5354V4.33366H4.35732V6.49997Z" fill="url(#paint1_linear)"/>
<path d="M8.71387 6.49997H10.8928V4.33366H8.71387V6.49997Z" fill="url(#paint2_linear)"/>
<path d="M13.0709 6.49997H15.2495V4.33366H13.0709V6.49997Z" fill="url(#paint3_linear)"/>
<path d="M4.35732 10.8337H54.4616V8.66662H4.35732V10.8337Z" fill="url(#paint4_linear)"/>
<path d="M15.5685 13.3172L12.8019 16.0691C10.4632 14.5291 7.33146 15.0017 5.55667 17.162C3.78195 19.3221 3.94113 22.4686 5.92427 24.4407C7.90709 26.4137 11.0711 26.572 13.2432 24.8066C15.415 23.0417 15.8905 19.9264 14.3418 17.601L17.1084 14.8493L15.5685 13.3172ZM9.8029 23.8329C7.99832 23.8329 6.5354 22.3782 6.5354 20.5831C6.5354 18.7881 7.99832 17.3334 9.8029 17.3334C10.2887 17.335 10.7669 17.4458 11.2027 17.658L9.03305 19.8161L10.5729 21.3482L12.7443 19.1915C12.9576 19.6246 13.0692 20.1002 13.0709 20.5831C13.0709 22.3782 11.6082 23.8329 9.8029 23.8329Z" fill="url(#paint5_linear)"/>
<path d="M18.517 19.4997H37.0337V17.3334H18.517V19.4997Z" fill="url(#paint6_linear)"/>
<path d="M18.517 23.8329H26.1414V21.6666H18.517V23.8329Z" fill="url(#paint7_linear)"/>
<path d="M28.3202 23.8329H43.5691V21.6666H28.3202V23.8329Z" fill="url(#paint8_linear)"/>
<path d="M39.2123 19.4997H50.1045V17.3334H39.2123V19.4997Z" fill="url(#paint9_linear)"/>
<path d="M15.5685 26.3172L12.8019 29.0688C10.4632 27.5292 7.33146 28.0015 5.55667 30.1618C3.78195 32.3221 3.94113 35.4683 5.92427 37.441C7.90709 39.4134 11.0711 39.5717 13.2432 37.8066C15.415 36.0415 15.8905 32.9272 14.3418 30.6009L17.1084 27.8491L15.5685 26.3172ZM9.8029 36.8331C7.99832 36.8331 6.5354 35.3779 6.5354 33.5832C6.5354 31.7882 7.99832 30.3329 9.8029 30.3329C10.2887 30.3348 10.7669 30.4459 11.2027 30.658L9.03305 32.8167L10.5729 34.348L12.7443 32.191C12.9576 32.6247 13.0692 33.1 13.0709 33.5832C13.0709 35.3779 11.6082 36.8331 9.8029 36.8331Z" fill="url(#paint10_linear)"/>
<path d="M18.517 32.4997H37.0337V30.3329H18.517V32.4997Z" fill="url(#paint11_linear)"/>
<path d="M18.517 36.8331H26.1414V34.6666H18.517V36.8331Z" fill="url(#paint12_linear)"/>
<path d="M28.3202 36.8331H37.0338V34.6666H28.3202V36.8331Z" fill="url(#paint13_linear)"/>
<path d="M39.2123 32.4997H43.569V30.3329H39.2123V32.4997Z" fill="url(#paint14_linear)"/>
<path d="M15.5685 39.3172L12.8019 42.0688C10.4632 40.5289 7.33146 41.0015 5.55667 43.1618C3.78195 45.3221 3.94113 48.4683 5.92427 50.441C7.90709 52.4136 11.0711 52.5715 13.2432 50.8066C15.415 49.0411 15.8905 45.9267 14.3418 43.6004L17.1084 40.8491L15.5685 39.3172ZM9.8029 49.8329C7.99832 49.8329 6.5354 48.3779 6.5354 46.5832C6.5354 44.7879 7.99832 43.3332 9.8029 43.3332C10.2887 43.3348 10.7669 43.4456 11.2027 43.6577L9.03305 45.8165L10.5729 47.348L12.7443 45.1909C12.9576 45.6244 13.0692 46.1003 13.0709 46.5832C13.0709 48.3779 11.6082 49.8329 9.8029 49.8329Z" fill="url(#paint15_linear)"/>
<path d="M18.517 45.5002H32.6769V43.3331H18.517V45.5002Z" fill="url(#paint16_linear)"/>
<path d="M18.517 49.8329H26.1414V47.6666H18.517V49.8329Z" fill="url(#paint17_linear)"/>
<path d="M28.3202 49.8329H32.6769V47.6666H28.3202V49.8329Z" fill="url(#paint18_linear)"/>
<path d="M51.1942 65C60.2182 65 67.5325 57.724 67.5325 48.75C67.5325 39.7749 60.2182 32.4997 51.1942 32.4997C42.1704 32.4997 34.8556 39.7749 34.8556 48.75C34.8662 57.72 42.1747 64.9892 51.1942 65ZM51.1942 34.6666C59.0142 34.6666 65.3544 40.9719 65.3544 48.75C65.3544 56.5279 59.0142 62.8329 51.1942 62.8329C43.3736 62.8329 37.0337 56.5279 37.0337 48.75C37.043 40.9756 43.3772 34.6753 51.1942 34.6666Z" fill="url(#paint19_linear)"/>
<path d="M44.55 49.3486L42.6002 50.3169L44.7786 54.6503C44.9348 54.9621 45.233 55.1799 45.579 55.2356C45.6352 55.2443 45.6915 55.249 45.7481 55.2497C46.0364 55.2497 46.3136 55.1354 46.5184 54.9325L59.5884 41.9325L58.0488 40.4004L46.046 52.3377L44.55 49.3486Z" fill="url(#paint20_linear)"/>
</g>
<defs>
<linearGradient id="paint0_linear" x1="29.4094" y1="58.5" x2="29.4094" y2="1.90735e-05" gradientUnits="userSpaceOnUse">
<stop stop-color="#E7617B"/>
<stop offset="1" stop-color="#004D73"/>
</linearGradient>
<linearGradient id="paint1_linear" x1="5.44636" y1="6.49997" x2="5.44636" y2="4.33366" gradientUnits="userSpaceOnUse">
<stop stop-color="#E7617B"/>
<stop offset="1" stop-color="#004D73"/>
</linearGradient>
<linearGradient id="paint2_linear" x1="9.80333" y1="6.49997" x2="9.80333" y2="4.33366" gradientUnits="userSpaceOnUse">
<stop stop-color="#E7617B"/>
<stop offset="1" stop-color="#004D73"/>
</linearGradient>
<linearGradient id="paint3_linear" x1="14.1602" y1="6.49997" x2="14.1602" y2="4.33366" gradientUnits="userSpaceOnUse">
<stop stop-color="#E7617B"/>
<stop offset="1" stop-color="#004D73"/>
</linearGradient>
<linearGradient id="paint4_linear" x1="29.4095" y1="10.8337" x2="29.4095" y2="8.66662" gradientUnits="userSpaceOnUse">
<stop stop-color="#E7617B"/>
<stop offset="1" stop-color="#004D73"/>
</linearGradient>
<linearGradient id="paint5_linear" x1="10.7164" y1="26.0324" x2="10.7164" y2="13.3172" gradientUnits="userSpaceOnUse">
<stop stop-color="#E7617B"/>
<stop offset="1" stop-color="#004D73"/>
</linearGradient>
<linearGradient id="paint6_linear" x1="27.7753" y1="19.4997" x2="27.7753" y2="17.3334" gradientUnits="userSpaceOnUse">
<stop stop-color="#E7617B"/>
<stop offset="1" stop-color="#004D73"/>
</linearGradient>
<linearGradient id="paint7_linear" x1="22.3292" y1="23.8329" x2="22.3292" y2="21.6666" gradientUnits="userSpaceOnUse">
<stop stop-color="#E7617B"/>
<stop offset="1" stop-color="#004D73"/>
</linearGradient>
<linearGradient id="paint8_linear" x1="35.9447" y1="23.8329" x2="35.9447" y2="21.6666" gradientUnits="userSpaceOnUse">
<stop stop-color="#E7617B"/>
<stop offset="1" stop-color="#004D73"/>
</linearGradient>
<linearGradient id="paint9_linear" x1="44.6584" y1="19.4997" x2="44.6584" y2="17.3334" gradientUnits="userSpaceOnUse">
<stop stop-color="#E7617B"/>
<stop offset="1" stop-color="#004D73"/>
</linearGradient>
<linearGradient id="paint10_linear" x1="10.7164" y1="39.0323" x2="10.7164" y2="26.3172" gradientUnits="userSpaceOnUse">
<stop stop-color="#E7617B"/>
<stop offset="1" stop-color="#004D73"/>
</linearGradient>
<linearGradient id="paint11_linear" x1="27.7753" y1="32.4997" x2="27.7753" y2="30.3329" gradientUnits="userSpaceOnUse">
<stop stop-color="#E7617B"/>
<stop offset="1" stop-color="#004D73"/>
</linearGradient>
<linearGradient id="paint12_linear" x1="22.3292" y1="36.8331" x2="22.3292" y2="34.6666" gradientUnits="userSpaceOnUse">
<stop stop-color="#E7617B"/>
<stop offset="1" stop-color="#004D73"/>
</linearGradient>
<linearGradient id="paint13_linear" x1="32.677" y1="36.8331" x2="32.677" y2="34.6666" gradientUnits="userSpaceOnUse">
<stop stop-color="#E7617B"/>
<stop offset="1" stop-color="#004D73"/>
</linearGradient>
<linearGradient id="paint14_linear" x1="41.3907" y1="32.4997" x2="41.3907" y2="30.3329" gradientUnits="userSpaceOnUse">
<stop stop-color="#E7617B"/>
<stop offset="1" stop-color="#004D73"/>
</linearGradient>
<linearGradient id="paint15_linear" x1="10.7164" y1="52.0322" x2="10.7164" y2="39.3172" gradientUnits="userSpaceOnUse">
<stop stop-color="#E7617B"/>
<stop offset="1" stop-color="#004D73"/>
</linearGradient>
<linearGradient id="paint16_linear" x1="25.5969" y1="45.5002" x2="25.5969" y2="43.3331" gradientUnits="userSpaceOnUse">
<stop stop-color="#E7617B"/>
<stop offset="1" stop-color="#004D73"/>
</linearGradient>
<linearGradient id="paint17_linear" x1="22.3292" y1="49.8329" x2="22.3292" y2="47.6666" gradientUnits="userSpaceOnUse">
<stop stop-color="#E7617B"/>
<stop offset="1" stop-color="#004D73"/>
</linearGradient>
<linearGradient id="paint18_linear" x1="30.4985" y1="49.8329" x2="30.4985" y2="47.6666" gradientUnits="userSpaceOnUse">
<stop stop-color="#E7617B"/>
<stop offset="1" stop-color="#004D73"/>
</linearGradient>
<linearGradient id="paint19_linear" x1="51.194" y1="65" x2="51.194" y2="32.4997" gradientUnits="userSpaceOnUse">
<stop stop-color="#E7617B"/>
<stop offset="1" stop-color="#004D73"/>
</linearGradient>
<linearGradient id="paint20_linear" x1="51.0943" y1="55.2497" x2="51.0943" y2="40.4004" gradientUnits="userSpaceOnUse">
<stop stop-color="#E7617B"/>
<stop offset="1" stop-color="#004D73"/>
</linearGradient>
<clipPath id="clip0">
<rect width="67.5325" height="65" fill="white"/>
</clipPath>
</defs>
</svg>
