<svg width="65" height="65" viewBox="0 0 65 65" fill="none" xmlns="http://www.w3.org/2000/svg">
<g clip-path="url(#clip0)">
<path d="M48.0613 0H9.90107C8.14124 0 6.70972 1.43165 6.70972 3.19147V4.40642H5.14236C3.38266 4.40642 1.95101 5.83807 1.95101 7.59789V48.39C1.95101 48.9159 2.37732 49.3421 2.90316 49.3421C3.429 49.3421 3.85531 48.9159 3.85531 48.39V7.59789C3.85531 6.8881 4.43269 6.31071 5.14236 6.31071H43.3026C44.0122 6.31071 44.5896 6.8881 44.5896 7.59789V61.8087C44.5896 62.5184 44.0122 63.0958 43.3026 63.0958H5.14236C4.43269 63.0958 3.85531 62.5184 3.85531 61.8087V52.8334C3.85531 52.3075 3.429 51.8813 2.90316 51.8813C2.37732 51.8813 1.95101 52.3075 1.95101 52.8334V61.8087C1.95101 63.5683 3.38266 65.0001 5.14236 65.0001H43.3026C45.0623 65.0001 46.4939 63.5685 46.4939 61.8087V60.5937H48.0611C49.8208 60.5937 51.2525 59.1621 51.2525 57.4022V15.2965C51.2525 14.7705 50.8262 14.3443 50.3003 14.3443C49.7745 14.3443 49.3482 14.7705 49.3482 15.2965V57.4021C49.3482 58.1119 48.7708 58.6893 48.0611 58.6893H46.8461V7.59789C46.8461 5.83819 45.4144 4.40642 43.6547 4.40642C43.1304 4.40642 8.85535 4.40642 8.61389 4.40642V3.19147C8.61402 2.48168 9.19127 1.9043 9.90107 1.9043H48.0613C48.7709 1.9043 49.3483 2.48168 49.3483 3.19147V10.8532C49.3483 11.3792 49.7746 11.8054 50.3005 11.8054C50.8263 11.8054 51.2526 11.3792 51.2526 10.8532V3.19147C51.2526 1.43165 49.821 0 48.0613 0V0Z" fill="white"/>
<path d="M60.9016 18.8901H55.8218C54.6377 18.8901 53.6744 19.8535 53.6744 21.0375V48.0663C53.6744 48.0847 53.6762 48.1026 53.6772 48.1207C53.6777 48.1306 53.6778 48.1405 53.6787 48.1504C53.6854 48.2266 53.7013 48.3 53.7248 48.3699C53.7273 48.3773 53.7302 48.3847 53.7329 48.392C53.7436 48.4212 53.7556 48.4498 53.769 48.4777C53.7711 48.4822 53.7725 48.487 53.7748 48.4914L56.8991 54.751C57.2036 55.361 57.7503 55.7252 58.3619 55.7252C58.9734 55.7252 59.5202 55.361 59.8245 54.7511L62.9488 48.4914C62.9516 48.486 62.9533 48.4801 62.9559 48.4747C62.9683 48.4489 62.9793 48.4225 62.9893 48.3954C62.9928 48.3862 62.9963 48.3772 62.9994 48.3679C63.0103 48.3353 63.0198 48.3019 63.0272 48.2677C63.0277 48.2653 63.0286 48.263 63.0291 48.2606C63.0364 48.2253 63.0414 48.1891 63.0447 48.1525C63.0458 48.14 63.046 48.1276 63.0466 48.1151C63.0475 48.0989 63.049 48.0828 63.049 48.0663C63.049 47.0786 63.049 22.3866 63.049 21.0375C63.049 19.8535 62.0857 18.8901 60.9016 18.8901V18.8901ZM58.3618 53.4176L56.1661 49.0185H60.5575L58.3618 53.4176ZM61.1447 47.1141H55.5788V26.7531H61.1447V47.1141ZM61.1447 24.8488H55.5788V21.0375C55.5788 20.9035 55.6879 20.7944 55.8219 20.7944H60.9017C61.0358 20.7944 61.1448 20.9035 61.1448 21.0375V24.8488H61.1447Z" fill="white"/>
<path d="M7.39096 57.9233C7.39096 59.0084 8.27366 59.8911 9.35873 59.8911H14.6061C15.6912 59.8911 16.5739 59.0084 16.5739 57.9233V52.9092L18.7462 50.5983C19.1063 50.2151 19.0877 49.6125 18.7045 49.2523C18.3214 48.8922 17.7189 48.9108 17.3586 49.294L15.7098 51.048C15.3948 50.8337 15.0149 50.7082 14.6061 50.7082H9.35873C8.27366 50.7082 7.39096 51.5909 7.39096 52.676V57.9233ZM14.6696 54.935V57.9233C14.6696 57.9583 14.6411 57.9868 14.6061 57.9868H11.7843C11.8217 57.9575 11.8579 57.926 11.8911 57.8908L14.6696 54.935ZM9.29525 52.676C9.29525 52.6411 9.32369 52.6125 9.35873 52.6125H14.2392L11.3307 55.7066L9.62432 53.1062C9.53786 52.9745 9.42386 52.8718 9.29538 52.7995V52.676H9.29525ZM9.29525 56.0761C10.5009 57.9133 10.4428 57.8559 10.6093 57.9868H9.35873C9.32369 57.9868 9.29525 57.9583 9.29525 57.9233V56.0761Z" fill="white"/>
<path d="M40.0696 54.3475H19.8417C19.3159 54.3475 18.8896 54.7737 18.8896 55.2997C18.8896 55.8256 19.3159 56.2518 19.8417 56.2518H40.0696C40.5954 56.2518 41.0217 55.8256 41.0217 55.2997C41.0217 54.7737 40.5954 54.3475 40.0696 54.3475Z" fill="white"/>
<path d="M9.61264 30.8383H26.4922C27.7172 30.8383 28.7139 29.8416 28.7139 28.6166V11.7369C28.7139 10.512 27.7172 9.51526 26.4922 9.51526H9.61264C8.38766 9.51526 7.39095 10.512 7.39095 11.7369V28.6166C7.39095 29.8417 8.38766 30.8383 9.61264 30.8383V30.8383ZM9.29525 11.7369C9.29525 11.5619 9.43769 11.4196 9.61264 11.4196H26.4922C26.6671 11.4196 26.8096 11.5619 26.8096 11.7369V28.6166C26.8096 28.7917 26.6671 28.934 26.4922 28.934H9.61264C9.43769 28.934 9.29525 28.7917 9.29525 28.6166V11.7369Z" fill="white"/>
<path d="M14.3457 27.4079C14.8713 27.4079 15.2991 26.9814 15.2991 26.457V24.4004C15.3016 22.8885 16.5304 21.6548 18.0408 21.6458C18.0447 21.6458 18.0485 21.646 18.0525 21.646C18.0565 21.646 18.0605 21.6458 18.0644 21.6458C19.5749 21.6547 20.8038 22.8884 20.8063 24.4004V25.5048H18.7891C18.2647 25.5048 17.8369 25.9313 17.8369 26.4569C17.8369 26.9812 18.2647 27.4091 18.7891 27.4091C18.7903 27.4091 18.7916 27.4091 18.7916 27.4078H21.7585C22.0086 27.4078 22.2549 27.3062 22.4313 27.1299C22.6091 26.9522 22.7106 26.7071 22.7106 26.4569V24.4004C22.7106 23.1549 22.2257 21.9856 21.3459 21.106C21.18 20.94 21.0038 20.7882 20.8187 20.6511C21.7857 19.8524 22.403 18.6449 22.403 17.2957C22.403 14.8968 20.4514 12.945 18.0525 12.945C15.6536 12.945 13.7019 14.8967 13.7019 17.2957C13.7019 18.6447 14.3192 19.8523 15.286 20.651C15.1008 20.7882 14.9243 20.94 14.7583 21.1061C13.8785 21.9859 13.3948 23.1551 13.3948 24.4005V26.457C13.3948 26.7073 13.4964 26.9522 13.6728 27.13C13.8506 27.3064 14.0956 27.4079 14.3457 27.4079V27.4079ZM18.0525 14.8493C19.4013 14.8493 20.4987 15.9468 20.4987 17.2957C20.4987 18.6418 19.4058 19.7369 18.0607 19.7415C18.0581 19.7415 18.0554 19.7413 18.0527 19.7413C18.0499 19.7413 18.0471 19.7415 18.0443 19.7416C16.6993 19.7372 15.6062 18.6419 15.6062 17.2958C15.6062 15.9467 16.7036 14.8493 18.0525 14.8493V14.8493Z" fill="white"/>
<path d="M31.6541 16.0681H40.0696C40.5954 16.0681 41.0217 15.6419 41.0217 15.1159C41.0217 14.59 40.5954 14.1638 40.0696 14.1638H31.6541C31.1283 14.1638 30.702 14.59 30.702 15.1159C30.702 15.6419 31.1283 16.0681 31.6541 16.0681Z" fill="white"/>
<path d="M31.6541 21.4662H40.0696C40.5954 21.4662 41.0217 21.04 41.0217 20.5141C41.0217 19.9881 40.5954 19.5619 40.0696 19.5619H31.6541C31.1283 19.5619 30.702 19.9881 30.702 20.5141C30.702 21.04 31.1283 21.4662 31.6541 21.4662Z" fill="white"/>
<path d="M31.6541 27.224H40.0696C40.5954 27.224 41.0217 26.7978 41.0217 26.2718C41.0217 25.7459 40.5954 25.3197 40.0696 25.3197H31.6541C31.1283 25.3197 30.702 25.7459 30.702 26.2718C30.702 26.7978 31.1283 27.224 31.6541 27.224Z" fill="white"/>
<path d="M8.3431 36.4184H40.0696C40.5954 36.4184 41.0217 35.9922 41.0217 35.4662C41.0217 34.9403 40.5954 34.5141 40.0696 34.5141H8.3431C7.81726 34.5141 7.39095 34.9403 7.39095 35.4662C7.39095 35.9922 7.81726 36.4184 8.3431 36.4184V36.4184Z" fill="white"/>
<path d="M8.3431 41.8165H40.0696C40.5954 41.8165 41.0217 41.3903 41.0217 40.8643C41.0217 40.3384 40.5954 39.9122 40.0696 39.9122H8.3431C7.81726 39.9122 7.39095 40.3384 7.39095 40.8643C7.39095 41.3903 7.81726 41.8165 8.3431 41.8165V41.8165Z" fill="white"/>
<path d="M8.3431 47.2145H40.0696C40.5954 47.2145 41.0217 46.7883 41.0217 46.2623C41.0217 45.7364 40.5954 45.3102 40.0696 45.3102H8.3431C7.81726 45.3102 7.39095 45.7364 7.39095 46.2623C7.39095 46.7883 7.81726 47.2145 8.3431 47.2145V47.2145Z" fill="white"/>
</g>
<defs>
<clipPath id="clip0">
<rect width="65" height="65" fill="white"/>
</clipPath>
</defs>
</svg>
