<svg width="65" height="65" viewBox="0 0 65 65" fill="none" xmlns="http://www.w3.org/2000/svg">
<path d="M60.4117 34.0275C58.002 33.5265 54.7376 33.2617 50.9717 33.2617C49.4174 33.2617 47.9503 33.3075 46.5918 33.3958V3.49121C46.5918 1.56622 45.0256 0 43.1006 0H3.49121C1.46821 0 0 1.68187 0 3.99902V56.6846C0 58.0642 1.52509 59.668 3.49121 59.668H36.9434V61.1279C36.9434 63.2803 40.3967 63.9982 41.5317 64.2342C43.9414 64.7352 47.2057 65 50.9717 65C54.7376 65 58.002 64.7352 60.4117 64.2342C61.5466 63.9982 65 63.2803 65 61.1279V37.1338C65 34.9814 61.5466 34.2635 60.4117 34.0275ZM63.0957 49.1248C63.076 49.1656 62.6798 49.8654 59.7058 50.4364C57.4487 50.8697 54.4285 51.0988 50.9717 51.0988C47.5149 51.0988 44.4947 50.8697 42.2376 50.4364C39.1904 49.8514 38.8493 49.1309 38.8477 49.1309V45.4204C39.8442 45.8872 40.9708 46.1219 41.5317 46.2385C43.9414 46.7394 47.2057 47.0043 50.9717 47.0043C54.7376 47.0043 58.002 46.7394 60.4117 46.2385C60.9724 46.1219 62.0991 45.8872 63.0957 45.4204V49.1248ZM24.502 49.3213C23.976 49.3213 23.5498 49.7475 23.5498 50.2734V52.6855H9.07715C8.58089 52.6855 8.25195 52.279 8.25195 52.1143V42.6562H23.5498V45.8301C23.5498 46.356 23.976 46.7822 24.502 46.7822C25.0279 46.7822 25.4541 46.356 25.4541 45.8301V42.6562H36.9434V52.6855H25.4541V50.2734C25.4541 49.7475 25.0279 49.3213 24.502 49.3213ZM40.752 34.2014C39.292 34.5594 36.9434 35.3585 36.9434 37.1338V40.752H25.4541V30.7227H39.9268C40.3818 30.7227 40.752 31.0929 40.752 31.5479V34.2014ZM23.5498 40.752H8.25195V31.8018C8.25195 31.1563 8.58355 30.7227 9.07715 30.7227H23.5498V40.752ZM63.0957 43.1262C63.076 43.1671 62.6798 43.8669 59.7058 44.4379C57.4487 44.8712 54.4285 45.1002 50.9717 45.1002C47.5149 45.1002 44.4947 44.8712 42.2376 44.4379C39.1904 43.8529 38.8493 43.1323 38.8477 43.1323V39.4219C39.8442 39.8887 40.9708 40.1234 41.5317 40.24C43.9414 40.741 47.2057 41.0059 50.9717 41.0059C54.7376 41.0059 58.002 40.741 60.4117 40.2401C60.9724 40.1235 62.0991 39.8888 63.0957 39.422V43.1262ZM59.7058 35.8283C62.5777 36.3797 63.0459 37.0515 63.0925 37.1338C63.0459 37.2161 62.5777 37.8879 59.7058 38.4392C57.4487 38.8725 54.4285 39.1016 50.9717 39.1016C47.5149 39.1016 44.4947 38.8725 42.2376 38.4392C39.3656 37.8879 38.8974 37.2161 38.8508 37.1338C38.8974 37.0515 39.3656 36.3797 42.2376 35.8283C44.4947 35.395 47.5149 35.166 50.9717 35.166C54.4285 35.166 57.4487 35.395 59.7058 35.8283ZM3.49121 57.7637C2.57436 57.7637 1.9043 57.0064 1.9043 56.6846V25.6445H33.2617C33.7877 25.6445 34.2139 25.2183 34.2139 24.6924C34.2139 24.1664 33.7877 23.7402 33.2617 23.7402H1.9043V3.99902C1.9043 2.72657 2.52713 1.9043 3.49121 1.9043H43.1006C43.9757 1.9043 44.6875 2.61612 44.6875 3.49121V23.7402H37.7051C37.1791 23.7402 36.7529 24.1664 36.7529 24.6924C36.7529 25.2183 37.1791 25.6445 37.7051 25.6445H44.6875V33.5547C43.9677 33.6298 43.2896 33.719 42.6562 33.8217V31.5479C42.6562 30.0428 41.4318 28.8184 39.9268 28.8184H9.07715C7.52108 28.8184 6.34766 30.101 6.34766 31.8018V52.1143C6.34766 53.433 7.62315 54.5898 9.07715 54.5898H36.9434V57.7637H3.49121ZM59.7058 62.4334C57.4487 62.8667 54.4285 63.0957 50.9717 63.0957C47.5149 63.0957 44.4947 62.8667 42.2376 62.4334C39.1904 61.8485 38.8493 61.1279 38.8477 61.1279V57.4175C39.8442 57.8843 40.9708 58.119 41.5317 58.2356C43.9414 58.7365 47.2057 59.0013 50.9717 59.0013C52.7862 59.0013 54.505 58.9385 56.0803 58.8143C56.6045 58.7731 56.996 58.3146 56.9547 57.7905C56.9135 57.2663 56.4538 56.8746 55.9308 56.916C54.4051 57.0361 52.7367 57.097 50.9717 57.097C47.5149 57.097 44.4947 56.868 42.2376 56.4347C39.1904 55.85 38.8493 55.1294 38.8477 55.1294V51.4189C39.8442 51.8857 40.9708 52.1205 41.5317 52.237C43.9414 52.738 47.2057 53.0028 50.9717 53.0028C54.7376 53.0028 58.002 52.738 60.4117 52.237C60.9724 52.1205 62.0991 51.8857 63.0957 51.4189V55.1232C63.0762 55.1638 62.7255 55.7836 60.2054 56.3327C59.6916 56.4446 59.3658 56.9519 59.4778 57.4657C59.5875 57.9832 60.1101 58.3067 60.6108 58.1933C61.1319 58.0798 62.1634 57.8543 63.0957 57.4182V61.1217C63.076 61.1627 62.6798 61.8624 59.7058 62.4334V62.4334Z" fill="url(#paint0_linear)"/>
<path d="M42.7832 17.8369V7.80762C42.7832 6.30259 41.5587 5.07812 40.0537 5.07812H19.043C18.517 5.07812 18.0908 5.50431 18.0908 6.03027C18.0908 6.55624 18.517 6.98242 19.043 6.98242H40.0537C40.5087 6.98242 40.8789 7.35262 40.8789 7.80762V17.8369C40.8789 18.2919 40.5087 18.6621 40.0537 18.6621H9.07715C8.62215 18.6621 8.25195 18.2919 8.25195 17.8369V7.80762C8.25195 7.35262 8.62215 6.98242 9.07715 6.98242H14.5996C15.1256 6.98242 15.5518 6.55624 15.5518 6.03027C15.5518 5.50431 15.1256 5.07812 14.5996 5.07812H9.07715C7.57212 5.07812 6.34766 6.30259 6.34766 7.80762V17.8369C6.34766 19.3419 7.57212 20.5664 9.07715 20.5664H40.0537C41.5587 20.5664 42.7832 19.3419 42.7832 17.8369Z" fill="url(#paint1_linear)"/>
<path d="M19.9951 46.7188H13.1396C12.6137 46.7188 12.1875 47.1449 12.1875 47.6709C12.1875 48.1969 12.6137 48.623 13.1396 48.623H19.9951C20.5211 48.623 20.9473 48.1969 20.9473 47.6709C20.9473 47.1449 20.5211 46.7188 19.9951 46.7188Z" fill="url(#paint2_linear)"/>
<path d="M13.7744 36.6895H15.6152V38.5303C15.6152 39.0562 16.0414 39.4824 16.5674 39.4824C17.0933 39.4824 17.5195 39.0562 17.5195 38.5303V36.6895H19.3604C19.8863 36.6895 20.3125 36.2633 20.3125 35.7373C20.3125 35.2113 19.8863 34.7852 19.3604 34.7852H17.5195V32.9443C17.5195 32.4184 17.0933 31.9922 16.5674 31.9922C16.0414 31.9922 15.6152 32.4184 15.6152 32.9443V34.7852H13.7744C13.2484 34.7852 12.8223 35.2113 12.8223 35.7373C12.8223 36.2633 13.2484 36.6895 13.7744 36.6895Z" fill="url(#paint3_linear)"/>
<path d="M35.1482 33.0891C34.7763 32.7174 34.1735 32.7174 33.8017 33.0891L32.5 34.3907L31.1984 33.0891C30.8264 32.7174 30.2236 32.7174 29.8518 33.0891C29.4799 33.4611 29.4799 34.0638 29.8518 34.4357L31.1534 35.7373L29.8518 37.039C29.4799 37.411 29.4799 38.0137 29.8518 38.3856C30.2237 38.7573 30.8264 38.7573 31.1984 38.3856L32.5 37.0839L33.8017 38.3856C34.1736 38.7573 34.7763 38.7573 35.1482 38.3856C35.5201 38.0136 35.5201 37.4108 35.1482 37.039L33.8466 35.7373L35.1482 34.4357C35.5201 34.0637 35.5201 33.4609 35.1482 33.0891V33.0891Z" fill="url(#paint4_linear)"/>
<path d="M30.3603 50.7998C30.604 50.7998 30.8477 50.7068 31.0337 50.521L35.3501 46.2046C35.722 45.8326 35.722 45.2298 35.3501 44.858C34.9781 44.4863 34.3754 44.4863 34.0035 44.858L29.6871 49.1744C29.3153 49.5464 29.3153 50.1491 29.6871 50.521C29.8731 50.7068 30.1168 50.7998 30.3603 50.7998V50.7998Z" fill="url(#paint5_linear)"/>
<path d="M30.6592 46.2109C31.185 46.2109 31.6113 45.7846 31.6113 45.2588C31.6113 44.7329 31.185 44.3066 30.6592 44.3066C30.1333 44.3066 29.707 44.7329 29.707 45.2588C29.707 45.7846 30.1333 46.2109 30.6592 46.2109Z" fill="url(#paint6_linear)"/>
<path d="M34.4678 51.0352C34.9936 51.0352 35.4199 50.6089 35.4199 50.083C35.4199 49.5572 34.9936 49.1309 34.4678 49.1309C33.9419 49.1309 33.5156 49.5572 33.5156 50.083C33.5156 50.6089 33.9419 51.0352 34.4678 51.0352Z" fill="url(#paint7_linear)"/>
<path d="M36.8799 16.8848C38.1049 16.8848 39.1016 15.8881 39.1016 14.6631V10.9814C39.1016 9.75647 38.1049 8.75977 36.8799 8.75977H35.1025C33.8776 8.75977 32.8809 9.75647 32.8809 10.9814V14.6631C32.8809 15.8881 33.8776 16.8848 35.1025 16.8848H36.8799ZM34.7852 14.6631V10.9814C34.7852 10.8064 34.9275 10.6641 35.1025 10.6641H36.8799C37.055 10.6641 37.1973 10.8064 37.1973 10.9814V14.6631C37.1973 14.8382 37.055 14.9805 36.8799 14.9805H35.1025C34.9275 14.9805 34.7852 14.8382 34.7852 14.6631Z" fill="url(#paint8_linear)"/>
<defs>
<linearGradient id="paint0_linear" x1="32.5" y1="0" x2="32.5" y2="65" gradientUnits="userSpaceOnUse">
<stop stop-color="#E7617B"/>
<stop offset="1" stop-color="#004D73"/>
</linearGradient>
<linearGradient id="paint1_linear" x1="24.5654" y1="5.07812" x2="24.5654" y2="20.5664" gradientUnits="userSpaceOnUse">
<stop stop-color="#E7617B"/>
<stop offset="1" stop-color="#004D73"/>
</linearGradient>
<linearGradient id="paint2_linear" x1="16.5674" y1="46.7188" x2="16.5674" y2="48.623" gradientUnits="userSpaceOnUse">
<stop stop-color="#E7617B"/>
<stop offset="1" stop-color="#004D73"/>
</linearGradient>
<linearGradient id="paint3_linear" x1="16.5674" y1="31.9922" x2="16.5674" y2="39.4824" gradientUnits="userSpaceOnUse">
<stop stop-color="#E7617B"/>
<stop offset="1" stop-color="#004D73"/>
</linearGradient>
<linearGradient id="paint4_linear" x1="32.5" y1="32.8103" x2="32.5" y2="38.6644" gradientUnits="userSpaceOnUse">
<stop stop-color="#E7617B"/>
<stop offset="1" stop-color="#004D73"/>
</linearGradient>
<linearGradient id="paint5_linear" x1="32.5186" y1="44.5792" x2="32.5186" y2="50.7998" gradientUnits="userSpaceOnUse">
<stop stop-color="#E7617B"/>
<stop offset="1" stop-color="#004D73"/>
</linearGradient>
<linearGradient id="paint6_linear" x1="30.6592" y1="44.3066" x2="30.6592" y2="46.2109" gradientUnits="userSpaceOnUse">
<stop stop-color="#E7617B"/>
<stop offset="1" stop-color="#004D73"/>
</linearGradient>
<linearGradient id="paint7_linear" x1="34.4678" y1="49.1309" x2="34.4678" y2="51.0352" gradientUnits="userSpaceOnUse">
<stop stop-color="#E7617B"/>
<stop offset="1" stop-color="#004D73"/>
</linearGradient>
<linearGradient id="paint8_linear" x1="35.9912" y1="8.75977" x2="35.9912" y2="16.8848" gradientUnits="userSpaceOnUse">
<stop stop-color="#E7617B"/>
<stop offset="1" stop-color="#004D73"/>
</linearGradient>
</defs>
</svg>
