<svg width="170" height="121" viewBox="0 0 170 121" fill="none" xmlns="http://www.w3.org/2000/svg">
<mask id="mask0" mask-type="alpha" maskUnits="userSpaceOnUse" x="0" y="0" width="170" height="121">
<path d="M153.81 0H16.1905C7.24872 0 0 7.22314 0 16.1333V104.867C0 113.777 7.24872 121 16.1905 121H153.81C162.751 121 170 113.777 170 104.867V16.1333C170 7.22314 162.751 0 153.81 0Z" fill="white"/>
</mask>
<g mask="url(#mask0)">
<path d="M153.81 0H16.1905C7.24872 0 0 7.22314 0 16.1333V104.867C0 113.777 7.24872 121 16.1905 121H153.81C162.751 121 170 113.777 170 104.867V16.1333C170 7.22314 162.751 0 153.81 0Z" fill="#006B4D"/>
<path d="M76.9048 96.7999C97.0237 96.7999 113.333 80.5479 113.333 60.5C113.333 40.452 97.0237 24.2 76.9048 24.2C56.7858 24.2 40.4762 40.452 40.4762 60.5C40.4762 80.5479 56.7858 96.7999 76.9048 96.7999Z" fill="#F7253B"/>
<path d="M153.81 4.0332H16.1905C9.48415 4.0332 4.04761 9.45056 4.04761 16.1332V104.867C4.04761 111.549 9.48415 116.967 16.1905 116.967H153.81C160.516 116.967 165.952 111.549 165.952 104.867V16.1332C165.952 9.45056 160.516 4.0332 153.81 4.0332Z" stroke="black" stroke-opacity="0.1"/>
</g>
</svg>
