<svg width="91" height="91" viewBox="0 0 91 91" fill="none" xmlns="http://www.w3.org/2000/svg">
<rect width="91" height="91" rx="5" fill="#2F4858"/>
<path d="M58.1203 61C42.1235 61.0227 29.9829 48.7366 30 32.8797C30 31.8442 30.8395 31 31.875 31H36.8238C37.753 31 38.5424 31.6827 38.6788 32.6019C39.0058 34.8047 39.6472 36.9493 40.5834 38.9701L40.7761 39.3859C41.044 39.9642 40.8624 40.6513 40.3438 41.0216C38.8112 42.1161 38.2255 44.3192 39.4194 46.0382C40.9177 48.1953 42.8063 50.0836 44.963 51.5812C46.6819 52.7748 48.8846 52.1891 49.9791 50.6568C50.3497 50.1379 51.0371 49.9562 51.6157 50.2243L52.0297 50.416C54.0506 51.3522 56.1953 51.9936 58.3984 52.3205C59.3176 52.4569 60 53.2463 60 54.1755V59.125C60 60.1605 59.1585 61 58.123 61L58.1203 61Z" fill="white"/>
</svg>
