<svg width="30" height="30" viewBox="0 0 30 30" fill="none" xmlns="http://www.w3.org/2000/svg">
<path d="M28.1203 30C12.1235 30.0227 -0.0170955 17.7366 1.80702e-05 1.87971C1.80702e-05 0.844172 0.839485 0 1.87502 0H6.82381C7.75301 0 8.54237 0.682743 8.67882 1.60187C9.00583 3.80475 9.6472 5.94932 10.5834 7.97007L10.7761 8.38595C11.044 8.9642 10.8624 9.65126 10.3438 10.0216C8.81119 11.1161 8.22548 13.3192 9.41943 15.0382C10.9177 17.1953 12.8063 19.0836 14.963 20.5812C16.6819 21.7748 18.8846 21.1891 19.9791 19.6568C20.3497 19.1379 21.0371 18.9562 21.6157 19.2243L22.0297 19.416C24.0506 20.3522 26.1953 20.9936 28.3984 21.3205C29.3176 21.457 30 22.2463 30 23.1755V28.125C30 29.1605 29.1585 30 28.123 30L28.1203 30Z" fill="white"/>
</svg>
