<svg width="170" height="121" viewBox="0 0 170 121" fill="none" xmlns="http://www.w3.org/2000/svg">
<mask id="mask0" mask-type="alpha" maskUnits="userSpaceOnUse" x="0" y="0" width="170" height="121">
<path d="M153.81 0H16.1905C7.24872 0 0 7.22314 0 16.1333V104.867C0 113.777 7.24872 121 16.1905 121H153.81C162.751 121 170 113.777 170 104.867V16.1333C170 7.22314 162.751 0 153.81 0Z" fill="white"/>
</mask>
<g mask="url(#mask0)">
<path d="M153.81 0H16.1905C7.24872 0 0 7.22314 0 16.1333V104.867C0 113.777 7.24872 121 16.1905 121H153.81C162.751 121 170 113.777 170 104.867V16.1333C170 7.22314 162.751 0 153.81 0Z" fill="white"/>
<path fill-rule="evenodd" clip-rule="evenodd" d="M85.0001 80.6666C96.1715 80.6666 105.238 71.6319 105.238 60.4999C105.238 49.3679 96.1715 40.3333 85.0001 40.3333C73.8286 40.3333 64.762 49.3679 64.762 60.4999C64.762 71.6319 73.8286 80.6666 85.0001 80.6666ZM85.0001 72.5999C91.7029 72.5999 97.1429 67.1791 97.1429 60.4999C97.1429 53.8207 91.7029 48.3999 85.0001 48.3999C78.2972 48.3999 72.8572 53.8207 72.8572 60.4999C72.8572 67.1791 78.2972 72.5999 85.0001 72.5999Z" fill="#00008A"/>
<path d="M85 64.5332C87.2354 64.5332 89.0476 62.7274 89.0476 60.4999C89.0476 58.2723 87.2354 56.4666 85 56.4666C82.7646 56.4666 80.9524 58.2723 80.9524 60.4999C80.9524 62.7274 82.7646 64.5332 85 64.5332Z" fill="#00008A"/>
<path fill-rule="evenodd" clip-rule="evenodd" d="M0 80.6667H170V121H0V80.6667Z" fill="#018900"/>
<path fill-rule="evenodd" clip-rule="evenodd" d="M0 0H170V40.3333H0V0Z" fill="#FF991E"/>
<path d="M153.81 4.03345H16.1905C9.48415 4.03345 4.04761 9.4508 4.04761 16.1334V104.867C4.04761 111.549 9.48415 116.967 16.1905 116.967H153.81C160.516 116.967 165.952 111.549 165.952 104.867V16.1334C165.952 9.4508 160.516 4.03345 153.81 4.03345Z" stroke="black" stroke-opacity="0.1"/>
</g>
</svg>
