<svg width="68" height="65" viewBox="0 0 68 65" fill="none" xmlns="http://www.w3.org/2000/svg">
<g clip-path="url(#clip0)">
<path d="M5.44608 58.5H33.7662V56.3329H5.44608C3.64157 56.3329 2.17839 54.8779 2.17839 53.0829V5.41655C2.17839 3.62127 3.64157 2.16655 5.44608 2.16655H53.3723C55.1779 2.16655 56.64 3.62127 56.64 5.41655V30.3329H58.8189V5.41655C58.8154 2.42653 56.3789 0.00353488 53.3723 -1.11701e-05H5.44608C2.44025 0.00353488 0.00385048 2.42653 0 5.41655V53.0829C0.00385048 56.0732 2.44025 58.496 5.44608 58.5Z" fill="white"/>
<path d="M4.35733 6.49994H6.53542V4.33363H4.35733V6.49994Z" fill="white"/>
<path d="M8.71387 6.49994H10.8928V4.33363H8.71387V6.49994Z" fill="white"/>
<path d="M13.0709 6.49994H15.2495V4.33363H13.0709V6.49994Z" fill="white"/>
<path d="M4.35733 10.8337H54.4616V8.66662H4.35733V10.8337Z" fill="white"/>
<path d="M15.5684 13.3172L12.8019 16.0691C10.4632 14.5291 7.33144 15.0017 5.55666 17.162C3.78194 19.3221 3.94112 22.4686 5.92425 24.4407C7.90708 26.4137 11.071 26.572 13.2432 24.8066C15.415 23.0417 15.8904 19.9264 14.3417 17.601L17.1084 14.8493L15.5684 13.3172ZM9.80288 23.8329C7.99831 23.8329 6.53539 22.3782 6.53539 20.5831C6.53539 18.7881 7.99831 17.3334 9.80288 17.3334C10.2887 17.335 10.7669 17.4458 11.2027 17.658L9.03304 19.8161L10.5729 21.3482L12.7442 19.1915C12.9575 19.6246 13.0692 20.1002 13.0709 20.5831C13.0709 22.3782 11.6082 23.8329 9.80288 23.8329V23.8329Z" fill="white"/>
<path d="M18.517 19.4997H37.0337V17.3334H18.517V19.4997Z" fill="white"/>
<path d="M18.517 23.8328H26.1414V21.6665H18.517V23.8328Z" fill="white"/>
<path d="M28.3202 23.8328H43.5691V21.6665H28.3202V23.8328Z" fill="white"/>
<path d="M39.2123 19.4997H50.1045V17.3334H39.2123V19.4997Z" fill="white"/>
<path d="M15.5684 26.3172L12.8019 29.0688C10.4632 27.5291 7.33144 28.0014 5.55666 30.1618C3.78194 32.3221 3.94112 35.4683 5.92425 37.441C7.90708 39.4134 11.071 39.5717 13.2432 37.8065C15.415 36.0414 15.8904 32.9272 14.3417 30.6009L17.1084 27.849L15.5684 26.3172ZM9.80288 36.8331C7.99831 36.8331 6.53539 35.3779 6.53539 33.5831C6.53539 31.7881 7.99831 30.3329 9.80288 30.3329C10.2887 30.3347 10.7669 30.4458 11.2027 30.658L9.03304 32.8167L10.5729 34.348L12.7442 32.1909C12.9575 32.6247 13.0692 33.1 13.0709 33.5831C13.0709 35.3779 11.6082 36.8331 9.80288 36.8331V36.8331Z" fill="white"/>
<path d="M18.517 32.4998H37.0337V30.3329H18.517V32.4998Z" fill="white"/>
<path d="M18.517 36.8331H26.1414V34.6666H18.517V36.8331Z" fill="white"/>
<path d="M28.3202 36.8331H37.0338V34.6666H28.3202V36.8331Z" fill="white"/>
<path d="M39.2123 32.4998H43.569V30.3329H39.2123V32.4998Z" fill="white"/>
<path d="M15.5684 39.3172L12.8019 42.0688C10.4632 40.5289 7.33144 41.0015 5.55666 43.1618C3.78194 45.3221 3.94112 48.4683 5.92425 50.441C7.90708 52.4136 11.071 52.5715 13.2432 50.8066C15.415 49.0411 15.8904 45.9267 14.3417 43.6004L17.1084 40.8491L15.5684 39.3172ZM9.80288 49.8329C7.99831 49.8329 6.53539 48.3779 6.53539 46.5832C6.53539 44.7879 7.99831 43.3332 9.80288 43.3332C10.2887 43.3348 10.7669 43.4456 11.2027 43.6577L9.03304 45.8165L10.5729 47.348L12.7442 45.1909C12.9575 45.6244 13.0692 46.1003 13.0709 46.5832C13.0709 48.3779 11.6082 49.8329 9.80288 49.8329V49.8329Z" fill="white"/>
<path d="M18.517 45.5002H32.6769V43.3331H18.517V45.5002Z" fill="white"/>
<path d="M18.517 49.8329H26.1414V47.6666H18.517V49.8329Z" fill="white"/>
<path d="M28.3202 49.8329H32.6769V47.6666H28.3202V49.8329Z" fill="white"/>
<path d="M51.1942 65C60.2182 65 67.5325 57.724 67.5325 48.75C67.5325 39.7749 60.2182 32.4997 51.1942 32.4997C42.1704 32.4997 34.8556 39.7749 34.8556 48.75C34.8662 57.72 42.1747 64.9892 51.1942 65ZM51.1942 34.6666C59.0142 34.6666 65.3544 40.9719 65.3544 48.75C65.3544 56.5279 59.0142 62.8329 51.1942 62.8329C43.3736 62.8329 37.0337 56.5279 37.0337 48.75C37.043 40.9756 43.3772 34.6753 51.1942 34.6666Z" fill="white"/>
<path d="M44.55 49.3486L42.6002 50.3169L44.7786 54.6503C44.9348 54.9621 45.233 55.1799 45.579 55.2356C45.6352 55.2443 45.6915 55.2489 45.7481 55.2497C46.0364 55.2497 46.3136 55.1354 46.5184 54.9325L59.5884 41.9325L58.0488 40.4004L46.046 52.3376L44.55 49.3486Z" fill="white"/>
</g>
<defs>
<clipPath id="clip0">
<rect width="67.5325" height="65" fill="white"/>
</clipPath>
</defs>
</svg>
