<svg width="91" height="91" viewBox="0 0 91 91" fill="none" xmlns="http://www.w3.org/2000/svg">
<rect width="91" height="91" rx="5" fill="#2F4858"/>
<path d="M44.7123 61C42.5989 59.2048 40.6401 57.2366 38.8561 55.1162C36.179 51.9319 33 47.1895 33 42.6704C32.9976 37.9507 35.8515 33.6946 40.2299 31.8883C44.6083 30.0821 49.6483 31.0816 52.9979 34.4205C55.2005 36.6044 56.4344 39.5751 56.4246 42.6704C56.4246 47.1895 53.2455 51.9319 50.5684 55.1162C48.7845 57.2366 46.8256 59.2048 44.7123 61ZM44.7123 37.6715C42.919 37.6715 41.2619 38.6243 40.3652 40.171C39.4686 41.7176 39.4686 43.6232 40.3652 45.1699C41.2619 46.7166 42.919 47.6694 44.7123 47.6694C47.4845 47.6694 49.7318 45.4313 49.7318 42.6704C49.7318 39.9096 47.4845 37.6715 44.7123 37.6715Z" fill="white"/>
</svg>
