<svg width="257" height="128" viewBox="0 0 257 128" fill="none" xmlns="http://www.w3.org/2000/svg">
<g clip-path="url(#clip0)">
<path d="M107.606 96.9195L54.0341 128L0 96.9195V69.5508L26.3246 53.7785L71.5833 80.6833L53.8032 91.5848L31.4048 78.3644L23.5532 83.0032L53.8032 100.166L107.606 67.6949V96.9195Z" fill="#3C2415"/>
<path d="M0.00012207 31.0805L53.5723 -2.42136e-05L107.606 31.0805V58.4492L81.2818 74.2214L36.0232 47.3167L53.8033 36.4152L76.2016 49.6356L84.0533 44.9968L53.8033 27.8336L0.00012207 60.3051V31.0805Z" fill="#F7941E"/>
<path d="M123.886 50.8989C122.265 50.0235 120.99 48.8092 120.063 47.256C119.134 45.7028 118.671 43.9475 118.671 41.9893C118.671 40.0319 119.134 38.2757 120.063 36.7225C120.99 35.1693 122.265 33.955 123.886 33.0796C125.507 32.2042 127.33 31.7665 129.355 31.7665C131.06 31.7665 132.602 32.0683 133.98 32.67C135.357 33.2726 136.514 34.1389 137.451 35.268L134.527 37.9794C133.196 36.4361 131.547 35.6641 129.58 35.6641C128.361 35.6641 127.274 35.9314 126.318 36.4687C125.362 37.0052 124.617 37.7537 124.083 38.7134C123.549 39.6739 123.282 40.7659 123.282 41.9893C123.282 43.2135 123.549 44.3055 124.083 45.2651C124.617 46.2257 125.362 46.9733 126.318 47.5098C127.274 48.0471 128.361 48.3145 129.58 48.3145C131.547 48.3145 133.196 47.5342 134.527 45.971L137.451 48.6824C136.514 49.8305 135.352 50.7059 133.965 51.3085C132.578 51.9111 131.031 52.212 129.326 52.212C127.321 52.212 125.507 51.7743 123.886 50.8989Z" fill="#F7941E"/>
<path d="M152.802 47.5101C153.739 46.9736 154.474 46.226 155.008 45.2654C155.543 44.3049 155.809 43.2129 155.809 41.9896C155.809 40.7662 155.543 39.6742 155.008 38.7137C154.474 37.7531 153.739 37.0055 152.802 36.4681C151.864 35.9317 150.815 35.6634 149.653 35.6634C148.49 35.6634 147.441 35.9317 146.504 36.4681C145.566 37.0055 144.831 37.7531 144.297 38.7137C143.763 39.6742 143.496 40.7662 143.496 41.9896C143.496 43.2129 143.763 44.3049 144.297 45.2654C144.831 46.226 145.566 46.9736 146.504 47.5101C147.441 48.0465 148.49 48.3148 149.653 48.3148C150.815 48.3148 151.864 48.0465 152.802 47.5101ZM144.128 50.8847C142.488 50.0003 141.204 48.7805 140.277 47.2273C139.348 45.675 138.885 43.9288 138.885 41.9896C138.885 40.0503 139.348 38.3041 140.277 36.7509C141.204 35.1977 142.488 33.9788 144.128 33.0935C145.768 32.2091 147.61 31.7668 149.653 31.7668C151.695 31.7668 153.532 32.2091 155.163 33.0935C156.794 33.9788 158.077 35.1977 159.015 36.7509C159.952 38.3041 160.42 40.0503 160.42 41.9896C160.42 43.9288 159.952 45.675 159.015 47.2273C158.077 48.7805 156.794 50.0003 155.163 50.8847C153.532 51.7701 151.695 52.2123 149.653 52.2123C147.61 52.2123 145.768 51.7701 144.128 50.8847Z" fill="#F7941E"/>
<path d="M181.9 32.1053V51.8729H178.161L168.349 39.8713V51.8729H163.85V32.1053H167.618L177.402 44.1078V32.1053H181.9Z" fill="#F7941E"/>
<path d="M188.521 51.5768C187.069 51.1536 185.901 50.6026 185.021 49.9248L186.567 46.4795C187.411 47.1011 188.413 47.5995 189.575 47.9765C190.738 48.3526 191.9 48.5411 193.062 48.5411C194.355 48.5411 195.311 48.348 195.929 47.962C196.548 47.576 196.857 47.0631 196.857 46.4233C196.857 45.9521 196.674 45.5615 196.309 45.2516C195.944 44.9408 195.475 44.6907 194.903 44.5022C194.331 44.3146 193.558 44.1071 192.584 43.8814C191.084 43.5244 189.857 43.1665 188.901 42.8085C187.945 42.4506 187.125 41.876 186.441 41.0858C185.756 40.2947 185.415 39.2408 185.415 37.9232C185.415 36.7751 185.724 35.7348 186.343 34.8023C186.961 33.8699 187.893 33.1322 189.14 32.5849C190.386 32.0393 191.909 31.7666 193.709 31.7666C194.964 31.7666 196.192 31.9179 197.392 32.2188C198.59 32.5196 199.641 32.9528 200.54 33.5173L199.135 36.9908C197.317 35.9559 195.498 35.4376 193.68 35.4376C192.405 35.4376 191.463 35.6451 190.854 36.0592C190.245 36.4733 189.941 37.0189 189.941 37.6967C189.941 38.3745 190.292 38.8784 190.995 39.2082C191.698 39.5372 192.771 39.8625 194.215 40.1824C195.713 40.5394 196.941 40.8974 197.898 41.2553C198.854 41.6132 199.673 42.1778 200.358 42.949C201.042 43.7219 201.384 44.7668 201.384 46.0835C201.384 47.2135 201.07 48.2447 200.442 49.1763C199.814 50.1079 198.872 50.8473 197.616 51.3928C196.36 51.9393 194.833 52.212 193.033 52.212C191.478 52.212 189.974 52 188.521 51.5768Z" fill="#F7941E"/>
<path d="M206.683 49.8684C205.118 48.3052 204.335 46.0742 204.335 43.1753V32.1053H208.891V43.0058C208.891 46.5454 210.352 48.3152 213.276 48.3152C214.701 48.3152 215.788 47.8865 216.537 47.0302C217.286 46.1739 217.662 44.8318 217.662 43.0058V32.1053H222.161V43.1753C222.161 46.0742 221.378 48.3052 219.813 49.8684C218.247 51.4316 216.059 52.2118 213.248 52.2118C210.437 52.2118 208.248 51.4316 206.683 49.8684Z" fill="#F7941E"/>
<path d="M226.659 32.1053H231.213V48.1457H241.082V51.8729H226.659V32.1053Z" fill="#F7941E"/>
<path d="M245.973 35.8331H239.676V32.1051H256.825V35.8331H250.528V51.8736H245.973V35.8331Z" fill="#F7941E"/>
<path d="M121.862 78.0939C120.409 77.6708 119.242 77.1198 118.361 76.442L119.908 72.9966C120.751 73.6183 121.754 74.1167 122.916 74.4937C124.079 74.8697 125.241 75.0582 126.403 75.0582C127.695 75.0582 128.652 74.8652 129.27 74.4792C129.889 74.0931 130.198 73.5802 130.198 72.9405C130.198 72.4692 130.015 72.0787 129.649 71.7687C129.284 71.4579 128.816 71.2078 128.244 71.0193C127.672 70.8317 126.899 70.6242 125.924 70.3986C124.425 70.0416 123.197 69.6836 122.242 69.3257C121.285 68.9677 120.465 68.3932 119.781 67.603C119.097 66.8119 118.756 65.758 118.756 64.4404C118.756 63.2923 119.064 62.2519 119.683 61.3195C120.302 60.387 121.234 59.6494 122.481 59.102C123.727 58.5565 125.25 58.2837 127.049 58.2837C128.304 58.2837 129.532 58.4351 130.732 58.7359C131.931 59.0368 132.981 59.4699 133.881 60.0345L132.475 63.5079C130.657 62.4731 128.838 61.9547 127.021 61.9547C125.746 61.9547 124.804 62.1622 124.195 62.5764C123.586 62.9905 123.282 63.536 123.282 64.2138C123.282 64.8917 123.633 65.3955 124.336 65.7254C125.038 66.0543 126.111 66.3796 127.556 66.6995C129.054 67.0566 130.282 67.4145 131.238 67.7725C132.195 68.1304 133.014 68.695 133.698 69.4661C134.382 70.2391 134.724 71.2839 134.724 72.6006C134.724 73.7306 134.41 74.7619 133.782 75.6935C133.154 76.625 132.213 77.3645 130.957 77.91C129.701 78.4564 128.174 78.7292 126.374 78.7292C124.818 78.7292 123.314 78.5171 121.862 78.0939Z" fill="#F7941E"/>
<path d="M149.175 70.6811L146.054 63.1126L142.934 70.6811H149.175ZM150.608 74.1545H141.471L139.728 78.39H135.061L143.833 58.6224H148.331L157.131 78.39H152.351L150.608 74.1545Z" fill="#F7941E"/>
<path d="M161.826 62.3503H155.529V58.6222H172.678V62.3503H166.381V78.3907H161.826V62.3503Z" fill="#F7941E"/>
<path d="M184.571 71.3869V78.3908H180.016V71.3307L172.397 58.6223H177.233L182.491 67.4051L187.748 58.6223H192.218L184.571 71.3869Z" fill="#F7941E"/>
<path d="M204.307 70.6811L201.187 63.1126L198.066 70.6811H204.307ZM205.741 74.1545H196.604L194.861 78.39H190.194L198.965 58.6224H203.464L212.264 78.39H207.484L205.741 74.1545Z" fill="#F7941E"/>
<path d="M118.12 91.522H119.182V96.1364H118.12V91.522Z" fill="#3C2415"/>
<path d="M124.486 91.5222V96.1365H123.613L121.322 93.3346V96.1365H120.273V91.5222H121.152L123.436 94.3242V91.5222H124.486Z" fill="#3C2415"/>
<path d="M126.527 92.3925H125.057V91.5226H129.06V92.3925H127.591V96.1369H126.527V92.3925Z" fill="#3C2415"/>
<path d="M133.188 95.2796V96.1369H129.631V91.5226H133.103V92.3789H130.688V93.3812H132.82V94.2122H130.688V95.2796H133.188Z" fill="#3C2415"/>
<path d="M137.139 93.7571H138.111V95.6293C137.861 95.8178 137.572 95.9637 137.244 96.0643C136.916 96.1649 136.586 96.2156 136.254 96.2156C135.776 96.2156 135.348 96.1141 134.967 95.9093C134.586 95.7045 134.288 95.4209 134.071 95.0593C133.855 94.6969 133.746 94.2864 133.746 93.8296C133.746 93.3729 133.855 92.9624 134.071 92.5999C134.288 92.2375 134.588 91.9538 134.973 91.7499C135.359 91.5451 135.792 91.4427 136.273 91.4427C136.676 91.4427 137.041 91.5107 137.369 91.6475C137.697 91.7835 137.973 91.9819 138.196 92.2411L137.514 92.8736C137.185 92.5265 136.789 92.3525 136.326 92.3525C136.032 92.3525 135.772 92.4142 135.544 92.5374C135.317 92.6607 135.139 92.8337 135.013 93.0585C134.886 93.2823 134.823 93.5397 134.823 93.8296C134.823 94.1151 134.886 94.3697 135.013 94.5945C135.139 94.8183 135.316 94.9932 135.542 95.1182C135.766 95.2433 136.023 95.3058 136.312 95.3058C136.619 95.3058 136.894 95.2406 137.139 95.1083V93.7571Z" fill="#3C2415"/>
<path d="M141.753 92.6C141.586 92.4614 141.344 92.3925 141.024 92.3925H140.158V94.001H141.024C141.344 94.001 141.586 93.9303 141.753 93.7899C141.919 93.6494 142.002 93.451 142.002 93.1963C142.002 92.9371 141.919 92.7387 141.753 92.6ZM142.022 96.1369L141.136 94.851H141.084H140.158V96.1369H139.096V91.5226H141.084C141.491 91.5226 141.844 91.5905 142.144 91.7265C142.444 91.8633 142.674 92.0563 142.836 92.3064C142.997 92.5575 143.079 92.8538 143.079 93.1963C143.079 93.5398 142.997 93.8352 142.832 94.0835C142.669 94.3318 142.435 94.5221 142.134 94.6535L143.164 96.1369H142.022Z" fill="#3C2415"/>
<path d="M146.61 94.3372L145.881 92.5701L145.153 94.3372H146.61ZM146.944 95.1482H144.812L144.405 96.1369H143.315L145.363 91.5226H146.413L148.467 96.1369H147.351L146.944 95.1482Z" fill="#3C2415"/>
<path d="M149.569 92.3925H148.1V91.5226H152.103V92.3925H150.633V96.1369H149.569V92.3925Z" fill="#3C2415"/>
<path d="M156.231 95.2796V96.1369H152.674V91.5226H156.146V92.3789H153.731V93.3812H155.863V94.2122H153.731V95.2796H156.231Z" fill="#3C2415"/>
<path d="M159.112 95.2598C159.572 95.2598 159.939 95.1311 160.212 94.8747C160.485 94.6173 160.622 94.2693 160.622 93.8289C160.622 93.3903 160.485 93.0414 160.212 92.785C159.939 92.5276 159.572 92.399 159.112 92.399H158.141V95.2598H159.112ZM157.078 91.5218H159.165C159.664 91.5218 160.105 91.6178 160.487 91.809C160.871 92.0002 161.168 92.2694 161.38 92.6164C161.592 92.9635 161.698 93.3686 161.698 93.8289C161.698 94.2911 161.592 94.6952 161.38 95.0423C161.168 95.3903 160.871 95.6585 160.487 95.8497C160.105 96.0409 159.664 96.137 159.165 96.137H157.078V91.5218Z" fill="#3C2415"/>
<path d="M164.812 96.0678C164.473 95.969 164.201 95.8403 163.995 95.6817L164.357 94.878C164.553 95.0229 164.787 95.1389 165.059 95.2268C165.329 95.3147 165.601 95.3591 165.872 95.3591C166.175 95.3591 166.397 95.3138 166.542 95.2241C166.686 95.1335 166.758 95.0139 166.758 94.8644C166.758 94.7547 166.716 94.6632 166.63 94.5907C166.544 94.5182 166.435 94.4602 166.302 94.4158C166.168 94.3723 165.988 94.3243 165.76 94.2717C165.41 94.1874 165.124 94.1041 164.901 94.0207C164.678 93.9373 164.487 93.8032 164.327 93.6184C164.167 93.4344 164.087 93.1879 164.087 92.8798C164.087 92.6125 164.159 92.3687 164.303 92.1521C164.448 91.9338 164.665 91.7616 164.957 91.6338C165.247 91.5069 165.603 91.4426 166.023 91.4426C166.316 91.4426 166.603 91.4788 166.883 91.5486C167.162 91.6184 167.408 91.7199 167.618 91.8522L167.29 92.6623C166.866 92.4213 166.441 92.2999 166.017 92.2999C165.719 92.2999 165.499 92.3488 165.357 92.4448C165.215 92.5418 165.143 92.6696 165.143 92.8273C165.143 92.9858 165.225 93.1036 165.39 93.1798C165.554 93.2568 165.805 93.3329 166.141 93.4072C166.491 93.4915 166.778 93.5749 167.001 93.6582C167.224 93.7416 167.416 93.8739 167.576 94.0533C167.735 94.2337 167.815 94.4783 167.815 94.7855C167.815 95.0492 167.742 95.2903 167.595 95.5069C167.448 95.7252 167.228 95.8974 166.936 96.0252C166.642 96.1521 166.285 96.2164 165.865 96.2164C165.502 96.2164 165.151 96.1666 164.812 96.0678Z" fill="#3C2415"/>
<path d="M172.101 95.2796V96.1369H168.543V91.5226H172.015V92.3789H169.6V93.3812H171.732V94.2122H169.6V95.2796H172.101Z" fill="#3C2415"/>
<path d="M175.605 92.6C175.438 92.4614 175.196 92.3925 174.876 92.3925H174.01V94.001H174.876C175.196 94.001 175.438 93.9303 175.605 93.7899C175.771 93.6494 175.854 93.451 175.854 93.1963C175.854 92.9371 175.771 92.7387 175.605 92.6ZM175.874 96.1369L174.988 94.851H174.936H174.01V96.1369H172.948V91.5226H174.936C175.343 91.5226 175.696 91.5905 175.996 91.7265C176.295 91.8633 176.526 92.0563 176.688 92.3064C176.849 92.5575 176.931 92.8538 176.931 93.1963C176.931 93.5398 176.849 93.8352 176.684 94.0835C176.521 94.3318 176.287 94.5221 175.986 94.6535L177.016 96.1369H175.874Z" fill="#3C2415"/>
<path d="M182.109 91.5222L180.121 96.1365H179.071L177.089 91.5222H178.237L179.635 94.818L181.053 91.5222H182.109Z" fill="#3C2415"/>
<path d="M182.588 91.522H183.651V96.1364H182.588V91.522Z" fill="#3C2415"/>
<path d="M185.669 95.9093C185.291 95.7045 184.993 95.4209 184.777 95.0593C184.561 94.6969 184.451 94.2864 184.451 93.8296C184.451 93.3729 184.561 92.9624 184.777 92.5999C184.993 92.2375 185.291 91.9538 185.669 91.7499C186.047 91.5451 186.473 91.4427 186.946 91.4427C187.344 91.4427 187.704 91.5134 188.025 91.6539C188.347 91.7943 188.618 91.9973 188.836 92.261L188.153 92.8935C187.843 92.5329 187.458 92.3525 186.998 92.3525C186.714 92.3525 186.46 92.416 186.237 92.541C186.014 92.6661 185.84 92.841 185.715 93.0648C185.591 93.2886 185.528 93.5442 185.528 93.8296C185.528 94.1151 185.591 94.3697 185.715 94.5945C185.84 94.8183 186.014 94.9932 186.237 95.1182C186.46 95.2433 186.714 95.3058 186.998 95.3058C187.458 95.3058 187.843 95.1237 188.153 94.7585L188.836 95.3919C188.618 95.6601 188.346 95.864 188.022 96.0045C187.698 96.1459 187.338 96.2156 186.94 96.2156C186.471 96.2156 186.047 96.1141 185.669 95.9093Z" fill="#3C2415"/>
<path d="M193.109 95.2796V96.1369H189.552V91.5226H193.023V92.3789H190.608V93.3812H192.741V94.2122H190.608V95.2796H193.109Z" fill="#3C2415"/>
<path d="M194.411 96.0678C194.072 95.969 193.8 95.8403 193.594 95.6817L193.956 94.878C194.153 95.0229 194.386 95.1389 194.658 95.2268C194.928 95.3147 195.2 95.3591 195.471 95.3591C195.774 95.3591 195.997 95.3138 196.141 95.2241C196.285 95.1335 196.357 95.0139 196.357 94.8644C196.357 94.7547 196.315 94.6632 196.229 94.5907C196.144 94.5182 196.034 94.4602 195.901 94.4158C195.767 94.3723 195.587 94.3243 195.36 94.2717C195.01 94.1874 194.724 94.1041 194.5 94.0207C194.277 93.9373 194.086 93.8032 193.926 93.6184C193.766 93.4344 193.686 93.1879 193.686 92.8798C193.686 92.6125 193.758 92.3687 193.903 92.1521C194.047 91.9338 194.264 91.7616 194.556 91.6338C194.846 91.5069 195.202 91.4426 195.622 91.4426C195.915 91.4426 196.202 91.4788 196.482 91.5486C196.762 91.6184 197.007 91.7199 197.217 91.8522L196.889 92.6623C196.465 92.4213 196.04 92.2999 195.616 92.2999C195.318 92.2999 195.098 92.3488 194.956 92.4448C194.814 92.5418 194.743 92.6696 194.743 92.8273C194.743 92.9858 194.825 93.1036 194.989 93.1798C195.153 93.2568 195.404 93.3329 195.74 93.4072C196.09 93.4915 196.377 93.5749 196.6 93.6582C196.823 93.7416 197.015 93.8739 197.175 94.0533C197.334 94.2337 197.414 94.4783 197.414 94.7855C197.414 95.0492 197.341 95.2903 197.194 95.5069C197.048 95.7252 196.827 95.8974 196.535 96.0252C196.241 96.1521 195.885 96.2164 195.464 96.2164C195.102 96.2164 194.751 96.1666 194.411 96.0678Z" fill="#3C2415"/>
<path d="M206.943 91.5222L205.44 96.1365H204.298L203.288 93.012L202.245 96.1365H201.109L199.599 91.5222H200.702L201.739 94.7655L202.822 91.5222H203.806L204.856 94.7917L205.926 91.5222H206.943Z" fill="#3C2415"/>
<path d="M207.633 91.522H208.696V96.1364H207.633V91.522Z" fill="#3C2415"/>
<path d="M210.737 92.3925H209.267V91.5226H213.27V92.3925H211.801V96.1369H210.737V92.3925Z" fill="#3C2415"/>
<path d="M218.055 91.5222V96.1365H216.991V94.2444H214.904V96.1365H213.842V91.5222H214.904V93.3418H216.991V91.5222H218.055Z" fill="#3C2415"/>
<path d="M221.001 91.522H222.064V96.1364H221.001V91.522Z" fill="#3C2415"/>
<path d="M227.368 91.5222V96.1365H226.494L224.204 93.3346V96.1365H223.155V91.5222H224.033L226.318 94.3242V91.5222H227.368Z" fill="#3C2415"/>
<path d="M229.409 92.3925H227.939V91.5226H231.942V92.3925H230.472V96.1369H229.409V92.3925Z" fill="#3C2415"/>
<path d="M236.07 95.2796V96.1369H232.513V91.5226H235.984V92.3789H233.569V93.3812H235.702V94.2122H233.569V95.2796H236.07Z" fill="#3C2415"/>
<path d="M240.021 93.7571H240.993V95.6293C240.743 95.8178 240.454 95.9637 240.126 96.0643C239.797 96.1649 239.467 96.2156 239.135 96.2156C238.658 96.2156 238.229 96.1141 237.849 95.9093C237.468 95.7045 237.169 95.4209 236.953 95.0593C236.736 94.6969 236.628 94.2864 236.628 93.8296C236.628 93.3729 236.736 92.9624 236.953 92.5999C237.169 92.2375 237.47 91.9538 237.855 91.7499C238.24 91.5451 238.673 91.4427 239.155 91.4427C239.557 91.4427 239.923 91.5107 240.25 91.6475C240.579 91.7835 240.855 91.9819 241.078 92.2411L240.396 92.8736C240.067 92.5265 239.671 92.3525 239.207 92.3525C238.914 92.3525 238.653 92.4142 238.426 92.5374C238.199 92.6607 238.021 92.8337 237.895 93.0585C237.768 93.2823 237.704 93.5397 237.704 93.8296C237.704 94.1151 237.768 94.3697 237.895 94.5945C238.021 94.8183 238.198 94.9932 238.423 95.1182C238.648 95.2433 238.905 95.3058 239.194 95.3058C239.501 95.3058 239.776 95.2406 240.021 95.1083V93.7571Z" fill="#3C2415"/>
<path d="M244.635 92.6C244.468 92.4614 244.226 92.3925 243.906 92.3925H243.04V94.001H243.906C244.226 94.001 244.468 93.9303 244.635 93.7899C244.801 93.6494 244.884 93.451 244.884 93.1963C244.884 92.9371 244.801 92.7387 244.635 92.6ZM244.904 96.1369L244.018 94.851H243.966H243.04V96.1369H241.977V91.5226H243.966C244.373 91.5226 244.726 91.5905 245.026 91.7265C245.325 91.8633 245.556 92.0563 245.718 92.3064C245.879 92.5575 245.96 92.8538 245.96 93.1963C245.96 93.5398 245.878 93.8352 245.714 94.0835C245.551 94.3318 245.317 94.5221 245.016 94.6535L246.046 96.1369H244.904Z" fill="#3C2415"/>
<path d="M246.801 91.522H247.864V96.1364H246.801V91.522Z" fill="#3C2415"/>
<path d="M249.905 92.3925H248.435V91.5226H252.438V92.3925H250.969V96.1369H249.905V92.3925Z" fill="#3C2415"/>
<path d="M255.215 94.5018V96.1365H254.151V94.4882L252.373 91.5222H253.501L254.728 93.572L255.956 91.5222H257L255.215 94.5018Z" fill="#3C2415"/>
</g>
<defs>
<clipPath id="clip0">
<rect width="257" height="128" fill="white"/>
</clipPath>
</defs>
</svg>
