<svg width="105" height="121" viewBox="0 0 105 121" fill="none" xmlns="http://www.w3.org/2000/svg">
<g clip-path="url(#clip0)">
<mask id="mask0" mask-type="alpha" maskUnits="userSpaceOnUse" x="0" y="0" width="170" height="121">
<path d="M153.462 0H16.1538C7.23232 0 0 7.22314 0 16.1333V104.867C0 113.777 7.23232 121 16.1538 121H153.462C162.383 121 169.615 113.777 169.615 104.867V16.1333C169.615 7.22314 162.383 0 153.462 0Z" fill="white"/>
</mask>
<g mask="url(#mask0)">
<path fill-rule="evenodd" clip-rule="evenodd" d="M0 0L105 64.5333H48.4615L105 121H0V0Z" fill="#003495"/>
<path fill-rule="evenodd" clip-rule="evenodd" d="M8.0769 16.1333L72.6923 56.4666H24.2308L80.7692 112.933H16.1377C11.6954 112.933 8.0769 109.255 8.0769 104.851V16.1333Z" fill="#DF0A37"/>
<path fill-rule="evenodd" clip-rule="evenodd" d="M39.698 40.3333C40.1423 40.9625 40.3846 41.6401 40.3846 42.3499C40.3846 45.6895 34.9569 48.3999 28.2692 48.3999C21.5815 48.3999 16.1538 45.6895 16.1538 42.3499C16.1538 41.6401 16.3961 40.9625 16.8403 40.3333C18.5042 41.511 22.995 42.3499 28.2692 42.3499C33.5434 42.3499 38.0423 41.511 39.698 40.3333Z" fill="white"/>
<path d="M28.2692 104.867C34.9603 104.867 40.3846 99.4494 40.3846 92.7667C40.3846 86.0841 34.9603 80.6667 28.2692 80.6667C21.5781 80.6667 16.1538 86.0841 16.1538 92.7667C16.1538 99.4494 21.5781 104.867 28.2692 104.867Z" fill="white"/>
<path d="M14.2315 10.5106C8.60191 6.93708 4.03845 9.47808 4.03845 16.1169V104.883C4.03845 111.554 9.43384 116.966 16.1781 116.966H96.9231L40.3846 60.4997H92.8846L14.2315 10.5106Z" stroke="black" stroke-opacity="0.1"/>
</g>
</g>
<defs>
<clipPath id="clip0">
<rect width="105" height="121" fill="white"/>
</clipPath>
</defs>
</svg>
