<svg width="853" height="549" viewBox="0 0 853 549" fill="none" xmlns="http://www.w3.org/2000/svg">
<g opacity="0.25">
<path d="M729.131 479.421H141.387C114.921 479.421 89.9359 467.212 73.676 446.331L26.3109 385.511C-0.647471 350.893 2.8468 301.517 34.4115 271.04C50.7921 255.225 60.2161 233.548 60.6093 210.781C61.5235 157.801 100.265 113.091 152.576 104.64C200.816 96.8467 251.108 88.8774 254.991 88.8774C255.012 88.8774 255.033 88.8774 255.053 88.8787C255.059 88.8787 255.063 88.8787 255.068 88.8787C256.792 88.8774 267.591 81.3827 282.749 70.1987C345.063 24.22 419.927 4.89208e-05 496.032 4.89208e-05C521.623 4.89208e-05 547.369 2.7414 572.807 8.31606L704.024 37.0707C741.015 45.1774 771.587 67.4774 790.873 97.256C777.78 98.968 767.216 108.703 764.26 121.363C763.321 121.255 762.368 121.195 761.401 121.195C751.465 121.195 742.895 127.025 738.916 135.451C733.519 131.147 726.685 128.568 719.247 128.568C708.661 128.568 699.3 133.781 693.569 141.775H760.128C758.647 142.596 757.293 143.664 756.076 144.977L762.965 155.099C763.565 154.735 764.251 154.273 765.02 153.707C765.781 153.14 766.679 152.708 767.697 152.412C768.097 152.296 768.515 152.239 768.949 152.239C769.62 152.239 770.329 152.377 771.079 152.655C771.903 152.96 772.607 153.397 773.192 153.96C773.771 154.523 774.171 155.18 774.395 155.928C774.619 156.673 774.588 157.431 774.307 158.192C773.909 159.263 773.169 160.101 772.089 160.712C771.017 161.328 769.801 161.789 768.456 162.099C767.108 162.411 765.813 162.621 764.568 162.739C763.321 162.856 762.359 162.964 761.68 163.056C759.465 163.337 757.699 163.909 756.381 164.78C755.056 165.652 754.041 166.708 753.319 167.943C752.596 169.177 751.957 170.533 751.411 172.008L763.395 176.455C763.811 175.331 764.699 174.597 766.057 174.256C767.413 173.919 769.011 173.684 770.849 173.551C772.687 173.42 774.537 173.119 776.415 172.652C777.831 172.304 779.108 171.833 780.239 171.237C781.369 170.64 782.361 169.935 783.221 169.119C784.081 168.304 784.821 167.372 785.445 166.325C786.071 165.28 786.607 164.14 787.063 162.913C788.123 160.055 788.52 157.443 788.252 155.075C787.992 152.709 787.26 150.609 786.068 148.771C784.868 146.931 783.388 145.365 781.608 144.064C780.376 143.165 779.101 142.401 777.779 141.775H809.699C812.985 156.149 814.019 171.263 812.465 186.657V186.659C810.569 205.448 814.924 224.339 824.855 240.401H824.856C865.755 306.557 854.765 392.312 798.508 446.019L788.389 455.677C772.424 470.917 751.201 479.421 729.131 479.421ZM752.688 181.261C750.092 181.261 747.651 182.856 746.695 185.432L746.437 186.124C745.209 189.433 746.899 193.112 750.207 194.34C750.94 194.612 751.691 194.74 752.429 194.74C755.025 194.74 757.467 193.147 758.423 190.571L758.68 189.879C759.908 186.569 758.22 182.891 754.911 181.663C754.177 181.391 753.427 181.261 752.688 181.261ZM736.688 178.112C736.456 178.112 736.22 178.129 735.983 178.165C733.437 178.552 731.687 180.928 732.073 183.473L732.153 184.005C732.503 186.315 734.491 187.969 736.756 187.969C736.989 187.969 737.224 187.952 737.461 187.916H737.463C740.007 187.529 741.757 185.152 741.371 182.608L741.291 182.075C740.941 179.767 738.953 178.112 736.688 178.112V178.112ZM736.764 153.889C737.14 153.889 737.505 153.937 737.859 154.032C738.425 154.185 738.915 154.463 739.32 154.861C739.728 155.259 739.976 155.752 740.064 156.339C740.189 157.16 740.013 157.957 739.541 158.729C739.075 159.5 738.461 160.224 737.712 160.897C736.963 161.573 736.211 162.164 735.457 162.68C734.704 163.195 734.128 163.605 733.728 163.903C732.413 164.864 731.489 165.853 730.956 166.875C730.417 167.9 730.144 168.931 730.12 169.975C730.093 171.017 730.165 172.108 730.337 173.243L739.556 171.844C739.424 170.981 739.732 170.199 740.477 169.501C741.224 168.807 742.159 168.093 743.285 167.359C744.412 166.625 745.487 165.78 746.519 164.819C747.301 164.096 747.948 163.344 748.459 162.564C748.969 161.784 749.353 160.983 749.613 160.159C749.875 159.335 750.017 158.479 750.045 157.591C750.075 156.703 750.015 155.787 749.871 154.843C749.537 152.644 748.867 150.837 747.86 149.421C746.86 148.004 745.651 146.923 744.24 146.171C742.824 145.42 741.325 144.944 739.732 144.744C738.987 144.649 738.251 144.603 737.524 144.603C736.7 144.603 735.887 144.664 735.085 144.785C733.184 145.073 731.453 145.651 729.903 146.513C728.351 147.377 727.045 148.467 725.992 149.783C724.935 151.1 724.191 152.623 723.764 154.348L731.736 158.372C731.989 157.927 732.264 157.389 732.555 156.757C732.84 156.127 733.26 155.533 733.807 154.985C734.352 154.439 735.1 154.089 736.048 153.945C736.292 153.908 736.529 153.889 736.764 153.889" fill="#D1F0FC"/>
<path d="M842.84 141.775C839.951 134.755 833.955 129.343 826.549 127.277C825.872 110.436 812.012 96.988 795.004 96.988C780.043 96.988 767.521 107.396 764.26 121.363C763.321 121.255 762.368 121.195 761.401 121.195C751.465 121.195 742.895 127.025 738.916 135.451C733.519 131.147 726.685 128.568 719.247 128.568C708.661 128.568 699.3 133.781 693.569 141.775H842.84" fill="white"/>
<path d="M144.888 222.828C142.948 218.115 138.921 214.48 133.948 213.093C133.493 201.784 124.185 192.753 112.764 192.753C102.717 192.753 94.3092 199.741 92.1185 209.121C91.4879 209.049 90.8479 209.008 90.1985 209.008C83.5265 209.008 77.7713 212.924 75.0995 218.581C71.4749 215.691 66.8864 213.96 61.8911 213.96C54.7828 213.96 48.4959 217.46 44.6484 222.828H144.888" fill="white"/>
<path d="M271.641 74.1786C273.048 70.7613 275.968 68.1267 279.573 67.1213C279.903 58.9213 286.652 52.3733 294.933 52.3733C302.217 52.3733 308.313 57.44 309.901 64.24C310.359 64.188 310.823 64.1587 311.295 64.1587C316.132 64.1587 320.305 66.9973 322.241 71.1C324.869 69.004 328.197 67.7493 331.819 67.7493C336.973 67.7493 341.531 70.288 344.32 74.1786H271.641" fill="white"/>
<path d="M216.032 137.563C212.851 142.54 208.387 146.629 203.123 149.349C200.355 150.808 197.361 151.868 194.219 152.491C192.073 152.928 189.84 153.152 187.571 153.152C183.792 153.152 180.151 152.529 176.757 151.369C174.139 150.496 171.657 149.299 169.375 147.827C164.399 144.659 160.308 140.207 157.577 134.932C156.455 132.787 155.569 130.504 154.933 128.109C154.184 125.328 153.785 122.397 153.785 119.379C153.785 116.361 154.184 113.431 154.933 110.649C155.569 108.255 156.455 105.972 157.589 103.815C160.32 98.552 164.399 94.1 169.375 90.9187C171.657 89.448 174.139 88.2507 176.757 87.3773C180.151 86.2173 183.792 85.5947 187.571 85.5947C189.84 85.5947 192.073 85.8187 194.219 86.2547C197.361 86.8787 200.355 87.9387 203.123 89.3974C208.387 92.116 212.837 96.208 216.032 101.184C217.877 104.064 219.299 107.257 220.197 110.649C220.945 113.431 221.344 116.361 221.344 119.379C221.344 122.397 220.945 125.328 220.197 128.109C219.299 131.501 217.877 134.683 216.032 137.563V137.563ZM267.051 125.944V112.819C267.051 110.125 264.867 107.941 262.173 107.941H249.677C247.929 98.348 244.007 89.5214 238.433 81.9707L247.617 72.7867C249.523 70.8813 249.523 67.7933 247.617 65.888L238.337 56.6067C236.432 54.7013 233.343 54.7013 231.439 56.6067L221.764 66.2813C214.229 61.428 205.584 58.1267 196.284 56.8507V42.0507C196.284 39.3573 194.1 37.1733 191.405 37.1733H178.281C175.587 37.1733 173.403 39.3573 173.403 42.0507V57.848C164.872 59.7933 156.995 63.4867 150.163 68.504L138.249 56.6027C136.344 54.7 133.256 54.7014 131.352 56.604L122.069 65.888C120.164 67.7933 120.164 70.8813 122.069 72.7867L134.473 85.1907C130.092 91.9894 126.988 99.6867 125.468 107.941H107.513C104.82 107.941 102.636 110.125 102.636 112.819V125.944C102.636 128.637 104.82 130.823 107.513 130.823H125.468C126.988 139.075 130.092 146.757 134.473 153.556L122.069 165.96C120.164 167.864 120.164 170.953 122.069 172.857L131.352 182.141C133.256 184.045 136.344 184.047 138.249 182.144L150.163 170.243C156.995 175.276 164.872 178.969 173.403 180.915V196.712C173.403 199.405 175.587 201.589 178.281 201.589H191.405C194.1 201.589 196.284 199.405 196.284 196.712V181.912C205.584 180.636 214.229 177.319 221.764 172.465L231.439 182.14C233.343 184.045 236.432 184.045 238.337 182.14L247.617 172.857C249.523 170.953 249.523 167.864 247.617 165.96L238.433 156.775C244.007 149.224 247.913 140.399 249.677 130.823H262.173C264.867 130.823 267.051 128.637 267.051 125.944" fill="#F14557"/>
<path d="M262.173 107.941H249.677C247.929 98.348 244.007 89.5213 238.433 81.9707L247.617 72.7866C249.523 70.8813 249.523 67.7933 247.617 65.888L238.337 56.6066C236.432 54.7013 233.343 54.7013 231.439 56.6066L221.764 66.2813C214.229 61.428 205.584 58.1266 196.284 56.8506V42.0506C196.284 39.3573 194.1 37.1733 191.405 37.1733H178.281C175.587 37.1733 173.403 39.3573 173.403 42.0506V57.848C164.872 59.7933 156.995 63.4867 150.163 68.504L138.249 56.6027C136.344 54.7 133.256 54.7013 131.352 56.604L122.069 65.888C120.164 67.7933 120.164 70.8813 122.069 72.7866L134.473 85.1907C130.092 91.9893 126.987 99.6866 125.468 107.941H123.8C132.971 120.692 145.197 131.092 159.428 138.045C158.761 137.041 158.135 136.008 157.577 134.932C156.455 132.787 155.569 130.504 154.933 128.109C154.184 125.328 153.785 122.397 153.785 119.379C153.785 116.361 154.184 113.431 154.933 110.649C155.569 108.255 156.455 105.972 157.589 103.815C160.32 98.552 164.399 94.1 169.375 90.9186C171.657 89.448 174.139 88.2506 176.757 87.3773C180.151 86.2173 183.792 85.5947 187.571 85.5947C189.84 85.5947 192.073 85.8187 194.219 86.2547C197.361 86.8787 200.355 87.9387 203.123 89.3973C208.387 92.116 212.837 96.208 216.031 101.184C217.877 104.064 219.299 107.257 220.197 110.649C220.945 113.431 221.344 116.361 221.344 119.379C221.344 122.397 220.945 125.328 220.197 128.109C219.299 131.501 217.877 134.683 216.031 137.563C213.485 141.547 210.105 144.949 206.161 147.548C221.627 146.756 236.104 142.253 248.759 134.949C249.105 133.589 249.421 132.216 249.677 130.823H255.301C259.473 127.939 263.397 124.727 267.051 121.232V112.819C267.051 110.125 264.867 107.941 262.173 107.941" fill="#F25466"/>
<path d="M477.308 504.748H370.049V434.732H477.308V504.748Z" fill="#285FB5"/>
<path d="M477.308 465.807H370.049V434.732H477.308V465.807Z" fill="#244BA5"/>
<path d="M680.413 410.747H166.944V145.075C166.944 130.884 178.447 119.381 192.636 119.381H654.72C668.911 119.381 680.413 130.884 680.413 145.075V410.747" fill="#285FB5"/>
<path d="M662.513 397.109H184.843V149.684H662.513V397.109Z" fill="#69B5E7"/>
<path d="M680.413 397.109H166.944V423.044C166.944 437.235 178.447 448.737 192.636 448.737H654.72C668.911 448.737 680.413 437.235 680.413 423.044V397.109" fill="#48B0E7"/>
<path d="M433.393 425.017C433.393 419.649 429.044 415.3 423.677 415.3C418.312 415.3 413.963 419.649 413.963 425.017C413.963 430.383 418.312 434.732 423.677 434.732C429.044 434.732 433.393 430.383 433.393 425.017Z" fill="#285FB5"/>
<path d="M617.128 517.412H230.228C226.665 517.412 223.776 514.523 223.776 510.96C223.776 500.535 232.225 492.085 242.648 492.085H604.706C615.132 492.085 623.581 500.535 623.581 510.96C623.581 514.523 620.692 517.412 617.128 517.412" fill="#48B0E7"/>
<path d="M638.655 213.352H538.608C536.995 213.352 535.687 212.044 535.687 210.429V189.788C535.687 188.175 536.995 186.865 538.608 186.865H638.655C640.268 186.865 641.577 188.175 641.577 189.788V210.429C641.577 212.044 640.268 213.352 638.655 213.352Z" fill="#98DBF7"/>
<path d="M550.604 204.491L546.551 206.347L547.063 201.917L544.045 198.636L548.416 197.755L550.604 193.872L552.793 197.755L557.163 198.636L554.145 201.917L554.657 206.347L550.604 204.491" fill="#F25879"/>
<path d="M569.617 204.491L565.565 206.347L566.077 201.917L563.06 198.636L567.429 197.755L569.617 193.872L571.807 197.755L576.176 198.636L573.159 201.917L573.671 206.347L569.617 204.491" fill="#F25879"/>
<path d="M588.632 204.491L584.579 206.347L585.089 201.917L582.073 198.636L586.443 197.755L588.632 193.872L590.82 197.755L595.191 198.636L592.173 201.917L592.685 206.347L588.632 204.491" fill="#F25879"/>
<path d="M607.644 204.491L603.591 206.347L604.102 201.917L601.087 198.636L605.456 197.755L607.644 193.872L609.833 197.755L614.202 198.636L611.187 201.917L611.699 206.347L607.644 204.491" fill="#F25879"/>
<path d="M626.659 204.491L622.605 206.347L623.117 201.917L620.1 198.636L624.471 197.755L626.659 193.872L628.847 197.755L633.216 198.636L630.199 201.917L630.711 206.347L626.659 204.491Z" fill="#F6F6F4"/>
<path d="M318.289 208.28H211.624C208.396 208.28 205.78 205.663 205.78 202.435V177.316C205.78 174.088 208.396 171.471 211.624 171.471H318.289C321.517 171.471 324.135 174.088 324.135 177.316V202.435C324.135 205.663 321.517 208.28 318.289 208.28Z" fill="#98DBF7"/>
<path d="M235.795 189.876C235.795 184.176 231.173 179.556 225.475 179.556C219.776 179.556 215.155 184.176 215.155 189.876C215.155 195.575 219.776 200.195 225.475 200.195C231.173 200.195 235.795 195.575 235.795 189.876Z" fill="#F25879"/>
<path d="M218.547 197.508C220.379 199.172 222.804 200.195 225.475 200.195C228.145 200.195 230.571 199.172 232.403 197.508C232.188 194.821 230.465 192.565 228.065 191.603C229.093 190.819 229.767 189.593 229.767 188.201C229.767 185.831 227.845 183.908 225.475 183.908C223.104 183.908 221.183 185.831 221.183 188.201C221.183 189.593 221.856 190.819 222.884 191.603C220.485 192.565 218.761 194.821 218.547 197.508Z" fill="#F6F6F4"/>
<path d="M298.287 186.459H243.283V184.489H298.287V186.459Z" fill="#CDEFFC"/>
<path d="M314.759 190.86H243.283V188.891H314.759V190.86Z" fill="#CDEFFC"/>
<path d="M314.759 195.261H243.283V193.292H314.759V195.261Z" fill="#CDEFFC"/>
<path d="M270.356 239.712H208.701C207.088 239.712 205.78 238.403 205.78 236.789V225.751C205.78 224.136 207.088 222.828 208.701 222.828H270.356C271.971 222.828 273.279 224.136 273.279 225.751V236.789C273.279 238.403 271.971 239.712 270.356 239.712Z" fill="#98DBF7"/>
<path d="M270.356 263.567H208.701C207.088 263.567 205.78 262.257 205.78 260.643V249.604C205.78 247.991 207.088 246.683 208.701 246.683H270.356C271.971 246.683 273.279 247.991 273.279 249.604V260.643C273.279 262.257 271.971 263.567 270.356 263.567Z" fill="#98DBF7"/>
<path d="M270.356 287.42H208.701C207.088 287.42 205.78 286.112 205.78 284.497V273.46C205.78 271.845 207.088 270.537 208.701 270.537H270.356C271.971 270.537 273.279 271.845 273.279 273.46V284.497C273.279 286.112 271.971 287.42 270.356 287.42Z" fill="#CDEFFC"/>
<path d="M348.117 263.567H286.464C284.849 263.567 283.541 262.257 283.541 260.643V249.604C283.541 247.991 284.849 246.683 286.464 246.683H348.117C349.732 246.683 351.04 247.991 351.04 249.604V260.643C351.04 262.257 349.732 263.567 348.117 263.567Z" fill="#F25879"/>
<path d="M348.117 287.42H286.464C284.849 287.42 283.541 286.112 283.541 284.497V273.46C283.541 271.845 284.849 270.537 286.464 270.537H348.117C349.732 270.537 351.04 271.845 351.04 273.46V284.497C351.04 286.112 349.732 287.42 348.117 287.42Z" fill="#98DBF7"/>
<path d="M638.655 272.008H577C575.387 272.008 574.079 270.699 574.079 269.084V258.047C574.079 256.432 575.387 255.124 577 255.124H638.655C640.268 255.124 641.577 256.432 641.577 258.047V269.084C641.577 270.699 640.268 272.008 638.655 272.008Z" fill="#F25879"/>
<path d="M638.655 295.861H577C575.387 295.861 574.079 294.553 574.079 292.94V281.901C574.079 280.288 575.387 278.979 577 278.979H638.655C640.268 278.979 641.577 280.288 641.577 281.901V292.94C641.577 294.553 640.268 295.861 638.655 295.861Z" fill="#98DBF7"/>
<path d="M638.655 319.716H577C575.387 319.716 574.079 318.407 574.079 316.795V305.755C574.079 304.141 575.387 302.833 577 302.833H638.655C640.268 302.833 641.577 304.141 641.577 305.755V316.795C641.577 318.407 640.268 319.716 638.655 319.716" fill="#CDEFFC"/>
<path d="M342.714 166.261C339.668 243.232 303.873 251.024 342.714 306.549C381.554 362.073 515.33 342.401 517.605 300.365C519.878 258.331 491.63 233.003 510.138 180.401C528.645 127.799 342.714 166.261 342.714 166.261" fill="#2C3686"/>
<path d="M352.679 186.748C348.167 221.732 336.165 256.235 342.329 275.195C342.329 275.195 343.004 253.861 346.999 248.72C346.999 248.72 343.011 278.665 355.227 302.956C367.444 327.245 499.305 322.62 499.305 322.62C499.305 322.62 502.004 296.016 499.305 276.739C496.605 257.46 491.467 249.969 489.988 239.643C489.988 239.643 498.117 256.432 501.281 262.857C504.445 269.284 504.872 278.703 504.872 278.703C504.872 278.703 505.731 261.573 499.048 248.463C492.365 235.355 496.373 199.208 498.353 185.152C500.333 171.095 405.343 154.427 395.004 160.061C384.667 165.697 352.679 186.748 352.679 186.748Z" fill="#101428"/>
<path d="M383.309 281.769C337.476 297.295 304.599 303.139 295.101 333.093C285.604 363.048 272.289 397.109 272.289 397.109H582.223C582.223 397.109 566.88 326.517 550.077 314.829C533.273 303.139 467.521 283.553 447.429 280.196C427.337 276.839 383.309 281.769 383.309 281.769" fill="white"/>
<path d="M509.644 349.621C509.644 349.621 510.813 377.723 506.707 397.109H517.213L509.644 349.621Z" fill="#D0EEFB"/>
<path d="M346.564 360.695C346.564 360.695 345.668 382.243 348.817 397.109H340.76L346.564 360.695" fill="#D0EEFB"/>
<path d="M309.713 324.537C313.729 313.949 326.692 301.519 326.705 301.507C310.976 308.74 299.967 317.752 295.101 333.093C285.604 363.048 272.289 397.109 272.289 397.109H297.293C296.197 365.207 305.695 335.131 309.713 324.537" fill="#D0EEFB"/>
<path d="M439.393 340.035C439.393 340.035 417.111 338.573 403.593 328.345C390.079 318.117 391.904 307.888 391.904 307.888C391.904 307.888 382.041 308.62 378.389 307.888C374.736 307.157 379.98 269.096 401.284 268.401C422.589 267.705 467.215 276.543 472.695 276.839C478.175 277.133 496.249 293.335 491.688 313.859C490.957 317.147 482.132 307.888 478.113 312.637C474.095 317.387 470.809 337.477 439.393 340.035" fill="#285FB5"/>
<path d="M432.001 333.908C432.001 333.908 405.237 315.953 393.183 280.701C391.276 275.125 394.497 272.008 400.416 271.059L432.001 333.908" fill="#244BA5"/>
<path d="M440.524 339.315C456.197 329.287 470.625 304.628 475.009 296.409C479.392 288.189 479.568 280.453 466.147 279.024C452.725 277.597 440.524 339.315 440.524 339.315" fill="#244BA5"/>
<path d="M468.145 229.019C464.109 261.607 461.796 279.029 472.695 292.547C472.695 292.547 453.273 331.997 439.393 340.035C439.393 340.035 406.151 316.291 397.019 278.299C397.019 278.299 402.499 269.899 403.228 257.477C403.959 245.057 402.133 223.505 402.133 223.505L468.145 229.019" fill="#F9A8BE"/>
<path d="M459.644 315.881C439.373 340.427 418.483 319.711 410.723 309.185C423.541 328.705 439.393 340.035 439.393 340.035C445.783 336.336 453.341 325.981 459.644 315.881" fill="#F46986"/>
<path d="M403.228 257.477C402.603 268.109 398.507 275.779 397.339 277.771C412.376 275.103 444.637 268.916 464.861 261.708C465.18 252.775 466.523 242.125 468.145 229.019L427.876 225.656L402.172 223.985C402.432 227.201 403.895 246.14 403.228 257.477Z" fill="#F46986"/>
<path d="M520.652 145.985C521.944 125.433 522.283 106.733 506.244 82.7653C490.205 58.796 493.595 122.047 493.857 122.769C494.12 123.493 508.076 150.164 508.076 150.164L520.652 145.985" fill="#F6859C"/>
<path d="M511.597 178.515C509.561 190.335 510.941 200.093 516.608 201.071C522.275 202.045 528.519 193.256 530.556 181.436C532.592 169.617 529.649 159.244 523.983 158.268C518.316 157.292 513.636 166.695 511.597 178.515" fill="#F25466"/>
<path d="M522.676 186.099L519.108 187.549L515.611 197.237C515.611 197.237 515.019 198.439 514.289 199.984C514.965 200.533 515.729 200.919 516.608 201.071C521.629 201.935 527.097 195.125 529.697 185.339C525.191 187.681 522.676 186.099 522.676 186.099" fill="#EE2A3A"/>
<path d="M506.355 142.144C510.751 141.329 523.22 144.635 524.636 151.075C527.854 165.721 522.507 199.695 512.696 208.081C509.12 211.137 499.164 210.516 495.632 209.432C486.664 206.679 486.635 192.341 489.912 173.321C493.189 154.3 500.255 143.275 506.355 142.144" fill="#F25466"/>
<path d="M522.676 186.099C518.113 189.389 515.744 186.099 515.744 186.099C512.65 192.677 506.965 192.671 499.788 193.644L495.763 191.515C495.763 191.515 491.83 194.407 488.144 197.023C488.806 203.569 491.044 208.023 495.632 209.432C499.164 210.516 509.12 211.137 512.696 208.081C516.995 204.407 520.436 195.82 522.676 186.099" fill="#EE2A3A"/>
<path d="M524.636 151.075C523.22 144.635 510.751 141.329 506.355 142.144C505.991 142.212 505.623 142.32 505.253 142.457C513.311 141.86 517.531 147.5 518.455 153.96C519.38 160.42 518.457 189.656 508.971 202.552C507.759 204.197 505.665 209.001 498.617 210.023C503.092 210.612 509.875 210.492 512.696 208.081C522.507 199.695 527.855 165.721 524.636 151.075" fill="#F6859C"/>
<path d="M522.676 186.099C518.113 189.389 515.744 186.099 515.744 186.099L515.741 186.104C514.236 192.419 512.059 198.352 508.971 202.552C507.759 204.197 505.665 209.001 498.617 210.023C503.092 210.611 509.875 210.492 512.696 208.081C516.995 204.407 520.436 195.82 522.676 186.099" fill="#F25466"/>
<path d="M507.021 175.991C505.244 186.309 501.562 194.288 498.8 193.812C496.036 193.336 495.237 184.585 497.016 174.267C498.793 163.948 502.476 155.969 505.238 156.445C508.001 156.921 508.8 165.672 507.021 175.991Z" fill="#EE2A3A"/>
<path d="M368.939 208.8C369.063 209.1 369.191 209.4 369.32 209.7C373.817 220.059 381.919 230.845 389.848 238.924C401.568 250.864 417.472 261.245 434.333 263.507C452.456 265.936 469.083 255.855 481.203 242.924C486.773 236.981 491.128 229.639 492.924 221.647C494.836 213.148 493.8 204.04 495.188 195.356C495.935 190.688 497.811 186.291 499.388 181.833C504.228 168.171 506.651 152.872 504.987 138.173C504.296 132.064 503.299 123.305 499.991 118.007C496.191 111.916 487.396 107.124 481.461 103.409C462.44 91.5067 437.223 87.1494 415.605 93.8787C393.508 100.757 375.491 118.471 366.181 139.417C361.751 149.388 359.175 159.201 361.327 169.948C364.008 183.337 363.603 195.897 368.939 208.8Z" fill="#F9A8BE"/>
<path d="M364.507 158.456C364.507 158.456 398.845 167.891 429.165 158.456C459.484 149.019 469.773 130.024 472.3 120.161C472.3 120.161 497.065 139.579 502.019 168.225C502.019 168.225 503.72 117.361 487.917 111.028C472.112 104.696 439.028 96.4174 435.375 99.704C431.721 102.992 370.352 138.06 370.352 138.06L364.507 158.456Z" fill="#F46986"/>
<path d="M399.456 159.171C401.952 157.948 404.536 156.904 407.199 155.984C409.868 155.099 412.644 154.429 415.496 154.085C418.327 153.735 421.302 153.329 424.144 154.063C428.262 155.185 429.907 156.011 431.909 157.911L431.772 158.287C430.279 158.379 428.9 158.295 427.537 158.235L423.543 158.017C420.933 157.917 418.368 157.283 415.696 157.279C413.043 157.276 410.359 157.517 407.669 157.928C404.969 158.303 402.289 158.931 399.589 159.548L399.456 159.171" fill="#101428"/>
<path d="M488.829 160.027C486.267 158.931 483.615 158.184 480.915 157.811C478.223 157.405 475.509 157.289 472.82 157.405C470.116 157.529 467.516 158.259 464.852 158.419C462.168 158.607 459.484 158.871 456.495 158.773L456.359 158.397C458.624 156.407 461.357 155.231 464.176 154.476C467.015 153.692 470.004 153.975 472.883 154.205C475.776 154.427 478.641 154.967 481.38 155.865C484.104 156.796 486.741 158.003 489.032 159.681L488.829 160.027" fill="#101428"/>
<path d="M418.764 174.541C418.764 171.596 417.596 169.208 416.155 169.208C414.715 169.208 413.547 171.596 413.547 174.541C413.547 177.487 414.715 179.875 416.155 179.875C417.596 179.875 418.764 177.487 418.764 174.541Z" fill="#101428"/>
<path d="M473.557 174.796C473.557 171.851 472.435 169.463 471.051 169.463C469.667 169.463 468.544 171.851 468.544 174.796C468.544 177.743 469.667 180.129 471.051 180.129C472.435 180.129 473.557 177.743 473.557 174.796Z" fill="#101428"/>
<path d="M451.568 200.193C450.804 202.181 449.504 204.011 447.697 205.137C445.889 206.265 443.544 206.613 441.581 205.784C438.41 204.444 437.536 200.743 441.852 201.58C443.534 201.907 445.138 202.107 446.854 201.867C447.736 201.743 451.188 201.181 451.568 200.193" fill="#F46986"/>
<path d="M420.143 214.691C431.004 216.099 457.179 216.733 465.725 216.309C462.227 227.911 453.623 239.279 441.832 238.86C429.733 238.432 422.701 226.785 420.143 214.691Z" fill="#EC1F32"/>
<path d="M456.113 232.84C447.009 225.173 440.439 231.733 440.439 231.733C438.365 230.324 432.624 227.943 427.584 231.351C430.372 234.756 433.868 237.271 438.099 238.319C439.417 238.497 440.788 238.68 442.163 238.852C447.555 238.941 452.261 236.563 456.113 232.84" fill="#F36480"/>
<path d="M422.968 215.005C423.156 216.953 423.533 218.879 424.116 220.733C435.883 225.055 449.037 225.736 461.132 222.643C461.572 220.619 461.901 218.523 462.14 216.413C452.331 216.563 433.509 216.044 422.968 215.005" fill="white"/>
<path d="M490.447 237.264C489.567 237.335 488.701 237.315 487.857 237.2C479.56 236.076 475.115 235.456 475.115 235.456L475.623 231.819C475.624 231.819 480.064 232.437 488.352 233.56C495.991 234.603 505.791 222.461 508.375 208.187C508.552 207.205 509.447 206.521 510.435 206.657C511.456 206.796 512.184 207.752 512.003 208.767C509.317 223.831 499.433 236.545 490.447 237.264" fill="#F6859C"/>
<path d="M511.569 207.275C511.576 207.404 511.571 207.536 511.545 207.671C508.861 222.735 498.977 235.451 489.989 236.168C489.109 236.239 488.245 236.219 487.401 236.104C480.852 235.216 476.713 234.645 475.256 234.443L475.115 235.456C475.115 235.456 479.56 236.076 487.857 237.2C488.701 237.315 489.567 237.333 490.447 237.264C499.433 236.545 509.317 223.831 512.003 208.767C512.103 208.207 511.92 207.671 511.569 207.275" fill="#F25466"/>
<path d="M475.316 237.531L468.037 236.535C465.525 236.191 463.767 233.876 464.111 231.363C464.455 228.851 466.771 227.093 469.283 227.436L476.561 228.433C479.075 228.776 480.832 231.092 480.488 233.604C480.144 236.117 477.828 237.875 475.316 237.531" fill="#2C3686"/>
<path d="M479.424 230.019C479.443 230.317 479.433 230.62 479.392 230.925C479.048 233.439 476.733 235.196 474.22 234.852L467.851 233.98C466.119 233.743 464.764 232.56 464.192 231.031L464.111 231.363C463.767 233.876 465.525 236.191 468.037 236.535L475.316 237.531C477.828 237.876 480.144 236.117 480.488 233.604C480.672 232.259 480.24 230.98 479.424 230.019Z" fill="#27285F"/>
<path d="M465.328 111.183C465.328 111.183 501.859 126.524 502.223 176.571C502.223 176.571 531.447 144.424 514.279 96.2054C497.109 47.9867 447.429 49.8133 447.429 49.8133L465.328 111.183Z" fill="#2C3686"/>
<path d="M465.328 111.183C465.328 111.183 500.957 126.181 502.169 174.796C502.169 174.516 502.173 174.249 502.169 173.961C501.573 124.909 484.568 111.88 467.764 102.947L463.761 105.812L465.328 111.183" fill="#27285F"/>
<path d="M362.437 155.748C362.437 155.748 463.137 161.593 471.173 110.452C479.209 59.3107 453.397 46.8987 440.732 45.672C428.068 44.4467 403.393 41.516 382.285 61.9893C361.177 82.4627 337.613 94.8654 340.236 161.105L362.437 155.748" fill="#2C3686"/>
<path d="M360.348 141.896C364.739 139.452 369.121 136.944 373.36 134.183C377.623 131.46 381.811 128.596 385.908 125.596C394.116 119.612 402.06 113.204 409.56 106.279C402.749 113.892 395.419 121.064 387.74 127.873C383.905 131.285 379.956 134.581 375.897 137.756C371.865 140.969 367.645 143.955 363.375 146.896L360.348 141.896Z" fill="#101428"/>
<path d="M417.592 66.34C393.731 79.2467 367.492 110.289 366.984 136.003C366.984 136.003 356.895 126.637 362.2 113.211C367.505 99.7827 383.128 84.908 391.783 78.5173C400.437 72.1253 417.592 66.34 417.592 66.34" fill="#101428"/>
<path d="M368.435 144.752C365.237 136.468 367.429 108.196 368.435 100.16C369.439 92.124 372.407 86.0053 372.727 84.4973C373.047 82.9907 372.353 82.5374 372.353 82.5374C388.967 56.968 412.544 53.3107 436.449 45.832L435.075 45.1533C421.564 44.0827 400.587 44.2373 382.285 61.9893C361.177 82.4627 337.613 94.8654 340.236 161.105L362.437 155.748C362.437 155.748 396.875 157.741 427.08 149.173C393.493 155.771 371.631 153.035 368.435 144.752" fill="#101428"/>
<path d="M458.704 110.289C448.835 125.696 436.621 140.073 389.996 146.769C358.935 151.231 354.025 144.857 354.025 144.857C354.025 144.857 408.237 141.247 430.14 130.132C452.043 119.019 458.704 110.289 458.704 110.289" fill="#101428"/>
<path d="M369.377 83.752C375.412 66.0973 405.664 46.16 440.732 45.672C440.732 45.672 422.711 41.2893 401.768 49.0826C380.824 56.876 365.749 69.5853 357.457 83.9307C349.165 98.2747 369.377 83.752 369.377 83.752Z" fill="#F6859C"/>
<path d="M399.933 53.8587C380.756 61.5307 370.101 77.7853 370.101 77.7853C369.135 77.9067 360.387 79.536 360.251 79.5614C359.255 80.9987 358.311 82.4534 357.457 83.9307C357.159 84.4454 356.908 84.9147 356.681 85.3573C359.423 85.168 363.447 84.988 364.507 85.4573C364.944 85.6507 365.816 85.592 367.177 85.256C368.493 84.3867 369.377 83.752 369.377 83.752C375.412 66.0973 405.664 46.16 440.732 45.672C428.928 45.5227 419.112 46.188 399.933 53.8587" fill="#F25466"/>
<path d="M364.691 145.988C363.039 113.187 367.673 90.8147 371.813 84.7267C375.953 78.6387 358.965 81.2867 355.555 86.0667C353.345 89.1627 345.872 115.253 348.615 146.216C351.357 177.179 364.691 145.988 364.691 145.988Z" fill="#F6859C"/>
<path d="M368.765 81.1907C370.224 81.744 370.649 82.4747 369.614 84.0573C368.58 85.64 364.317 99.5213 363.223 111.759C362.125 123.996 362.673 136.841 362.431 138.303C362.187 139.764 351.477 142.461 348.248 140.992C348.34 142.716 348.458 144.457 348.614 146.216C348.817 148.503 349.079 150.441 349.387 152.087C352.64 152.453 357.156 152.615 361.28 152.677C363.278 149.289 364.691 145.988 364.691 145.988C363.039 113.187 367.673 90.8147 371.813 84.7267C373.486 82.2653 371.705 81.232 368.765 81.1907" fill="#F25466"/>
<path d="M361.861 144.396C357.572 143.133 344.829 145.137 342.759 151.397C338.049 165.635 339.869 199.979 348.765 209.331C352.007 212.739 361.975 213.144 365.6 212.429C374.804 210.615 376.309 196.356 375.007 177.1C373.705 157.844 367.813 146.148 361.861 144.396" fill="#F25466"/>
<path d="M348.765 209.331C352.007 212.739 361.975 213.144 365.6 212.429C370.889 211.385 373.627 206.219 374.759 198.369C370.333 202.167 359.017 200.951 353.299 198.364C353.299 198.364 354.236 181.267 351.207 171.625C351.207 171.625 345.789 183.573 342.495 194.673C343.909 201.075 345.993 206.416 348.765 209.331" fill="#EE2A3A"/>
<path d="M360.307 178.093C361.469 195.293 357.408 209.575 351.235 209.992C345.063 210.409 339.116 196.804 337.953 179.604C336.791 162.405 340.852 148.123 347.025 147.705C353.199 147.288 359.144 160.893 360.307 178.093" fill="#F6859C"/>
<path d="M352.435 185.331C352.435 185.331 344.548 186.315 341.504 198.249C344.052 205.599 347.6 210.239 351.235 209.992C354.375 209.78 356.964 205.968 358.601 200.021C356.607 199.6 354.767 199.028 353.299 198.364C353.299 198.364 353.991 195.584 352.435 185.331Z" fill="#F25466"/>
<path d="M352.265 180.101C353.136 192.985 350.807 203.267 345.069 203.655C339.333 204.043 333.977 193.913 333.107 181.031C332.235 168.149 336.18 157.391 341.917 157.004C347.653 156.616 351.393 167.22 352.265 180.101" fill="#F25466"/>
<path d="M343.633 199.196C341.015 199.373 338.465 197.821 336.205 195.036C338.48 200.477 341.705 203.881 345.069 203.655C350.004 203.321 352.411 195.661 352.435 185.331C351.209 193.461 348.301 198.881 343.633 199.196" fill="#EE2A3A"/>
<path d="M621.936 247.556C620.745 251.94 624.52 255.837 625.737 256.568C626.955 257.297 635.235 260.707 640.349 260.829C645.462 260.951 653.012 250.113 650.333 248.896C647.654 247.679 628.903 246.339 626.832 246.339C624.763 246.339 621.936 247.556 621.936 247.556" fill="#F9A8BE"/>
<path d="M635.539 245.243C636.817 258.393 641.384 268.623 643.028 268.804C644.671 268.987 660.989 263.508 665.525 261.499C670.059 259.489 666.569 228.625 663.799 229.169C661.028 229.712 654.608 235.641 649.456 238.485C644.305 241.328 635.539 245.243 635.539 245.243Z" fill="white"/>
<path d="M661.363 250.711C659.636 253.341 646.5 260.013 639.356 262.445C640.796 266.328 642.244 268.717 643.028 268.804C644.435 268.961 656.599 264.965 662.915 262.553C662.755 257.667 661.363 250.711 661.363 250.711" fill="#D0EEFB"/>
<path d="M621.963 246.948C621.457 252.165 626.101 252.913 631.825 251.575C637.548 250.236 647.655 237.572 652.16 231.849C656.665 226.127 665.036 215.928 666.68 215.015C668.324 214.101 671.977 213.617 675.448 208.471C678.919 203.325 675.631 192.549 674.26 191.271C672.891 189.992 660.044 194.261 658.431 196.419C656.817 198.576 658.461 210.175 657.913 211.636C657.365 213.097 645.828 225.031 640.957 227.952C636.088 230.875 622.328 243.173 621.963 246.948" fill="#F9A8BE"/>
<path d="M667.213 199.88C668.741 199.151 669.339 195.832 668.368 196.416C667.399 197.001 665.776 196.989 663.585 196.959C661.391 196.928 660.505 196.739 660.505 196.739C660.505 196.739 660.176 198.176 660.101 199.353C660.101 199.353 665.685 200.611 667.213 199.88Z" fill="#F46986"/>
<path d="M676.92 200.635C676.147 198.973 675.548 197.712 675.548 197.712L666.32 206.013C664.112 203.968 661.363 202.103 661.363 202.103L660.505 203.456C661.728 205.817 662.581 210.809 662.52 212.027C662.52 212.027 663.737 213.488 664.468 213.609C664.468 213.609 654.179 228.221 647.725 235.405C641.311 242.547 636.821 248.724 633.897 250.711C639.741 247.476 648.157 236.933 652.16 231.849C656.665 226.127 665.036 215.928 666.68 215.015C668.324 214.101 671.977 213.617 675.448 208.471C676.824 206.431 677.129 203.504 676.92 200.635" fill="#F46986"/>
<path d="M658.911 201.468C658.952 202.32 666.981 209.748 667.816 210.6C667.879 210.664 668.541 210.763 668.737 210.6C671.163 208.599 682.428 190.527 682.653 189.876C682.865 189.267 676.709 183.051 674.813 181.388C674.556 181.161 673.415 181.297 673.208 181.573C670.953 184.588 658.855 200.368 658.911 201.468Z" fill="#101428"/>
<path d="M659.831 201.468C659.873 202.32 667.903 209.748 668.737 210.6C669.572 211.453 683.332 190.58 683.576 189.876C683.785 189.267 676.875 183.152 674.979 181.489C674.721 181.263 674.335 181.297 674.129 181.573C671.873 184.588 659.776 200.368 659.831 201.468" fill="#2C3686"/>
<path d="M661.363 200.247C661.403 201.044 668.913 207.993 669.695 208.791C670.476 209.588 683.348 190.061 683.576 189.401C683.772 188.832 677.308 183.112 675.533 181.556C675.292 181.344 674.931 181.377 674.739 181.635C672.629 184.455 661.311 199.217 661.363 200.247Z" fill="#48B0E7"/>
<path d="M667.244 190.061C668.629 189.261 670.455 186.552 670.668 185.639C670.881 184.727 670.851 183.904 670.151 183.721C669.451 183.539 667.045 186.4 665.889 187.252C664.732 188.105 663.27 189.871 663.728 191.057C664.184 192.245 666.649 191.788 666.923 191.605C667.199 191.423 667.244 190.061 667.244 190.061Z" fill="#F9A8BE"/>
<path d="M670.543 183.961C670.889 185 667.844 189.167 665.353 190.365L666.172 191.388C666.172 191.388 666.585 191.297 667.115 191.175C667.219 190.712 667.244 190.061 667.244 190.061C668.629 189.261 670.455 186.552 670.668 185.639C670.829 184.947 670.848 184.311 670.543 183.961" fill="#F46986"/>
<path d="M663.852 194.271C666.224 193.052 668.004 193.188 669.283 192.685C670.561 192.184 670.927 190.267 670.105 189.947C669.283 189.627 664.079 190.449 662.707 191.043C661.337 191.636 660.505 194.371 660.505 194.371L663.852 194.271Z" fill="#F9A8BE"/>
<path d="M664.955 192.849C663.645 193.092 663.22 192.849 663.22 192.849C663.22 193.353 662.725 193.604 662.137 194.323L663.852 194.271C666.224 193.052 668.004 193.188 669.283 192.685C669.865 192.457 670.248 191.933 670.425 191.401C669.796 192.453 666.257 192.607 664.955 192.849" fill="#F46986"/>
<path d="M658.431 196.419C659.527 198.104 665.553 197.375 666.772 197.192C667.989 197.009 668.801 196.248 668.733 195.481C668.597 193.935 660.684 194.208 660.013 194.452C659.344 194.696 658.431 196.419 658.431 196.419" fill="#F9A8BE"/>
<path d="M668.663 195.853C667.788 196.665 665.792 197.128 663.639 197.3C661.773 197.449 660.712 197.379 660.468 197.356C662.693 197.715 665.917 197.32 666.772 197.192C667.789 197.039 668.488 196.48 668.663 195.853Z" fill="#F46986"/>
<path d="M687.867 543.597C688.233 546.795 689.512 547.98 694.169 548.62C698.825 549.259 705.676 549.168 709.237 545.697C712.799 542.228 714.991 538.209 715.264 536.473C715.537 534.739 715.447 532.821 715.995 531.907C716.543 530.995 719.44 530.425 719.084 525.332C718.727 520.24 687.867 543.597 687.867 543.597" fill="#FBC8D4"/>
<path d="M718.028 513.239C717.503 506.165 700.744 508.895 700.652 511.725C700.561 514.556 696.635 526.428 692.777 530.033L692.781 530.041C687.732 532.337 685.829 538.087 687.867 543.597C689.596 548.273 702.571 547.141 705.676 545.424C708.948 543.613 712.185 538.873 713.156 536.307L713.157 536.305C713.863 534.792 714.168 532.547 715.721 530.628C717.273 528.711 718.095 529.076 718.825 526.795C719.556 524.511 718.552 520.309 718.028 513.239Z" fill="#F25466"/>
<path d="M703.704 512.937C702.093 520.232 698.616 524.98 699.635 525.829C700.651 526.677 706.927 527.693 708.115 525.829C709.303 523.963 711.337 516.075 711.337 512.937C711.337 509.799 703.704 512.937 703.704 512.937Z" fill="#FBC8D4"/>
<path d="M666.627 518.917C667.045 515.742 667.086 511.085 664.397 505.789C661.708 500.492 661.84 500.036 658.736 499.488C655.63 498.94 644.307 497.388 644.307 497.388C644.307 497.388 642.388 502.684 635.721 506.337C629.055 509.991 627.685 511.268 623.393 511.268C619.1 511.268 609.615 511.773 613.348 523.14C613.348 523.14 616.361 524.449 623.91 524.389C631.46 524.328 639.132 523.719 641.871 522.684C644.611 521.649 647.472 521.101 649.116 521.771C650.759 522.44 656.117 522.196 659.161 521.771C662.205 521.345 666.627 518.917 666.627 518.917" fill="#F25466"/>
<path d="M630.813 508.513C630.343 508.67 630.168 509.22 630.437 509.636C631.336 511.031 633.204 512.561 634.199 512.212C635.417 511.787 641.063 507.516 644.063 504.907C645.463 503.688 646.803 501.375 646.011 500.28C645.219 499.184 643.149 497.905 642.297 498.573C641.444 499.244 639.801 502.459 636.33 505.325C633.977 507.271 631.904 508.148 630.813 508.513" fill="#FBC8D4"/>
<path d="M613.348 523.14C620.836 523.871 638.087 522.409 641.607 521.497C645.128 520.583 647.045 519.031 650.424 520.309C653.804 521.588 664.215 519.578 665.859 518.94C667.503 518.3 667.045 520.873 665.859 521.139C664.671 521.407 657.183 522.988 653.347 523.339C649.512 523.688 649.329 520.857 644.763 522.959C640.197 525.059 632.708 525.059 629.421 525.059C626.133 525.059 616.727 525.789 614.991 525.059C613.256 524.328 613.348 523.14 613.348 523.14Z" fill="#FBC8D4"/>
<path d="M699.283 513.37C704.405 514.765 719.009 514.283 719.74 512.273C720.471 510.264 717.731 478.666 717.731 468.621C717.731 458.575 714.26 433.736 714.808 430.996C715.356 428.255 715.356 426.245 714.443 421.497C713.529 416.748 713.169 361.711 708.78 324.633L651.795 329.992C651.795 329.992 642.663 365.06 641.931 389.9C641.2 414.74 642.053 426.673 641.931 430.325C641.811 433.979 643.484 437.631 643.865 440.553C644.245 443.476 643.757 465.149 643.271 472.942C642.784 480.736 642.428 495.104 641.633 496.808C640.836 498.515 658.857 501.923 661.292 500.705C663.728 499.488 663.728 499.244 663.728 486.58C663.728 473.917 665.432 443.476 665.432 438.119C665.432 432.76 667.137 431.787 666.407 429.108C665.676 426.429 668.355 414.252 671.033 405.241C673.712 396.232 676.877 386.491 676.877 386.491C676.877 386.491 684.427 435.196 686.864 438.119C689.299 441.04 688.811 448.589 690.272 452.973C691.733 457.358 696.117 487.068 696.117 496.077C696.117 505.088 693.924 511.907 699.283 513.37" fill="#244BA5"/>
<path d="M711.419 514.083C713.884 513.961 716.139 513.703 717.687 513.317C718.295 510.719 718.943 507.448 719.616 503.648C719.055 493.017 717.731 475.608 717.731 468.621C717.731 458.575 714.26 433.736 714.808 430.996C715.356 428.255 715.356 426.245 714.443 421.497C713.529 416.748 713.169 361.711 708.78 324.633L697.313 325.712L663.757 338.332C679.932 338.784 698.745 336.251 698.745 336.251C698.745 336.251 701.367 365.937 701.457 370.32C701.545 374.704 704.711 415.633 704.711 419.4C704.711 423.167 706.172 424.253 706.416 428.337C706.659 432.42 703.493 433.881 703.493 433.881C703.493 433.881 707.876 435.344 707.876 436.073C707.876 436.804 708.791 448.555 708.791 453.121C708.791 457.687 710.78 463.897 711.337 477.596C711.896 491.295 713.721 507.549 713.721 509.376C713.721 511.159 713.715 513.015 711.419 514.083" fill="#263873"/>
<path d="M674.453 358.875L662.215 355.769L671.712 360.336L664.041 360.519L669.92 362.619C669.92 362.619 671.752 377.879 667.937 388.099C663.757 399.3 661.851 427.915 660.572 430.108C659.293 432.299 656.005 431.751 656.005 431.751C656.005 431.751 659.476 432.117 659.657 434.673C659.841 437.231 658.927 444.353 658.927 451.904C658.927 459.453 658.197 471.427 657.467 476.52C656.736 481.615 656.395 494.076 656.005 497.388C655.616 500.697 650.64 499.925 650.64 499.925H650.639C653.161 500.403 655.764 500.77 657.797 500.905C665.32 501.613 663.757 498.828 663.747 484.024C663.932 470.232 665.432 443.143 665.432 438.119C665.432 432.76 667.137 431.787 666.407 429.108C665.676 426.429 668.355 414.252 671.033 405.241C673.712 396.232 676.877 386.491 676.877 386.491C676.877 386.491 675.548 374.035 675.365 371.112C675.184 368.189 674.453 358.875 674.453 358.875" fill="#263873"/>
<path d="M684.671 220.037C671.521 226.491 669.459 226.241 663.799 229.169C658.139 232.096 657.517 262.9 657.517 267.648C657.517 272.397 657.457 291.271 656.361 296.384C655.264 301.499 651.064 320.493 649.603 323.416C648.143 326.339 645.403 331.269 648.872 334.192C652.343 337.115 659.988 339.124 676.987 338.027C693.985 336.932 712.981 326.52 713.895 325.06C714.808 323.599 707.867 296.749 707.867 291.635C707.867 286.52 707.137 282.685 706.771 280.311C706.407 277.937 712.599 266.795 713.977 259.672C715.356 252.549 724.525 232.899 723.319 229.299C722.113 225.7 708.925 221.689 700.081 217.112C691.235 212.535 684.671 220.037 684.671 220.037" fill="white"/>
<path d="M681.667 225.177C681.673 225.961 681.653 226.74 681.848 227.488C681.987 228.235 682.236 228.964 682.651 229.575C683.42 230.859 684.847 231.516 686.32 231.523C687.799 231.556 689.303 231.169 690.743 230.639C692.195 230.116 693.583 229.413 695 228.739C694.367 229.2 693.708 229.628 693.055 230.069C692.357 230.429 691.683 230.845 690.955 231.16C689.52 231.827 687.939 232.272 686.293 232.253L685.676 232.224L685.064 232.084C684.649 232.021 684.271 231.819 683.891 231.639C683.177 231.205 682.521 230.615 682.168 229.859C681.359 228.399 681.348 226.695 681.667 225.177" fill="#D0EEFB"/>
<path d="M713.895 325.06C714.808 323.599 707.867 296.749 707.867 291.635C707.867 286.521 707.137 282.685 706.771 280.311C706.407 277.937 712.599 266.795 713.977 259.672C714.217 258.435 714.696 256.813 715.311 254.968L709.903 250.711C705.867 260.063 702.581 276.501 699.109 280.519C695.64 284.537 687.603 286.181 687.603 286.181C687.603 286.181 695.291 288.008 698.753 287.277C698.753 287.277 701.343 301.707 700.865 308.829C700.388 315.953 698.943 326.729 698.753 328.189C698.681 328.736 698.663 330.637 698.669 332.805C707.099 329.563 713.379 325.885 713.895 325.06" fill="#D0EEFB"/>
<path d="M699.585 204.136C699.161 211.757 699.283 216.993 700.865 218.455C700.865 218.455 697.041 231.101 685.524 230.023C681.627 229.657 682.479 223.081 684.671 220.037L684.184 210.689L699.585 204.136" fill="#F9A8BE"/>
<path d="M700.081 217.112C699.257 214.775 699.247 210.219 699.585 204.136L684.184 210.689L684.496 216.684C687.055 217.872 700.081 217.112 700.081 217.112Z" fill="#F46986"/>
<path d="M736.197 265.779C738.51 269.309 741.31 278.076 739.728 282.095C738.144 286.113 723.533 304.013 716.959 310.709C710.383 317.407 708.921 318.503 707.703 320.693C706.485 322.887 700.643 331.927 699.18 333.296C697.719 334.667 695.255 334.849 695.255 334.849C695.255 334.849 693.273 336.857 689.789 336.493C689.789 336.493 686.579 338.593 684.112 339.141C684.112 339.141 683.199 340.692 682.376 340.831C681.555 340.968 680.643 339.324 682.376 336.036C684.112 332.748 686.669 331.379 687.217 329.279C687.764 327.179 689.977 322.893 689.977 322.893C689.977 322.893 685.391 327.269 682.743 327.544C680.093 327.817 679.853 326.265 681.389 324.987C682.924 323.708 684.933 321.791 686.852 319.324C688.769 316.859 691.052 315.215 694.431 314.757C697.811 314.301 700.185 313.936 701.097 313.296C702.012 312.657 706.837 306.448 710.315 299.751C713.792 293.053 717.092 284.496 725.239 276.98L722.315 271.136L736.197 265.779Z" fill="#F9A8BE"/>
<path d="M684.255 338.723C685.037 336.871 686.343 335.292 687.755 333.885L688.311 333.375C688.477 333.216 688.761 333.015 688.828 332.92C689.114 332.587 689.373 332.147 689.653 331.749C690.196 330.929 690.725 330.092 691.316 329.287C690.993 330.235 690.588 331.14 690.14 332.032C689.92 332.487 689.684 332.908 689.365 333.357C689.121 333.652 688.973 333.713 688.789 333.905L688.263 334.409C687.557 335.083 686.882 335.792 686.202 336.499C685.528 337.211 684.891 337.952 684.255 338.723" fill="#F46986"/>
<path d="M689.977 335.861C690.552 334.877 691.211 334.025 691.811 333.128C692.431 332.244 692.99 331.357 693.569 330.381C693.54 331.531 693.039 332.615 692.412 333.543C691.759 334.467 690.956 335.28 689.977 335.861" fill="#F46986"/>
<path d="M692.621 336.251C694.312 335.772 695.255 334.849 695.255 334.849C695.255 334.849 697.719 334.667 699.18 333.296C699.777 332.737 701.108 330.891 702.555 328.76C702.525 328.795 700.873 330.457 699.673 331.829C697.983 333.761 695.807 333.123 695.807 333.123L696.233 331.341C696.233 331.341 694.46 335.383 692.621 336.251Z" fill="#F46986"/>
<path d="M740.109 277.629C739.916 279.296 739.8 280.621 737.009 284.995C733.868 289.915 715.64 310.656 711.712 314.492C707.787 318.327 707.876 318.572 705.277 324.631C706.376 322.917 707.299 321.424 707.703 320.693C708.921 318.503 710.383 317.407 716.959 310.709C723.533 304.013 738.144 286.113 739.728 282.095C740.188 280.927 740.269 279.353 740.109 277.629Z" fill="#F46986"/>
<path d="M727.353 272.837L728.545 275.101C728.545 275.101 726.672 275.597 725.239 276.98L722.916 272.483L727.353 272.837" fill="#F46986"/>
<path d="M712.229 260.456C709.237 253.591 708.651 242.443 712.229 236.575C715.809 230.708 721.912 228.595 723.319 229.299C724.728 230.003 728.013 239.156 731.417 243.381C734.819 247.605 744.089 259.459 744.325 260.456C744.56 261.453 736.343 269.505 721.559 275.417C719.799 276.123 712.229 260.456 712.229 260.456" fill="white"/>
<path d="M722.488 265.779L724.437 270.473C724.437 270.473 713.98 259.165 709.912 250.728C710.223 254.247 711.028 257.697 712.229 260.456C712.229 260.456 719.799 276.123 721.559 275.417C724.088 274.407 726.411 273.331 728.545 272.24L722.488 265.779Z" fill="#D0EEFB"/>
<path d="M707.432 194.211C710.12 187.648 713.408 180.708 709.267 177.055C709.267 177.055 713.895 175.593 716.329 176.08C716.329 176.08 713.895 174.62 709.024 174.132C709.024 174.132 709.981 163.052 707.432 158.303C707.432 158.303 707.441 163.173 706.101 165.123C706.101 165.123 703.423 159.399 695.508 157.207C687.593 155.016 679.921 154.772 674.443 160.373C668.964 165.975 662.547 173.156 671.783 183.995C681.019 194.832 693.195 197.633 698.431 198.364C703.667 199.095 707.432 194.211 707.432 194.211" fill="#2C3686"/>
<path d="M679.201 173.397C681.016 174.253 682.927 174.701 684.831 175.172C686.744 175.604 688.669 175.991 690.608 176.291C692.544 176.608 694.492 176.852 696.443 177.036C698.396 177.177 700.352 177.351 702.335 177.041C700.501 177.905 698.412 178.133 696.407 178.176C694.381 178.221 692.368 178.033 690.376 177.732C688.389 177.395 686.421 176.935 684.513 176.263C682.619 175.599 680.717 174.737 679.201 173.397" fill="#101428"/>
<path d="M700.561 182.869C702.672 182.347 706.169 178.967 706.169 178.967C706.169 178.967 702.545 181.529 695.091 180.919C687.639 180.308 682.661 178.76 682.661 178.76C682.661 178.76 690.343 183.267 693.173 183.995C696.005 184.721 700.561 182.869 700.561 182.869Z" fill="#101428"/>
<path d="M674.625 177.937C671.165 176.228 670.16 177.963 670.16 179.424C670.16 180.885 671.783 183.995 671.783 183.995L674.625 177.937" fill="#101428"/>
<path d="M711.121 183.307C708.36 188.772 702.204 193.007 702.204 193.007C702.204 193.007 699.801 196.247 702.5 197.561C702.612 197.616 702.739 197.664 702.863 197.712C705.661 196.505 707.432 194.211 707.432 194.211C708.964 190.472 710.685 186.613 711.121 183.307" fill="#101428"/>
<path d="M702.204 193.007C702.204 193.007 705.036 190.905 706.955 193.007C708.871 195.107 705.219 204.879 700.927 202.504C700.927 202.504 693.804 211.545 688.872 214.101C683.94 216.659 680.652 215.38 679.009 213.553C677.365 211.728 671.851 204.236 671.337 196.293C671.155 193.463 671.977 187.892 671.977 186.705C671.977 185.517 671.247 180.86 672.252 179.489C673.255 178.12 674.625 177.937 674.625 177.937C674.625 177.937 680.744 180.951 686.04 181.408C686.04 181.408 683.484 179.764 682.661 178.76C682.661 178.76 693.164 182.412 700.561 182.869C700.561 182.869 700.471 187.071 700.835 188.896C701.2 190.723 702.204 193.007 702.204 193.007" fill="#F9A8BE"/>
<path d="M706.027 195.677C705.769 193.887 704.268 193.535 703.041 194.781C701.784 196.06 701.295 200.109 701.549 200.707C701.807 201.304 703.809 201.261 704.279 200.024C704.748 198.789 703.64 198.013 702.488 198.38C702.488 198.38 702.305 196.576 703.309 195.413C704.311 194.252 705.237 194.696 705.451 194.995C705.664 195.293 706.027 195.677 706.027 195.677" fill="#F46986"/>
<path d="M694.243 187.757C693.84 187.355 693.408 186.981 692.953 186.627C692.495 186.277 692.001 185.963 691.472 185.708C690.945 185.452 690.396 185.176 689.796 185.129C689.203 185.076 688.599 185.125 688.035 185.36L688.037 185.441C688.32 185.559 688.593 185.633 688.863 185.712L689.649 185.935C690.163 186.089 690.701 186.136 691.22 186.313C691.735 186.489 692.24 186.713 692.733 186.972C693.232 187.223 693.709 187.523 694.192 187.821L694.243 187.757" fill="#101428"/>
<path d="M674.193 185.707C674.7 185.448 675.232 185.259 675.779 185.145C676.323 185.025 676.875 184.965 677.425 184.952C677.979 184.94 678.521 185.053 679.066 185.049C679.617 185.051 680.169 185.068 680.779 185.007L680.801 184.928C680.311 184.552 679.737 184.351 679.151 184.235C678.56 184.113 677.953 184.212 677.368 184.299C676.781 184.384 676.203 184.533 675.656 184.755C675.113 184.983 674.591 185.265 674.145 185.639L674.193 185.707" fill="#101428"/>
<path d="M688.587 190.968C688.663 190.195 689.095 189.605 689.551 189.651C690.007 189.696 690.314 190.359 690.238 191.131C690.161 191.904 689.731 192.493 689.273 192.448C688.817 192.404 688.509 191.74 688.587 190.968Z" fill="#101428"/>
<path d="M676.459 189.992C676.533 189.22 676.898 188.624 677.272 188.66C677.644 188.697 677.885 189.353 677.809 190.127C677.733 190.899 677.368 191.495 676.994 191.459C676.622 191.421 676.381 190.765 676.459 189.992Z" fill="#101428"/>
<path d="M684.22 198.477C683.108 199.212 681.551 199.196 680.455 198.437C680.543 199.033 680.767 199.613 681.329 199.825C681.893 200.036 682.537 199.975 683.088 199.731C683.639 199.487 683.849 198.951 684.22 198.477" fill="#F46986"/>
<path d="M688.123 203.009C685.572 203.051 679.481 202.58 677.505 202.296C678.104 204.877 679.984 207.427 682.867 207.428C685.464 207.429 687.335 205.296 688.123 203.009Z" fill="#EC1F32"/>
<path d="M685.525 206.585C684.535 206.272 683.492 206.433 683.069 206.561C683.069 206.561 681.791 205.619 679.787 206.239C680.625 206.957 681.651 207.428 682.867 207.428C683.869 207.429 684.76 207.107 685.525 206.585Z" fill="#F36480"/>
<path d="M679.077 204.455C681.596 205.259 684.428 205.027 686.921 204.152C686.965 203.771 687.023 203.387 687.08 203.003C684.565 202.949 680.512 202.644 678.348 202.401C678.483 203.115 678.716 203.812 679.077 204.455Z" fill="white"/>
<path d="M752.429 194.74C751.691 194.74 750.94 194.612 750.207 194.34C746.899 193.112 745.209 189.433 746.437 186.124L746.695 185.432C747.651 182.856 750.092 181.261 752.688 181.261C753.427 181.261 754.177 181.391 754.911 181.663C758.22 182.891 759.908 186.569 758.68 189.879L758.423 190.571C757.467 193.147 755.025 194.74 752.429 194.74ZM763.395 176.455L751.411 172.008C751.957 170.533 752.596 169.177 753.319 167.943C754.041 166.708 755.056 165.652 756.381 164.78C757.699 163.909 759.465 163.337 761.68 163.056C762.359 162.964 763.321 162.856 764.568 162.739C765.813 162.621 767.108 162.411 768.456 162.099C769.801 161.789 771.017 161.328 772.089 160.712C773.169 160.101 773.909 159.263 774.307 158.192C774.588 157.431 774.619 156.673 774.395 155.928C774.171 155.18 773.771 154.523 773.192 153.96C772.607 153.397 771.903 152.96 771.079 152.655C770.329 152.377 769.62 152.239 768.949 152.239C768.515 152.239 768.097 152.296 767.697 152.412C766.679 152.708 765.781 153.14 765.02 153.707C764.251 154.273 763.565 154.735 762.965 155.099L756.076 144.977C757.293 143.664 758.647 142.596 760.128 141.775H777.779C779.101 142.401 780.376 143.165 781.608 144.064C783.388 145.365 784.868 146.931 786.068 148.771C787.26 150.609 787.992 152.709 788.252 155.075C788.52 157.443 788.123 160.055 787.063 162.913C786.607 164.14 786.071 165.28 785.445 166.325C784.821 167.372 784.081 168.304 783.221 169.119C782.361 169.935 781.369 170.64 780.239 171.237C779.108 171.833 777.831 172.304 776.415 172.652C774.537 173.119 772.687 173.42 770.849 173.551C769.011 173.684 767.413 173.919 766.057 174.256C764.699 174.597 763.811 175.331 763.395 176.455" fill="#94BACD"/>
<path d="M777.779 141.775H760.128C760.663 141.479 761.213 141.215 761.781 140.983C763.919 140.103 766.207 139.664 768.643 139.659C768.657 139.659 768.673 139.659 768.689 139.659C771.109 139.659 773.551 140.116 776.007 141.027C776.607 141.249 777.197 141.499 777.779 141.775" fill="#B0C4CD"/>
<path d="M736.756 187.969C734.491 187.969 732.503 186.315 732.153 184.005L732.073 183.473C731.687 180.928 733.437 178.552 735.983 178.165C736.22 178.129 736.456 178.112 736.688 178.112C738.953 178.112 740.941 179.767 741.291 182.075L741.371 182.608C741.757 185.152 740.007 187.529 737.463 187.916H737.461C737.224 187.952 736.989 187.969 736.756 187.969V187.969ZM730.337 173.243C730.165 172.108 730.093 171.017 730.12 169.975C730.144 168.931 730.417 167.9 730.956 166.875C731.489 165.853 732.413 164.864 733.728 163.903C734.128 163.605 734.704 163.195 735.457 162.68C736.211 162.164 736.963 161.573 737.712 160.897C738.461 160.224 739.075 159.5 739.541 158.729C740.013 157.957 740.189 157.16 740.064 156.339C739.976 155.752 739.728 155.259 739.32 154.861C738.915 154.463 738.425 154.185 737.859 154.032C737.505 153.937 737.14 153.889 736.764 153.889C736.529 153.889 736.292 153.908 736.048 153.945C735.1 154.089 734.352 154.439 733.807 154.985C733.26 155.533 732.84 156.127 732.555 156.757C732.264 157.389 731.989 157.927 731.736 158.372L723.764 154.348C724.191 152.623 724.935 151.1 725.992 149.783C727.045 148.467 728.351 147.377 729.903 146.513C731.453 145.651 733.184 145.073 735.085 144.785C735.887 144.664 736.7 144.603 737.524 144.603C738.251 144.603 738.987 144.649 739.732 144.744C741.325 144.944 742.824 145.42 744.24 146.171C745.651 146.923 746.86 148.004 747.86 149.421C748.867 150.837 749.537 152.644 749.871 154.843C750.015 155.787 750.075 156.703 750.045 157.591C750.017 158.479 749.875 159.335 749.613 160.159C749.353 160.983 748.969 161.784 748.459 162.564C747.948 163.344 747.301 164.096 746.519 164.819C745.487 165.78 744.412 166.625 743.285 167.359C742.159 168.093 741.224 168.807 740.477 169.501C739.732 170.199 739.424 170.981 739.556 171.844L730.337 173.243" fill="#94BACD"/>
<path d="M739.771 179.457L740.029 178.765C741.255 175.456 744.933 173.768 748.244 174.996C751.553 176.224 753.241 179.903 752.013 183.212L751.756 183.904C750.529 187.213 746.851 188.901 743.54 187.673C740.232 186.445 738.543 182.767 739.771 179.457V179.457ZM744.744 165.341C745.291 163.867 745.929 162.511 746.652 161.276C747.375 160.041 748.389 158.985 749.715 158.113C751.032 157.243 752.799 156.671 755.013 156.389C755.692 156.297 756.655 156.189 757.901 156.073C759.147 155.955 760.441 155.744 761.789 155.432C763.135 155.123 764.351 154.661 765.423 154.045C766.503 153.433 767.243 152.596 767.64 151.525C767.921 150.765 767.952 150.007 767.728 149.261C767.504 148.513 767.104 147.856 766.525 147.295C765.94 146.731 765.236 146.293 764.412 145.988C763.179 145.531 762.048 145.451 761.03 145.745C760.012 146.041 759.115 146.473 758.353 147.04C757.585 147.607 756.899 148.068 756.299 148.432L749.409 138.311C751.067 136.524 752.972 135.191 755.115 134.316C757.252 133.436 759.54 132.997 761.976 132.992C764.411 132.987 766.868 133.443 769.34 134.36C771.304 135.089 773.168 136.103 774.941 137.397C776.721 138.699 778.201 140.264 779.401 142.104C780.593 143.943 781.325 146.043 781.587 148.408C781.853 150.776 781.456 153.388 780.396 156.247C779.94 157.473 779.404 158.613 778.779 159.659C778.155 160.705 777.416 161.637 776.555 162.452C775.695 163.267 774.703 163.973 773.572 164.571C772.441 165.167 771.164 165.637 769.748 165.985C767.871 166.452 766.02 166.753 764.183 166.884C762.344 167.017 760.747 167.252 759.391 167.589C758.032 167.931 757.144 168.664 756.728 169.788L744.744 165.341" fill="#F25466"/>
<path d="M725.487 177.339L725.407 176.807C725.02 174.261 726.771 171.885 729.316 171.499C731.863 171.113 734.239 172.863 734.624 175.408L734.704 175.941C735.091 178.487 733.34 180.863 730.796 181.249H730.794C728.25 181.635 725.872 179.884 725.487 177.339V177.339ZM723.671 166.576C723.499 165.441 723.427 164.351 723.453 163.308C723.477 162.264 723.752 161.233 724.289 160.208C724.823 159.187 725.746 158.197 727.061 157.236C727.461 156.937 728.037 156.528 728.791 156.013C729.544 155.497 730.296 154.907 731.045 154.231C731.795 153.557 732.408 152.833 732.875 152.063C733.347 151.291 733.523 150.493 733.397 149.672C733.309 149.085 733.061 148.592 732.653 148.195C732.248 147.796 731.759 147.519 731.192 147.365C730.619 147.212 730.016 147.183 729.381 147.279C728.433 147.423 727.685 147.771 727.14 148.319C726.593 148.867 726.173 149.461 725.888 150.091C725.597 150.723 725.323 151.26 725.069 151.705L717.097 147.681C717.524 145.956 718.268 144.433 719.325 143.116C720.379 141.8 721.684 140.712 723.236 139.848C724.787 138.984 726.517 138.407 728.419 138.119C729.927 137.889 731.476 137.877 733.065 138.076C734.659 138.277 736.157 138.753 737.573 139.504C738.984 140.256 740.193 141.337 741.194 142.755C742.2 144.171 742.871 145.977 743.204 148.176C743.348 149.12 743.408 150.036 743.379 150.924C743.351 151.812 743.208 152.668 742.947 153.492C742.687 154.316 742.303 155.117 741.792 155.897C741.281 156.677 740.635 157.429 739.852 158.152C738.82 159.113 737.745 159.959 736.619 160.692C735.492 161.427 734.557 162.14 733.811 162.835C733.065 163.532 732.757 164.315 732.889 165.177L723.671 166.576" fill="#F25466"/>
<path d="M766.669 470.59C773.145 470.601 778.615 463.931 778.465 456.017C778.367 450.861 777.609 445.76 776.196 440.972C772.955 430.001 766.28 419.396 768.689 407.807C769.681 403.035 772.194 398.621 772.264 393.745C772.337 388.72 769.804 384.396 767.283 380.567C763.085 374.188 758.612 368.087 753.889 362.291C752.737 373.187 747.503 382.892 743.863 393.069C740.221 403.245 738.337 415.749 743.513 424.377C747.208 430.537 754.201 434.247 755.013 441.943C755.343 445.076 754.514 448.269 754.338 451.449C753.838 460.512 759.412 469.165 766.669 470.59Z" fill="#F25466"/>
<path d="M771.904 485.216L769.104 472.19C768.419 467.816 767.683 463.451 766.865 459.1C765.249 450.4 763.38 441.74 761.043 433.223C760.447 431.097 759.836 428.975 759.153 426.883C758.827 425.831 758.456 424.796 758.1 423.756C757.716 422.74 757.332 421.715 757.001 420.555C756.413 418.303 756.144 416.033 756.059 413.789C755.933 411.537 755.967 409.303 756.004 407.072C756.123 402.615 756.411 398.184 756.576 393.769C757.003 389.365 757.424 384.96 756.845 380.547C758.131 384.84 758.169 389.399 758.328 393.833C758.16 398.283 757.873 402.705 757.757 407.116C757.72 409.316 757.688 411.52 757.811 413.699C757.889 415.883 758.159 418.045 758.689 420.08C758.963 421.056 759.349 422.108 759.752 423.167C760.113 424.224 760.491 425.279 760.821 426.344C761.515 428.467 762.132 430.609 762.732 432.753C765.089 441.345 766.967 450.043 768.588 458.78C769.416 463.145 770.135 467.531 770.849 471.915C771.257 476.348 771.665 480.773 771.904 485.216" fill="#F6859C"/>
<path d="M750.032 394.397C751.307 395.285 752.452 396.193 753.645 397.087C754.233 397.541 754.768 398.076 755.356 398.555C755.929 399.048 756.58 399.451 757.259 399.753L757.047 399.78C757.768 399.109 758.416 398.351 759.121 397.661C759.839 396.988 760.56 396.319 761.303 395.673C762.811 394.411 764.424 393.279 766.193 392.329L766.268 392.419C765.017 393.988 763.613 395.373 762.101 396.629C761.333 397.244 760.545 397.835 759.755 398.42C758.951 398.992 758.088 399.492 757.299 400.08L757.188 400.164L757.087 400.107C756.416 399.721 755.755 399.356 755.048 399.04C754.355 398.707 753.644 398.377 753.02 397.919C751.787 396.997 750.673 395.86 749.943 394.473L750.032 394.397" fill="#F6859C"/>
<path d="M745.487 412.601C746.572 412.953 747.599 413.387 748.609 413.852C749.617 414.323 750.62 414.797 751.548 415.428C752.488 416.035 753.431 416.651 754.463 417.076C755.48 417.528 756.572 417.828 757.619 418.189L757.092 418.309C758.165 416.925 759.251 415.552 760.455 414.284C761.679 413.032 762.915 411.792 764.328 410.708L764.416 410.785C763.52 412.325 762.444 413.707 761.356 415.076C760.249 416.432 759.023 417.681 757.784 418.919L757.527 419.177L757.257 419.037C756.256 418.517 755.313 417.897 754.308 417.409C753.315 416.895 752.245 416.545 751.185 416.165C750.112 415.809 749.129 415.264 748.164 414.692C747.2 414.119 746.28 413.461 745.428 412.703L745.487 412.601" fill="#F6859C"/>
<path d="M758.137 437.013C759.089 437.093 759.895 437.381 760.685 437.703C761.071 437.887 761.421 438.167 761.812 438.368C762.192 438.576 762.647 438.677 763.037 438.643L762.867 438.725C763.135 438.255 763.34 437.74 763.627 437.287C763.923 436.841 764.199 436.38 764.528 435.96C765.193 435.127 765.983 434.392 766.952 433.796L767.043 433.869C766.692 434.949 766.161 435.891 765.508 436.732C765.176 437.149 764.793 437.525 764.428 437.919C764.055 438.303 763.601 438.625 763.207 438.993L763.107 439.087L763.037 439.075C762.548 438.992 762.143 438.883 761.675 438.856C761.219 438.819 760.739 438.809 760.307 438.668C759.459 438.348 758.676 437.869 758.081 437.116L758.137 437.013" fill="#F6859C"/>
<path d="M760.193 457.649C760.853 457.599 761.471 457.604 762.087 457.639C762.7 457.676 763.312 457.693 763.917 457.856C764.523 458.005 765.136 458.213 765.759 458.235C766.38 458.275 767.012 458.159 767.615 458.027L767.405 458.103C767.793 457.671 768.224 457.295 768.659 456.925C769.089 456.549 769.523 456.177 769.997 455.86C770.943 455.22 771.94 454.649 773.065 454.248L773.136 454.342C772.437 455.312 771.613 456.112 770.736 456.842C770.3 457.211 769.821 457.523 769.34 457.832C768.865 458.147 768.384 458.458 767.861 458.709L767.693 458.791L767.651 458.785C767.003 458.7 766.381 458.583 765.751 458.593C765.121 458.583 764.484 458.725 763.841 458.773C763.197 458.836 762.564 458.703 761.941 458.551C761.32 458.389 760.711 458.136 760.161 457.763L760.193 457.649" fill="#F6859C"/>
<path d="M772.66 474.816C777.136 479.425 784.189 473.797 788.839 468.464C794.687 461.759 800.973 454.008 801.653 444.529C801.911 440.967 801.325 437.427 801.857 433.883C803.076 425.751 809.591 420.099 812.68 412.577C817.156 401.672 813.687 389.224 809.373 379.148C806.544 372.536 803.273 365.66 803.805 357.887C804.289 350.787 807.871 344.347 811.32 338.332C803.256 338.815 794.172 339.88 788.504 347.573C783.129 354.872 782.853 365.476 783.367 374.851C783.881 384.225 784.717 394.299 780.772 402.816C775.415 414.383 762.088 421.215 761.72 434.08C761.535 440.569 764.98 445.823 767.339 451.353C768.871 454.948 769.824 459.549 769.196 463.58C768.532 467.825 769.579 472.016 772.24 474.433L772.66 474.816" fill="#F6859C"/>
<path d="M771.904 493.696C772.401 490.594 772.975 487.513 773.499 484.43C773.979 481.336 774.497 478.254 774.872 475.16C776.081 469.059 777.003 462.907 777.301 456.739C777.468 453.648 777.407 450.573 777.421 447.396C777.428 444.217 777.796 440.929 778.601 437.811C779.405 434.687 780.509 431.716 781.737 428.761C783.033 425.848 784.48 422.987 786.161 420.293C789.41 414.865 793.556 410.001 794.857 404.216C795.521 401.345 795.509 398.335 795.108 395.343C794.624 392.385 793.854 389.319 793.2 386.241C791.889 380.1 790.699 373.863 790.532 367.44C790.677 364.229 791.144 361.003 792.136 357.947C793.104 354.884 794.666 352.045 796.661 349.621C795.068 352.328 793.965 355.265 793.392 358.272C792.821 361.284 792.769 364.353 793.017 367.397C793.173 373.505 794.327 379.633 795.629 385.72C796.273 388.765 797.039 391.772 797.568 394.995C798 398.197 798.027 401.541 797.276 404.776C796.545 408.019 795.024 410.992 793.352 413.689C791.672 416.401 789.889 418.952 788.281 421.588C786.647 424.207 785.265 426.947 784.019 429.747C782.844 432.569 781.764 435.48 781.009 438.421C780.253 441.371 779.917 444.344 779.907 447.424C779.891 450.505 779.953 453.692 779.783 456.854C779.483 463.197 778.515 469.456 777.329 475.633C775.756 481.742 773.935 487.756 771.904 493.696" fill="#F25466"/>
<path d="M798.915 365.395C798.711 366.415 798.318 367.308 797.866 368.161C797.421 369.017 796.903 369.825 796.156 370.48C795.416 371.137 794.717 371.824 794.252 372.667C793.761 373.493 793.459 374.447 793.037 375.32L792.651 376.124L791.813 375.412C791.255 374.94 790.721 374.444 790.192 373.943C789.653 373.451 789.167 372.911 788.715 372.339C787.823 371.184 786.993 369.971 786.404 368.537L786.543 368.408C787.924 369.112 789.067 370.036 790.147 371.017C790.681 371.513 791.18 372.041 791.629 372.616C792.085 373.184 792.537 373.755 792.965 374.351L791.74 374.444C792.393 373.727 793.165 373.089 793.751 372.327C794.359 371.58 794.733 370.676 795.068 369.743C795.397 368.808 795.953 368.025 796.581 367.292C797.203 366.555 797.885 365.857 798.756 365.289L798.915 365.395" fill="#F25466"/>
<path d="M806.507 392.407C806.376 393.844 805.891 395.233 805.215 396.495C804.523 397.744 803.699 398.939 802.593 399.853C801.492 400.773 800.359 401.605 799.381 402.601C798.365 403.565 797.489 404.663 796.395 405.629L795.823 406.135L795.307 405.367L793.497 402.684C792.885 401.795 792.295 400.9 791.736 399.984L790.033 397.261C789.449 396.365 788.891 395.449 788.187 394.593L788.297 394.44C789.36 394.881 790.279 395.599 791.101 396.367C791.923 397.144 792.677 397.981 793.341 398.876C794.025 399.759 794.621 400.697 795.147 401.673C795.677 402.649 796.192 403.621 796.629 404.657L795.541 404.395C796.699 403.749 797.951 403.067 798.979 402.163C800.044 401.287 800.845 400.131 801.564 398.963C802.281 397.793 803.101 396.748 803.912 395.673C804.719 394.593 805.456 393.485 806.328 392.341L806.507 392.407Z" fill="#F25466"/>
<path d="M799.144 424.916C798.179 426.253 796.881 427.312 795.515 428.204C794.128 429.069 792.656 429.797 791.079 430.208C789.5 430.617 787.899 430.864 786.38 431.365C784.844 431.825 783.367 432.44 781.796 432.935L781.473 433.036L781.128 432.693C780.137 431.709 779.335 430.628 778.528 429.521C777.745 428.405 776.996 427.249 776.441 425.985C775.86 424.739 775.403 423.423 775.111 422.063C774.841 420.699 774.755 419.279 775.005 417.923L775.195 417.921C775.511 419.24 775.965 420.451 776.471 421.636C776.969 422.827 777.601 423.956 778.2 425.097L780.125 428.481C780.777 429.608 781.516 430.708 782.204 431.796L781.537 431.556C783.088 431.428 784.699 431.244 786.216 430.809C787.752 430.407 789.171 429.64 790.556 428.885C791.932 428.109 793.367 427.527 794.779 426.868C796.187 426.201 797.56 425.505 799.02 424.775L799.144 424.916" fill="#F25466"/>
<path d="M788.295 453.935C787.757 454.68 787.032 455.26 786.239 455.684C785.441 456.096 784.588 456.435 783.697 456.52C782.801 456.609 781.895 456.439 781.031 456.389C780.156 456.325 779.323 456.393 778.415 456.452L778.308 456.459L778.112 456.276C777.427 455.633 776.711 455.016 776.123 454.303C775.52 453.601 774.899 452.912 774.364 452.161C773.827 451.409 773.363 450.607 772.928 449.781C772.495 448.955 772.115 448.087 771.827 447.153L771.98 447.041C772.785 447.595 773.5 448.215 774.16 448.875C774.82 449.535 775.448 450.219 776.005 450.955C776.564 451.688 777.035 452.487 777.527 453.271C778.032 454.045 778.409 454.912 778.817 455.757L778.516 455.581C779.299 455.796 780.168 455.863 780.989 455.703C781.819 455.552 782.6 455.161 783.369 454.915C784.147 454.684 784.925 454.525 785.713 454.335C786.517 454.171 787.283 453.924 788.191 453.776L788.295 453.935" fill="#F25466"/>
<path d="M797.592 517.412H757.507C755.161 517.412 753.168 515.699 752.813 513.38L746.4 471.27C745.963 468.396 748.187 465.807 751.092 465.807H804.007C806.915 465.807 809.139 468.396 808.7 471.27L802.285 513.38C801.932 515.699 799.939 517.412 797.592 517.412" fill="#9BDFF5"/>
<path d="M804.007 465.807H795.823C798.729 465.807 800.953 468.396 800.516 471.27L794.101 513.38C793.749 515.699 791.755 517.412 789.409 517.412H797.592C799.939 517.412 801.932 515.699 802.285 513.38L808.7 471.27C809.139 468.396 806.915 465.807 804.007 465.807Z" fill="#87D8F7"/>
<path d="M201.144 398.008C201.356 399.724 200.996 401.453 200.163 402.968C197.125 408.495 195.585 414.843 195.784 421.148C195.915 425.301 196.768 429.552 195.637 433.552C193.687 440.452 186.403 444.719 184.06 451.496C181.983 457.504 183.915 465.059 179.596 469.724C178.527 470.88 176.864 471.765 175.401 471.18C174.667 470.885 174.116 470.272 173.593 469.678C168.643 464.056 163.343 457.223 164.871 449.888C166.305 442.999 173.405 438.343 174.751 431.435C175.851 425.791 172.965 419.28 176.199 414.524C177.092 413.212 178.368 412.209 179.343 410.957C183.189 406.019 181.765 398.148 186.196 393.728C187.641 392.287 189.449 391.468 191.42 391.048C196.065 390.055 200.56 393.292 201.144 398.007V398.008" fill="#F25466"/>
<path d="M172.988 485.551C172.692 481.876 172.564 478.199 172.428 474.513C172.595 470.839 172.791 467.163 173.105 463.489C173.421 459.816 173.833 456.144 174.483 452.493C175.143 448.865 176.015 445.159 177.541 441.748C180.207 435.008 182.363 427.959 184.54 420.973L187.699 410.443C188.996 407.003 190.261 403.556 191.485 400.084C190.949 403.737 190.113 407.323 189.381 410.935L186.216 421.488C184.025 428.509 181.891 435.515 179.159 442.423C177.681 445.727 176.865 449.221 176.209 452.799C175.573 456.373 175.165 460.001 174.853 463.637C174.547 467.277 174.333 470.929 174.193 474.585L172.988 485.551" fill="#F6859C"/>
<path d="M192.392 411.06C191.785 411.977 191.005 412.665 190.167 413.273C189.735 413.561 189.229 413.749 188.761 413.987C188.285 414.215 187.868 414.521 187.483 414.871L187.315 415.021L187.167 414.795C186.816 414.257 186.389 413.76 186.053 413.217C185.731 412.668 185.389 412.128 185.101 411.56C184.541 410.419 184.124 409.207 183.912 407.893L184.017 407.841C184.936 408.804 185.649 409.869 186.22 411.005C186.497 411.577 186.721 412.176 186.964 412.765C187.193 413.36 187.332 414.003 187.547 414.605L187.231 414.528C187.677 414.263 188.095 413.957 188.452 413.569C188.816 413.191 189.144 412.765 189.547 412.44C190.375 411.819 191.26 411.277 192.321 410.965L192.392 411.06Z" fill="#F6859C"/>
<path d="M191.499 423.624C190.867 424.144 190.216 424.707 189.533 425.177C188.853 425.659 188.161 426.124 187.413 426.497C186.657 426.859 185.855 427.147 185.128 427.56C184.396 427.963 183.729 428.472 183.077 429.003L182.848 429.188L182.616 428.885C181.609 427.565 180.747 426.163 179.933 424.732C179.168 423.275 178.485 421.771 177.996 420.157L178.097 420.1C179.227 421.352 180.163 422.713 181.016 424.12C181.821 425.555 182.579 427.017 183.189 428.561L182.728 428.444C183.491 428.088 184.241 427.715 184.929 427.24C185.621 426.772 186.24 426.183 186.907 425.673C187.583 425.175 188.317 424.772 189.068 424.397C189.829 424.032 190.584 423.679 191.473 423.511L191.499 423.624" fill="#F6859C"/>
<path d="M187.033 440.207C186.343 440.905 185.569 441.419 184.773 441.883C183.988 442.367 183.125 442.688 182.205 442.905C181.289 443.128 180.459 443.531 179.72 444.096C178.983 444.656 178.26 445.273 177.523 445.757L176.965 446.123L176.551 445.501C175.94 444.585 175.385 443.64 174.955 442.627C174.523 441.613 174.139 440.573 173.925 439.44L174.053 439.369C174.895 440.157 175.568 441.037 176.193 441.945C176.819 442.852 177.32 443.827 177.765 444.833L176.795 444.576C177.637 444.113 178.532 443.847 179.42 443.535C180.305 443.231 181.115 442.792 181.843 442.184C182.568 441.569 183.361 441.083 184.235 440.764C185.099 440.428 185.993 440.156 186.972 440.075L187.033 440.207" fill="#F6859C"/>
<path d="M167.143 486.27C164.271 485.796 153.501 482.351 154.255 479.54C157.483 467.471 160.711 453.779 149.532 447.875C144.152 445.035 137.4 443.591 134.337 438.335C131.181 432.92 133.504 426.04 136.336 420.451C139.167 414.86 142.576 408.877 141.363 402.729C140.092 396.293 134.004 391.543 133.031 385.053C131.701 376.193 140.305 369.055 148.569 365.596C151.38 364.419 154.471 363.413 157.432 364.128C159.549 364.639 161.383 365.996 162.835 367.619C168.64 374.111 168.403 383.905 167.077 392.512C165.753 401.12 163.725 410.209 166.968 418.293C169.271 424.033 174.2 429.433 172.88 435.476C172.351 437.897 170.841 440.009 170.265 442.419C168.715 448.915 174.111 454.768 176.585 460.972C179.776 468.977 177.585 478.76 171.535 484.835C170.384 485.989 168.753 486.533 167.143 486.27" fill="#F6859C"/>
<path d="M168.159 486.404C167.495 481.625 166.829 476.864 165.977 472.139C165.775 470.958 165.527 469.781 165.337 468.6C165.157 467.416 165.051 466.224 164.855 465.044C164.499 462.678 164.101 460.321 163.649 457.976C162.737 453.295 161.647 448.633 160.047 444.201C159.244 441.995 158.291 439.835 157.035 437.972C156.411 437.044 155.672 436.221 154.856 435.667C153.78 434.96 152.755 434.049 151.951 432.964C150.295 430.771 149.795 427.981 149.856 425.469C149.912 422.921 150.393 420.492 150.931 418.117C152.037 413.377 153.431 408.799 154.205 404.136C154.993 399.499 155.145 394.745 153.921 390.296C153.544 389.211 153.248 388.105 152.891 387C152.525 385.899 152.052 384.829 151.517 383.781C150.444 381.685 149.045 379.735 147.495 377.88C149.395 379.369 151.157 381.092 152.627 383.084C153.365 384.075 154.056 385.119 154.644 386.225C155.253 387.321 155.767 388.487 156.033 389.717C157.375 394.587 157.184 399.685 156.367 404.499C155.561 409.336 154.144 413.984 153.067 418.608C152.541 420.917 152.093 423.237 152.047 425.507C152 427.767 152.436 429.973 153.713 431.663C154.345 432.509 155.139 433.228 156.069 433.841C157.247 434.644 158.117 435.671 158.839 436.728C160.275 438.859 161.261 441.144 162.105 443.449C163.772 448.071 164.873 452.808 165.801 457.563C166.26 459.94 166.663 462.327 167.023 464.717C167.188 465.915 167.412 467.104 167.556 468.304C167.677 469.508 167.731 470.719 167.808 471.924C168.069 476.753 168.249 481.577 168.159 486.404" fill="#F25466"/>
<path d="M149.084 392.197C149.911 392.485 150.603 392.968 151.245 393.481C151.883 394.005 152.491 394.559 152.937 395.26C153.392 395.957 153.796 396.691 154.376 397.263C154.935 397.855 155.611 398.337 156.257 398.856L155.405 398.909C155.693 398.292 156.047 397.712 156.372 397.119C156.707 396.531 157.043 395.945 157.44 395.401C157.812 394.841 158.239 394.315 158.644 393.779C159.052 393.24 159.512 392.744 159.883 392.175L160.027 392.199C160.059 392.952 159.831 393.649 159.601 394.308C159.349 394.963 159.068 395.599 158.727 396.197C158.411 396.812 158.008 397.369 157.6 397.921C157.181 398.467 156.781 399.019 156.3 399.524L155.767 400.084L155.448 399.577C155.011 398.887 154.592 398.168 154.048 397.567C153.527 396.943 152.817 396.493 152.149 396.016C151.476 395.54 150.945 394.935 150.423 394.319C149.907 393.693 149.425 393.051 148.992 392.311L149.084 392.197" fill="#F25466"/>
<path d="M159.524 410.471C159.183 411.293 158.736 412.043 158.237 412.745C157.729 413.44 157.2 414.117 156.592 414.721C155.971 415.312 155.259 415.817 154.592 416.361C153.939 416.919 153.363 417.545 152.84 418.231L152.673 418.448L152.439 418.26C151.569 417.569 150.879 416.937 150.193 416.2C149.544 415.46 148.853 414.755 148.249 413.984C147.64 413.217 147.071 412.421 146.532 411.604C145.985 410.789 145.496 409.936 144.928 409.14L145.011 409.019C145.964 409.469 146.707 410.168 147.444 410.833C148.169 411.517 148.841 412.241 149.464 413.004C150.093 413.76 150.628 414.589 151.212 415.376C151.783 416.145 152.264 417.103 152.805 417.777L152.404 417.807C153.065 417.265 153.661 416.655 154.173 415.969C154.673 415.271 155.121 414.527 155.647 413.859C156.185 413.201 156.799 412.613 157.409 412.021C158.031 411.44 158.689 410.893 159.409 410.381L159.524 410.471" fill="#F25466"/>
<path d="M140.32 424.579C141.227 425.643 142.167 426.625 143.129 427.56C144.093 428.5 145.129 429.32 146.136 430.224C147.163 431.096 148.327 431.877 149.645 432.263C150.953 432.676 152.341 432.727 153.68 432.712L153.081 433.133C153.317 432.007 153.668 430.944 154.036 429.868C154.4 428.795 154.864 427.752 155.424 426.757C155.979 425.759 156.637 424.805 157.415 423.945C158.204 423.108 159.117 422.32 160.209 421.929L160.283 422.056C159.457 422.804 158.819 423.668 158.267 424.591C157.703 425.505 157.227 426.472 156.757 427.445L155.415 430.411C154.972 431.405 154.584 432.441 154.197 433.447L154.009 433.932L153.597 433.868C152.172 433.644 150.82 433.163 149.499 432.697C148.193 432.188 146.851 431.74 145.567 431.083C144.268 430.448 143.176 429.463 142.259 428.367C141.344 427.268 140.597 426.019 140.189 424.643L140.32 424.579" fill="#F25466"/>
<path d="M166.289 435.375C166.729 436.432 166.88 437.584 166.851 438.725C166.803 439.864 166.623 441.015 166.224 442.088C165.804 443.155 165.189 444.135 164.5 445.023L162.491 447.693L162.348 447.884L162.116 447.72C161.028 446.947 159.792 446.36 158.612 445.745C157.435 445.113 156.215 444.573 154.993 444.053C153.773 443.527 152.556 442.995 151.303 442.524C150.06 442.015 148.781 441.608 147.484 441.12L147.505 440.975C150.276 440.915 153.072 441.503 155.619 442.625C156.896 443.183 158.097 443.897 159.26 444.652C160.42 445.425 161.452 446.356 162.465 447.316L162.089 447.341C162.833 446.557 163.512 445.689 163.945 444.693C164.427 443.721 164.665 442.663 164.996 441.672C165.639 439.672 166.047 437.613 166.147 435.408L166.289 435.375" fill="#F25466"/>
<path d="M186.668 517.412H155.927C153.073 517.412 150.648 514.947 150.219 511.608L145.352 473.792C144.819 469.654 147.525 465.928 151.06 465.928H191.535C195.069 465.928 197.776 469.654 197.243 473.792L192.376 511.608C191.947 514.947 189.521 517.412 186.668 517.412" fill="#9BDFF5"/>
<path d="M191.535 465.928H184.84C188.376 465.928 191.081 469.654 190.548 473.792L185.683 511.608C185.253 514.947 182.827 517.412 179.973 517.412H186.668C189.521 517.412 191.947 514.947 192.376 511.608L197.243 473.792C197.776 469.654 195.069 465.928 191.535 465.928Z" fill="#87D8F7"/>
<path d="M101.999 318.344H9.1328C4.08853 318.344 0 314.255 0 309.211V260.916C0 255.873 4.08853 251.785 9.1328 251.785H101.999C107.043 251.785 111.132 255.873 111.132 260.916V309.211C111.132 314.255 107.043 318.344 101.999 318.344" fill="#87D8F7"/>
<path d="M105.136 318.344H5.99533C2.6844 318.344 0 315.66 0 312.349L55.5656 275.465L111.132 312.349C111.132 315.66 108.448 318.344 105.136 318.344" fill="#9BDFF5"/>
<path d="M105.136 251.785H5.99533C2.6844 251.785 0 254.468 0 257.78L55.5656 294.663L111.132 257.78C111.132 254.468 108.448 251.785 105.136 251.785" fill="#F9FDFF"/>
<path d="M765.927 10.384H544.153C537.245 10.384 531.644 15.984 531.644 22.8947V74.7626C531.644 81.672 537.245 87.2733 544.153 87.2733H566.429L558.837 106.012L584.08 87.2733H765.927C772.836 87.2733 778.436 81.672 778.436 74.7626V22.8947C778.436 15.984 772.836 10.384 765.927 10.384Z" fill="#87D8F7"/>
<path d="M669.699 61.956C669.699 60.3413 668.391 59.0333 666.777 59.0333H558.795C557.18 59.0333 555.872 60.3413 555.872 61.956C555.872 63.5693 557.18 64.8787 558.795 64.8787H666.777C668.391 64.8787 669.699 63.5693 669.699 61.956ZM754.209 48.828C754.209 47.2147 752.901 45.9054 751.287 45.9054H558.795C557.18 45.9054 555.872 47.2147 555.872 48.828C555.872 50.4427 557.18 51.7507 558.795 51.7507H751.287C752.901 51.7507 754.209 50.4427 754.209 48.828ZM751.287 38.624H582.268C580.655 38.624 579.347 37.316 579.347 35.7013C579.347 34.088 580.655 32.7787 582.268 32.7787H751.287C752.901 32.7787 754.209 34.088 754.209 35.7013C754.209 37.316 752.901 38.624 751.287 38.624Z" fill="white"/>
<path d="M840.266 270.268C834.588 275.948 825.379 275.948 819.699 270.268C814.02 264.587 814.02 255.379 819.699 249.699C825.379 244.019 834.588 244.019 840.266 249.699C845.946 255.379 845.946 264.587 840.266 270.268ZM811.529 241.528C802.909 250.148 801.608 263.281 807.566 273.297L763.71 317.153C762.812 318.052 762.812 319.508 763.71 320.407L769.56 326.255C770.459 327.153 771.915 327.153 772.812 326.255L775.927 323.14L784.03 331.243C784.928 332.141 786.384 332.141 787.283 331.243L792.073 326.453C792.972 325.555 792.972 324.099 792.073 323.2L783.971 315.097L788.166 310.901L795.089 317.824C795.987 318.723 797.444 318.723 798.341 317.824L803.133 313.033C804.03 312.135 804.03 310.68 803.133 309.781L796.209 302.857L816.668 282.4C826.685 288.357 839.819 287.057 848.437 278.439C858.631 268.245 858.631 251.721 848.437 241.528C838.245 231.336 821.72 231.336 811.529 241.528" fill="#87D8F7"/>
<path d="M84.7732 418.679L84.4332 417.712C82.8093 413.089 85.2399 408.024 89.8625 406.4C94.4852 404.776 99.5492 407.205 101.175 411.828L101.513 412.795C103.139 417.417 100.708 422.481 96.0865 424.107H96.0852C91.4625 425.732 86.3985 423.3 84.7732 418.679V418.679ZM77.5615 399.196C76.8369 397.136 76.3172 395.123 75.9937 393.163C75.6697 391.203 75.8172 389.177 76.4588 387.071C77.0932 384.971 78.4708 382.795 80.5869 380.529C81.2296 379.829 82.1625 378.86 83.3885 377.629C84.6159 376.399 85.8105 375.025 86.9719 373.497C88.1345 371.972 89.0239 370.403 89.6239 368.795C90.2319 367.184 90.2799 365.631 89.7545 364.137C89.3799 363.073 88.7412 362.237 87.8399 361.64C86.9372 361.04 85.9279 360.693 84.8105 360.608C83.6859 360.524 82.5468 360.683 81.3959 361.087C79.6735 361.692 78.3963 362.611 77.5708 363.828C76.7448 365.047 76.1703 366.304 75.8599 367.584C75.5416 368.871 75.2183 369.971 74.9005 370.893L58.5683 366.197C58.7536 362.82 59.6047 359.707 61.1161 356.871C62.6177 354.037 64.6719 351.537 67.2672 349.372C69.8625 347.205 72.8916 345.515 76.3453 344.3C79.0869 343.337 81.9765 342.765 85.0199 342.575C88.0719 342.385 91.0425 342.743 93.9545 343.645C96.8599 344.549 99.5039 346.143 101.88 348.437C104.264 350.729 106.159 353.869 107.561 357.864C108.164 359.577 108.601 361.271 108.863 362.941C109.124 364.611 109.161 366.261 108.965 367.896C108.769 369.528 108.336 371.163 107.659 372.801C106.981 374.443 106.035 376.077 104.831 377.705C103.241 379.868 101.532 381.832 99.6852 383.601C97.8399 385.375 96.3425 387.041 95.1945 388.605C94.0479 390.175 93.7505 391.744 94.3012 393.313L77.5615 399.196" fill="white"/>
</g>
</svg>
