<svg width="30" height="30" viewBox="0 0 30 30" fill="none" xmlns="http://www.w3.org/2000/svg">
<path d="M15 0C6.71552 0 0 6.71552 0 15C0 23.2845 6.71552 30 15 30C23.2845 30 30 23.2845 30 15C30 6.71552 23.2845 0 15 0ZM14.3141 14.53C14.1393 14.8216 13.8242 15 13.4843 15H13.4655C13.2091 15 12.9629 15.1022 12.7815 15.2837L12.4391 15.626C12.2504 15.8147 12.2504 16.1214 12.4391 16.3101L12.7815 16.6524C12.9629 16.8339 13.0651 17.08 13.0651 17.3365V17.9032C13.0651 18.4379 12.6321 18.871 12.0974 18.871H11.7278C11.3613 18.871 11.0262 18.6641 10.8623 18.3357L9.49415 15.6C9.34657 15.3048 8.95282 15.2407 8.71935 15.4742L7.54173 16.6512C7.36028 16.8327 7.11411 16.9349 6.85766 16.9349H3.07319C2.97097 16.3034 2.90323 15.6605 2.90323 15C2.90323 8.32984 8.32984 2.90323 15 2.90323C16.301 2.90323 17.5524 3.11552 18.7276 3.49718L15.6937 5.82762C15.3847 6.03387 15.4137 6.49657 15.7458 6.6629L16.4008 6.99012C16.7286 7.15403 16.9355 7.48911 16.9355 7.85565V12.5806C16.9355 12.848 16.719 13.0645 16.4516 13.0645H16.2665C16.0833 13.0645 15.9157 12.9611 15.8341 12.7972C15.7397 12.6085 15.4736 12.5982 15.3647 12.779L14.3141 14.53ZM24.6774 21.1954C24.6774 21.4518 24.5752 21.698 24.3937 21.8794L23.8149 22.4583C23.6335 22.6397 23.3873 22.7419 23.1308 22.7419H22.2139C21.9575 22.7419 21.7113 22.6397 21.5298 22.4583L20.7429 21.6714C20.5452 21.4737 20.2997 21.3306 20.0303 21.2559C19.7608 21.1813 19.4767 21.1777 19.2054 21.2456L17.919 21.5673C17.8421 21.5867 17.7635 21.5964 17.6843 21.5964H17.0589C16.8024 21.5964 16.5562 21.4942 16.3748 21.3127L15.6544 20.5923C15.5638 20.5015 15.5129 20.3784 15.5129 20.25V19.6331C15.5129 19.4353 15.6333 19.2575 15.8171 19.1837L18.1966 18.2317C18.3163 18.1839 18.43 18.1216 18.5347 18.0472L19.9687 17.0256C20.0507 16.9672 20.1488 16.9359 20.2494 16.9361H20.9806C21.176 16.9361 21.3526 17.0534 21.4276 17.2343L21.7512 18.0115C21.7696 18.0555 21.8006 18.0932 21.8403 18.1196C21.88 18.1461 21.9267 18.1603 21.9744 18.1603H22.2042C22.3119 18.1603 22.4069 18.0889 22.4365 17.9861L22.6905 17.1109C22.7208 17.0075 22.8151 16.9367 22.9228 16.9367H23.2893C23.423 16.9367 23.5312 17.045 23.5312 17.1786V17.9607C23.5312 18.0889 23.5821 18.2123 23.6728 18.303L24.3931 19.0234C24.5746 19.2048 24.6768 19.451 24.6768 19.7075L24.6774 21.1954Z" fill="white"/>
</svg>
