<svg width="523" height="523" viewBox="0 0 523 523" fill="none" xmlns="http://www.w3.org/2000/svg">
<g clip-path="url(#clip0)">
<g opacity="0.2">
<path d="M488.133 69.7333V87.1667C497.763 87.1667 505.567 94.9701 505.567 104.6V366.1H17.4333V104.6C17.4333 94.9701 25.2367 87.1667 34.8667 87.1667V69.7333C15.6113 69.7333 0 85.3447 0 104.6V400.967C0 420.222 15.6113 435.833 34.8667 435.833H206.201L185.281 505.567H165.617V523H357.383V505.567H337.719L316.799 435.833H488.133C507.389 435.833 523 420.222 523 400.967V104.6C523 85.3447 507.389 69.7333 488.133 69.7333ZM319.518 505.567H203.482L224.402 435.833H298.598L319.518 505.567ZM505.567 400.967C505.567 410.597 497.763 418.4 488.133 418.4H34.8667C25.2367 418.4 17.4333 410.597 17.4333 400.967V383.533H505.567V400.967Z" fill="url(#paint0_linear)"/>
<path d="M87.1667 348.667H435.833C455.089 348.667 470.7 333.055 470.7 313.8V34.8665C470.7 15.6112 455.089 -0.00012207 435.833 -0.00012207H87.1667C67.9113 -0.00012207 52.3 15.6112 52.3 34.8665V313.8C52.3 333.055 67.9113 348.667 87.1667 348.667ZM69.7333 34.8665C69.7333 25.2366 77.5368 17.4332 87.1667 17.4332H435.833C445.463 17.4332 453.267 25.2366 453.267 34.8665V313.8C453.267 323.43 445.463 331.233 435.833 331.233H87.1667C77.5368 331.233 69.7333 323.43 69.7333 313.8V34.8665Z" fill="url(#paint1_linear)"/>
<path d="M87.1666 52.3H104.6V34.8667H87.1666V52.3Z" fill="url(#paint2_linear)"/>
<path d="M122.034 52.3H139.467V34.8667H122.034V52.3Z" fill="url(#paint3_linear)"/>
<path d="M156.9 52.3H174.333V34.8667H156.9V52.3Z" fill="url(#paint4_linear)"/>
<path d="M332.246 242.96C333.426 240.475 334.476 237.939 335.4 235.35H357.383C362.199 235.35 366.1 231.449 366.1 226.633V191.767C366.1 186.951 362.199 183.05 357.383 183.05H335.4C334.476 180.461 333.426 177.925 332.246 175.44L347.795 159.89C351.199 156.488 351.199 150.968 347.795 147.569L323.131 122.905C319.732 119.501 314.212 119.501 310.81 122.905L295.26 138.445C292.775 137.27 290.239 136.22 287.65 135.3V113.317C287.65 108.501 283.749 104.6 278.933 104.6H244.067C239.251 104.6 235.35 108.501 235.35 113.317V135.3C232.761 136.224 230.225 137.274 227.74 138.454L212.19 122.905C208.788 119.501 203.268 119.501 199.869 122.905L175.205 147.569C171.801 150.968 171.801 156.488 175.205 159.89L190.745 175.44C189.566 177.925 188.515 180.461 187.594 183.05H165.617C160.801 183.05 156.9 186.951 156.9 191.767V226.633C156.9 231.449 160.801 235.35 165.617 235.35H187.6C188.524 237.939 189.574 240.475 190.754 242.96L175.205 258.51C171.801 261.912 171.801 267.432 175.205 270.831L199.869 295.495C203.268 298.899 208.788 298.899 212.19 295.495L227.74 279.955C230.225 281.134 232.761 282.185 235.35 283.106V305.083C235.35 309.899 239.251 313.8 244.067 313.8H278.933C283.749 313.8 287.65 309.899 287.65 305.083V283.1C290.239 282.176 292.775 281.126 295.26 279.946L310.81 295.495C314.212 298.899 319.732 298.899 323.131 295.495L347.795 270.831C351.199 267.432 351.199 261.912 347.795 258.51L332.246 242.96ZM316.971 276.955L303.027 263.003C300.213 260.192 295.852 259.643 292.423 261.666C287.528 264.551 282.244 266.734 276.736 268.16C272.888 269.153 270.199 272.618 270.199 276.597V296.367H252.783V276.647C252.783 272.675 250.092 269.204 246.246 268.212C240.737 266.791 235.457 264.603 230.556 261.718C227.13 259.696 222.767 260.245 219.956 263.065L206.007 277.005L193.686 264.684L207.631 250.737C210.446 247.922 210.998 243.561 208.978 240.133C206.088 235.237 203.903 229.954 202.477 224.45C201.488 220.599 198.016 217.912 194.044 217.912H174.333V200.483H194.053C198.025 200.483 201.496 197.792 202.488 193.946C203.909 188.437 206.097 183.157 208.982 178.256C211.004 174.83 210.455 170.467 207.635 167.656L193.695 153.707L206.016 141.386L219.963 155.331C222.778 158.146 227.139 158.698 230.567 156.678C235.463 153.788 240.746 151.602 246.25 150.177C250.101 149.188 252.788 145.716 252.788 141.744V122.033H270.221V141.753C270.221 145.725 272.915 149.196 276.759 150.188C282.269 151.609 287.552 153.797 292.449 156.682C295.876 158.704 300.241 158.155 303.054 155.335L317.001 141.395L329.324 153.716L315.38 167.663C312.569 170.478 312.013 174.839 314.035 178.267C316.919 183.163 319.109 188.446 320.529 193.95C321.523 197.801 324.996 200.488 328.969 200.488H348.667V217.921H328.947C324.975 217.921 321.504 220.615 320.512 224.459C319.091 229.969 316.903 235.252 314.018 240.149C311.996 243.576 312.545 247.941 315.365 250.754L329.305 264.701L316.971 276.955Z" fill="url(#paint5_linear)"/>
<path d="M261.5 165.617C237.431 165.617 217.917 185.131 217.917 209.2C217.917 233.269 237.431 252.783 261.5 252.783C285.569 252.783 305.083 233.269 305.083 209.2C305.053 185.142 285.558 165.647 261.5 165.617ZM261.5 235.35C247.061 235.35 235.35 223.639 235.35 209.2C235.35 194.761 247.061 183.05 261.5 183.05C275.939 183.05 287.65 194.761 287.65 209.2C287.65 223.639 275.939 235.35 261.5 235.35Z" fill="url(#paint6_linear)"/>
</g>
</g>
<defs>
<linearGradient id="paint0_linear" x1="261.5" y1="523" x2="261.5" y2="69.7333" gradientUnits="userSpaceOnUse">
<stop stop-color="#715C92"/>
<stop offset="1" stop-color="#155079"/>
</linearGradient>
<linearGradient id="paint1_linear" x1="261.5" y1="348.667" x2="261.5" y2="-0.00012207" gradientUnits="userSpaceOnUse">
<stop stop-color="#715C92"/>
<stop offset="1" stop-color="#155079"/>
</linearGradient>
<linearGradient id="paint2_linear" x1="95.8833" y1="52.3" x2="95.8833" y2="34.8667" gradientUnits="userSpaceOnUse">
<stop stop-color="#715C92"/>
<stop offset="1" stop-color="#155079"/>
</linearGradient>
<linearGradient id="paint3_linear" x1="130.75" y1="52.3" x2="130.75" y2="34.8667" gradientUnits="userSpaceOnUse">
<stop stop-color="#715C92"/>
<stop offset="1" stop-color="#155079"/>
</linearGradient>
<linearGradient id="paint4_linear" x1="165.617" y1="52.3" x2="165.617" y2="34.8667" gradientUnits="userSpaceOnUse">
<stop stop-color="#715C92"/>
<stop offset="1" stop-color="#155079"/>
</linearGradient>
<linearGradient id="paint5_linear" x1="261.5" y1="313.8" x2="261.5" y2="104.6" gradientUnits="userSpaceOnUse">
<stop stop-color="#715C92"/>
<stop offset="1" stop-color="#155079"/>
</linearGradient>
<linearGradient id="paint6_linear" x1="261.5" y1="252.783" x2="261.5" y2="165.617" gradientUnits="userSpaceOnUse">
<stop stop-color="#715C92"/>
<stop offset="1" stop-color="#155079"/>
</linearGradient>
<clipPath id="clip0">
<rect width="523" height="523" fill="white"/>
</clipPath>
</defs>
</svg>
