<svg width="65" height="65" viewBox="0 0 65 65" fill="none" xmlns="http://www.w3.org/2000/svg">
<path d="M60.6667 8.66667V10.8333C61.8635 10.8333 62.8333 11.8032 62.8333 13V45.5H2.16667V13C2.16667 11.8032 3.13649 10.8333 4.33333 10.8333V8.66667C1.94022 8.66667 0 10.6069 0 13V49.8333C0 52.2264 1.94022 54.1667 4.33333 54.1667H25.6273L23.0273 62.8333H20.5833V65H44.4167V62.8333H41.9727L39.3727 54.1667H60.6667C63.0598 54.1667 65 52.2264 65 49.8333V13C65 10.6069 63.0598 8.66667 60.6667 8.66667ZM39.7107 62.8333H25.2893L27.8893 54.1667H37.1107L39.7107 62.8333ZM62.8333 49.8333C62.8333 51.0302 61.8635 52 60.6667 52H4.33333C3.13649 52 2.16667 51.0302 2.16667 49.8333V47.6667H62.8333V49.8333Z" fill="#FDFEFF"/>
<path d="M10.8333 43.3333H54.1667C56.5598 43.3333 58.5 41.3931 58.5 39V4.33334C58.5 1.94023 56.5598 1.00546e-05 54.1667 1.00546e-05H10.8333C8.44022 1.00546e-05 6.5 1.94023 6.5 4.33334V39C6.5 41.3931 8.44022 43.3333 10.8333 43.3333ZM8.66667 4.33334C8.66667 3.13651 9.6365 2.16668 10.8333 2.16668H54.1667C55.3635 2.16668 56.3333 3.13651 56.3333 4.33334V39C56.3333 40.1968 55.3635 41.1667 54.1667 41.1667H10.8333C9.6365 41.1667 8.66667 40.1968 8.66667 39V4.33334Z" fill="#FDFEFF"/>
<path d="M10.8333 6.5H13V4.33333H10.8333V6.5Z" fill="#FDFEFF"/>
<path d="M15.1667 6.5H17.3334V4.33333H15.1667V6.5Z" fill="#FDFEFF"/>
<path d="M19.5 6.5H21.6667V4.33333H19.5V6.5Z" fill="#FDFEFF"/>
<path d="M41.2926 30.1958C41.4391 29.887 41.5696 29.5718 41.6845 29.25H44.4167C45.0152 29.25 45.5 28.7652 45.5 28.1667V23.8334C45.5 23.2348 45.0152 22.75 44.4167 22.75H41.6845C41.5696 22.4283 41.4391 22.1131 41.2926 21.8042L43.225 19.8716C43.648 19.4489 43.648 18.7628 43.225 18.3403L40.1597 15.275C39.7372 14.852 39.0512 14.852 38.6284 15.275L36.6958 17.2063C36.387 17.0603 36.0718 16.9298 35.75 16.8155V14.0834C35.75 13.4848 35.2652 13 34.6667 13H30.3333C29.7348 13 29.25 13.4848 29.25 14.0834V16.8155C28.9282 16.9304 28.613 17.0609 28.3042 17.2074L26.3716 15.275C25.9488 14.852 25.2628 14.852 24.8403 15.275L21.775 18.3403C21.352 18.7628 21.352 19.4489 21.775 19.8716L23.7063 21.8042C23.5598 22.1131 23.4293 22.4283 23.3147 22.75H20.5833C19.9848 22.75 19.5 23.2348 19.5 23.8334V28.1667C19.5 28.7652 19.9848 29.25 20.5833 29.25H23.3155C23.4304 29.5718 23.5609 29.887 23.7074 30.1958L21.775 32.1285C21.352 32.5512 21.352 33.2373 21.775 33.6598L24.8403 36.7251C25.2628 37.1481 25.9488 37.1481 26.3716 36.7251L28.3042 34.7937C28.613 34.9402 28.9282 35.0708 29.25 35.1853V37.9167C29.25 38.5153 29.7348 39 30.3333 39H34.6667C35.2652 39 35.75 38.5153 35.75 37.9167V35.1845C36.0718 35.0697 36.387 34.9392 36.6958 34.7926L38.6284 36.7251C39.0512 37.1481 39.7372 37.1481 40.1597 36.7251L43.225 33.6598C43.648 33.2373 43.648 32.5512 43.225 32.1285L41.2926 30.1958ZM39.3941 34.4208L37.661 32.6869C37.3114 32.3375 36.7694 32.2693 36.3431 32.5206C35.7348 32.8792 35.0781 33.1506 34.3936 33.3277C33.9154 33.4512 33.5812 33.8818 33.5812 34.3763V36.8334H31.4167V34.3826C31.4167 33.8888 31.0822 33.4575 30.6041 33.3342C29.9195 33.1576 29.2632 32.8857 28.6541 32.5271C28.2284 32.2758 27.6862 32.344 27.3368 32.6945L25.6032 34.427L24.0719 32.8957L25.805 31.1624C26.1549 30.8125 26.2235 30.2705 25.9724 29.8445C25.6133 29.236 25.3416 28.5794 25.1645 27.8953C25.0415 27.4168 24.6101 27.0828 24.1164 27.0828H21.6667V24.9167H24.1175C24.6112 24.9167 25.0426 24.5822 25.1659 24.1042C25.3424 23.4195 25.6144 22.7633 25.9729 22.1542C26.2242 21.7285 26.156 21.1862 25.8055 20.8368L24.073 19.1032L25.6043 17.5719L27.3376 19.3051C27.6876 19.6549 28.2295 19.7235 28.6555 19.4724C29.2641 19.1133 29.9206 18.8416 30.6047 18.6645C31.0832 18.5416 31.4172 18.1101 31.4172 17.6164V15.1667H33.5839V17.6175C33.5839 18.1112 33.9186 18.5426 34.3964 18.6659C35.0813 18.8425 35.7378 19.1144 36.3464 19.4729C36.7724 19.7242 37.3149 19.656 37.6645 19.3055L39.3978 17.573L40.9294 19.1043L39.1964 20.8377C38.847 21.1876 38.7779 21.7295 39.0293 22.1556C39.3876 22.7641 39.6598 23.4206 39.8363 24.1047C39.9599 24.5833 40.3915 24.9172 40.8852 24.9172H43.3333V27.0839H40.8825C40.3888 27.0839 39.9574 27.4187 39.8341 27.8964C39.6576 28.5813 39.3856 29.2378 39.0271 29.8464C38.7758 30.2724 38.844 30.8149 39.1945 31.1645L40.927 32.8979L39.3941 34.4208Z" fill="#FDFEFF"/>
<path d="M32.5 20.5833C29.5086 20.5833 27.0833 23.0086 27.0833 26C27.0833 28.9914 29.5086 31.4167 32.5 31.4167C35.4914 31.4167 37.9167 28.9914 37.9167 26C37.9129 23.01 35.49 20.5872 32.5 20.5833ZM32.5 29.25C30.7055 29.25 29.25 27.7946 29.25 26C29.25 24.2055 30.7055 22.75 32.5 22.75C34.2946 22.75 35.75 24.2055 35.75 26C35.75 27.7946 34.2946 29.25 32.5 29.25Z" fill="#FDFEFF"/>
</svg>
