<svg xmlns="http://www.w3.org/2000/svg" width="95.017" height="92.4" viewBox="0 0 95.017 92.4">
  <g id="noun_Blood_Donation_1601575" data-name="noun_Blood Donation_1601575" transform="translate(-2.492 -3.9)">
    <g id="Group_294" data-name="Group 294">
      <path id="Path_419" data-name="Path 419" d="M66.9,35.7c0-7.5-9.9-24.6-13-29.6a4.494,4.494,0,0,0-4-2.2,4.734,4.734,0,0,0-4,2.2c-3,5.1-13,22.1-13,29.6a17,17,0,0,0,34,0ZM46.7,27.5c0,.1-4.7,7.6-1.3,12.6a2.352,2.352,0,0,1-.6,3.2,2.01,2.01,0,0,1-1.3.4,2.417,2.417,0,0,1-1.9-1c-5.1-7.6.9-17.2,1.2-17.7a2.285,2.285,0,0,1,3.2-.7A2.5,2.5,0,0,1,46.7,27.5Z" fill="#fff"/>
      <path id="Path_420" data-name="Path 420" d="M39.4,66.1a71.177,71.177,0,0,0-7.2-9.2,95.739,95.739,0,0,1-6.8-8.3,3.735,3.735,0,0,0-5.2-.9c-2,1.2-3.5,3.9-1.3,8.1C20,58,22.7,60.9,25.5,64c.2.2.3.4.5.6a1.572,1.572,0,0,1-.3,2.4,1.827,1.827,0,0,1-2.1-.3l-.5-.5a70.811,70.811,0,0,1-5.6-6.6A15.762,15.762,0,0,1,16,57.2a9.662,9.662,0,0,1-.8-8.3,69.98,69.98,0,0,1-3.4-8.3C10,35,2.2,36.4,2.5,42.5S5,69.2,11,76.2A71.242,71.242,0,0,0,23.8,87.3a3.127,3.127,0,0,1,1.3,2.5V94a2.263,2.263,0,0,0,2.3,2.3H42A2.263,2.263,0,0,0,44.3,94c-.1-2.5-.2-6.7-.4-10.3C43.4,76.1,41.1,69,39.4,66.1Z" fill="#fff"/>
      <path id="Path_421" data-name="Path 421" d="M88.2,40.7A77.613,77.613,0,0,1,84.8,49c.9,2.2.8,5.1-.8,8.3a22.863,22.863,0,0,1-1.5,2.4c-1.5,2-3.4,4.2-5.6,6.6-.1.2-.3.3-.5.5a1.552,1.552,0,0,1-2.1.3,1.572,1.572,0,0,1-.3-2.4c.2-.2.3-.4.5-.6,2.8-3.1,5.5-6,6.6-8.2,2.1-4.1.7-6.9-1.3-8.1-1.7-1-4-1-5.2.9A70.908,70.908,0,0,1,67.8,57a71.177,71.177,0,0,0-7.2,9.2c-1.8,3-4,10-4.5,17.4-.2,3.6-.3,7.8-.4,10.3A2.263,2.263,0,0,0,58,96.2H72.6a2.263,2.263,0,0,0,2.3-2.3V89.7a3.127,3.127,0,0,1,1.3-2.5A71.242,71.242,0,0,0,89,76.1c6-7,8.1-27.5,8.5-33.6C97.8,36.4,90,35,88.2,40.7Z" fill="#fff"/>
    </g>
  </g>
</svg>
