<svg xmlns="http://www.w3.org/2000/svg" width="95.02" height="84.461" viewBox="0 0 95.02 84.461">
  <path id="charity" d="M45.412,41.3a2.874,2.874,0,0,0,4.206,0L67.583,22.466a13.674,13.674,0,0,0-.924-19.6c-5.081-4.4-12.652-3.613-17.3,1.27l-1.847,1.93L45.676,4.155c-4.652-4.9-12.223-5.691-17.3-1.287a13.688,13.688,0,0,0-.924,19.6ZM93.25,54.1a5.46,5.46,0,0,0-7.027,0L70.981,66.294a10.5,10.5,0,0,1-6.6,2.309H44.868a2.639,2.639,0,1,1,0-5.279H57.784a5.492,5.492,0,0,0,5.493-4.388,5.285,5.285,0,0,0-5.213-6.169H31.672a19.414,19.414,0,0,0-12.223,4.338l-7.67,6.219H2.639A2.647,2.647,0,0,0,0,65.964V81.8A2.647,2.647,0,0,0,2.639,84.44H61.5a10.57,10.57,0,0,0,6.6-2.309L93.035,62.17A5.276,5.276,0,0,0,93.25,54.1Z" transform="translate(0 0.021)" fill="#fcf4f4"/>
</svg>
