<svg xmlns="http://www.w3.org/2000/svg" width="95.02" height="69.047" viewBox="0 0 95.02 69.047">
  <g id="noun_people_2626229" transform="translate(-5 -17.3)">
    <path id="Path_422" data-name="Path 422" d="M71.18,22.59a13.91,13.91,0,0,1,13.9,13.89h0A13.9,13.9,0,0,1,62.3,47.18,19,19,0,0,0,69,32.74a18.79,18.79,0,0,0-2.5-9.34,13.66,13.66,0,0,1,4.68-.81Z" transform="translate(5.019)" fill="#fff"/>
    <path id="Path_423" data-name="Path 423" d="M50,17.3A15.44,15.44,0,1,1,34.56,32.74,15.44,15.44,0,0,1,50,17.3Z" transform="translate(2.51)" fill="#fff"/>
    <path id="Path_424" data-name="Path 424" d="M14.92,36.48A13.9,13.9,0,0,1,33.5,23.4,18.79,18.79,0,0,0,31,32.74a19,19,0,0,0,6.7,14.44A13.9,13.9,0,0,1,14.92,36.5Z" fill="#fff"/>
    <path id="Path_425" data-name="Path 425" d="M20,64.61V82.7H5V65.18a3.57,3.57,0,0,1,1.36-2.86h0A35.47,35.47,0,0,1,28.8,54.38a3.239,3.239,0,0,1,.44,0,42,42,0,0,0-6.37,4.25A7.57,7.57,0,0,0,20,64.61Z" transform="translate(0 3.647)" fill="#fff"/>
    <path id="Path_426" data-name="Path 426" d="M81.489,82.7H23.53V64.62a3.879,3.879,0,0,1,1.664-3.19h0a46.636,46.636,0,0,1,54.609,0h0a3.879,3.879,0,0,1,1.664,3.19Z" transform="translate(0 3.647)" fill="#fff"/>
    <path id="Path_427" data-name="Path 427" d="M93.64,62.32A3.57,3.57,0,0,1,95,65.18V82.7H80V64.61a7.57,7.57,0,0,0-2.89-6,42,42,0,0,0-6.37-4.25,3.24,3.24,0,0,1,.44,0A35.47,35.47,0,0,1,93.62,62.3Z" transform="translate(5.019 3.647)" fill="#fff"/>
  </g>
</svg>
